{
.appVersion = "1271";
classes = (
{
code = "a-soyo\012ka-soyo\012kha-soyo\012ga-soyo\012gha-soyo\012nga-soyo\012ca-soyo\012cha-soyo\012ja-soyo\012jha-soyo\012nya-soyo\012tta-soyo\012ttha-soyo\012dda-soyo\012ddha-soyo\012nna-soyo\012ta-soyo\012tha-soyo\012da-soyo\012dha-soyo\012na-soyo\012pa-soyo\012pha-soyo\012ba-soyo\012bha-soyo\012ma-soyo\012tsa-soyo\012tsha-soyo\012dza-soyo\012zha-soyo\012za-soyo\012aa-soyo\012ya-soyo\012ra-soyo\012la-soyo\012va-soyo\012sha-soyo\012ssa-soyo\012sa-soyo\012ha-soyo\012kssa-soyo";
name = baseLetters;
},
{
code = "gFinal-soyo\012kFinal-soyo\012ngFinal-soyo\012dFinal-soyo\012nFinal-soyo\012bFinal-soyo\012mFinal-soyo\012rFinal-soyo\012lFinal-soyo\012shFinal-soyo\012sFinal-soyo\012ueMatra-soyo\012uMatra-soyo\012rVocalicMatra-soyo\012lVocalicMatra-soyo";
name = halfBottomMarks0;
},
{
code = "gFinal-soyo.half\012kFinal-soyo.half\012ngFinal-soyo.half\012dFinal-soyo.half\012nFinal-soyo.half\012bFinal-soyo.half\012mFinal-soyo.half\012rFinal-soyo.half\012lFinal-soyo.half\012shFinal-soyo.half\012sFinal-soyo.half\012ueMatra-soyo.half\012uMatra-soyo.half\012rVocalicMatra-soyo.half\012lVocalicMatra-soyo.half";
name = halfBottomMarks1;
},
{
code = "kaSub-soyo\012khaSub-soyo\012gaSub-soyo\012ghaSub-soyo\012ngaSub-soyo\012ttaSub-soyo\012tthaSub-soyo\012ddaSub-soyo\012ddhaSub-soyo\012nnaSub-soyo\012daSub-soyo";
name = midStemBefore;
},
{
code = "kaSub-soyo\012khaSub-soyo\012gaSub-soyo\012ghaSub-soyo\012ngaSub-soyo\012haSub-soyo\012kssaSub-soyo";
name = midStemAfter;
},
{
code = "kaSub-soyo\012khaSub-soyo\012gaSub-soyo\012ghaSub-soyo\012ngaSub-soyo\012ttaSub-soyo\012tthaSub-soyo\012ddaSub-soyo\012ddhaSub-soyo\012nnaSub-soyo\012daSub-soyo\012";
name = bothStemBefore;
},
{
code = "ttaSub-soyo\012tthaSub-soyo\012ddaSub-soyo\012ddhaSub-soyo\012nnaSub-soyo\012daSub-soyo\012dhaSub-soyo\012";
name = bothStemAfter;
},
{
code = "raInitial-soyo laInitial-soyo shaInitial-soyo saInitial-soyo";
name = preConsonants;
},
{

glyphs = (
{
glyphname = .notdef;
lastChange = "2019-11-06 20:13:54 +0000";
layers = (
{
layerId = "BAFE8A66-C264-402A-9333-50E528A5D43A";
paths = (
{
closed = 1;
nodes = (
"505 0 LINE",
"505 714 LINE",
"94 714 LINE",
"94 0 LINE"
);
},
{
closed = 1;
nodes = (
"145 663 LINE",
"454 663 LINE",
"454 51 LINE",
"145 51 LINE"
);
}
);
width = 600;
}
);
note = .notdef;
script = "";
category = Separator;
subCategory = Other;
},
{
glyphname = dottedCircle;
production = uni25CC;
lastChange = "2019-11-06 20:13:54 +0000";
layers = (
{
anchors = (
{
name = bottom;
position = "{452, 0}";
},
{
name = top;
position = "{260, 714}";
}
);
layerId = "BAFE8A66-C264-402A-9333-50E528A5D43A";
paths = (
{
closed = 1;
nodes = (
"199 522 OFFCURVE",
"187 510 OFFCURVE",
"187 496 CURVE SMOOTH",
"187 482 OFFCURVE",
"199 470 OFFCURVE",
"213 470 CURVE SMOOTH",
"227 470 OFFCURVE",
"239 482 OFFCURVE",
"239 496 CURVE SMOOTH",
"239 510 OFFCURVE",
"227 522 OFFCURVE",
"213 522 CURVE SMOOTH"
);
},
{
closed = 1;
nodes = (
"367 522 OFFCURVE",
"355 510 OFFCURVE",
"355 496 CURVE SMOOTH",
"355 482 OFFCURVE",
"367 470 OFFCURVE",
"381 470 CURVE SMOOTH",
"395 470 OFFCURVE",
"407 482 OFFCURVE",
"407 496 CURVE SMOOTH",
"407 510 OFFCURVE",
"395 522 OFFCURVE",
"381 522 CURVE SMOOTH"
);
},
{
closed = 1;
nodes = (
"199 112 OFFCURVE",
"187 100 OFFCURVE",
"187 86 CURVE SMOOTH",
"187 72 OFFCURVE",
"199 60 OFFCURVE",
"213 60 CURVE SMOOTH",
"227 60 OFFCURVE",
"239 72 OFFCURVE",
"239 86 CURVE SMOOTH",
"239 100 OFFCURVE",
"227 112 OFFCURVE",
"213 112 CURVE SMOOTH"
);
},
{
closed = 1;
nodes = (
"367 112 OFFCURVE",
"355 100 OFFCURVE",
"355 86 CURVE SMOOTH",
"355 72 OFFCURVE",
"367 60 OFFCURVE",
"381 60 CURVE SMOOTH",
"395 60 OFFCURVE",
"407 72 OFFCURVE",
"407 86 CURVE SMOOTH",
"407 100 OFFCURVE",
"395 112 OFFCURVE",
"381 112 CURVE SMOOTH"
);
},
{
closed = 1;
nodes = (
"283 540 OFFCURVE",
"271 528 OFFCURVE",
"271 514 CURVE SMOOTH",
"271 500 OFFCURVE",
"283 488 OFFCURVE",
"297 488 CURVE SMOOTH",
"311 488 OFFCURVE",
"323 500 OFFCURVE",
"323 514 CURVE SMOOTH",
"323 528 OFFCURVE",
"311 540 OFFCURVE",
"297 540 CURVE SMOOTH"
);
},
{
closed = 1;
nodes = (
"283 94 OFFCURVE",
"271 82 OFFCURVE",
"271 68 CURVE SMOOTH",
"271 54 OFFCURVE",
"283 42 OFFCURVE",
"297 42 CURVE SMOOTH",
"311 42 OFFCURVE",
"323 54 OFFCURVE",
"323 68 CURVE SMOOTH",
"323 82 OFFCURVE",
"311 94 OFFCURVE",
"297 94 CURVE SMOOTH"
);
},
{
closed = 1;
nodes = (
"48 277 OFFCURVE",
"60 265 OFFCURVE",
"74 265 CURVE SMOOTH",
"88 265 OFFCURVE",
"100 277 OFFCURVE",
"100 291 CURVE SMOOTH",
"100 305 OFFCURVE",
"88 317 OFFCURVE",
"74 317 CURVE SMOOTH",
"60 317 OFFCURVE",
"48 305 OFFCURVE",
"48 291 CURVE SMOOTH"
);
},
{
closed = 1;
nodes = (
"494 277 OFFCURVE",
"506 265 OFFCURVE",
"520 265 CURVE SMOOTH",
"534 265 OFFCURVE",
"546 277 OFFCURVE",
"546 291 CURVE SMOOTH",
"546 305 OFFCURVE",
"534 317 OFFCURVE",
"520 317 CURVE SMOOTH",
"506 317 OFFCURVE",
"494 305 OFFCURVE",
"494 291 CURVE SMOOTH"
);
},
{
closed = 1;
nodes = (
"113 119 OFFCURVE",
"125 107 OFFCURVE",
"139 107 CURVE SMOOTH",
"153 107 OFFCURVE",
"165 119 OFFCURVE",
"165 133 CURVE SMOOTH",
"165 147 OFFCURVE",
"153 159 OFFCURVE",
"139 159 CURVE SMOOTH",
"125 159 OFFCURVE",
"113 147 OFFCURVE",
"113 133 CURVE SMOOTH"
);
},
{
closed = 1;
nodes = (
"113 435 OFFCURVE",
"125 423 OFFCURVE",
"139 423 CURVE SMOOTH",
"153 423 OFFCURVE",
"165 435 OFFCURVE",
"165 449 CURVE SMOOTH",
"165 463 OFFCURVE",
"153 475 OFFCURVE",
"139 475 CURVE SMOOTH",
"125 475 OFFCURVE",
"113 463 OFFCURVE",
"113 449 CURVE SMOOTH"
);
},
{
closed = 1;
nodes = (
"429 119 OFFCURVE",
"441 107 OFFCURVE",
"455 107 CURVE SMOOTH",
"469 107 OFFCURVE",
"481 119 OFFCURVE",
"481 133 CURVE SMOOTH",
"481 147 OFFCURVE",
"469 159 OFFCURVE",
"455 159 CURVE SMOOTH",
"441 159 OFFCURVE",
"429 147 OFFCURVE",
"429 133 CURVE SMOOTH"
);
},
{
closed = 1;
nodes = (
"429 435 OFFCURVE",
"441 423 OFFCURVE",
"455 423 CURVE SMOOTH",
"469 423 OFFCURVE",
"481 435 OFFCURVE",
"481 449 CURVE SMOOTH",
"481 463 OFFCURVE",
"469 475 OFFCURVE",
"455 475 CURVE SMOOTH",
"441 475 OFFCURVE",
"429 463 OFFCURVE",
"429 449 CURVE SMOOTH"
);
},
{
closed = 1;
nodes = (
"66 193 OFFCURVE",
"78 181 OFFCURVE",
"92 181 CURVE SMOOTH",
"106 181 OFFCURVE",
"118 193 OFFCURVE",
"118 207 CURVE SMOOTH",
"118 221 OFFCURVE",
"106 233 OFFCURVE",
"92 233 CURVE SMOOTH",
"78 233 OFFCURVE",
"66 221 OFFCURVE",
"66 207 CURVE SMOOTH"
);
},
{
closed = 1;
nodes = (
"66 361 OFFCURVE",
"78 349 OFFCURVE",
"92 349 CURVE SMOOTH",
"106 349 OFFCURVE",
"118 361 OFFCURVE",
"118 375 CURVE SMOOTH",
"118 389 OFFCURVE",
"106 401 OFFCURVE",
"92 401 CURVE SMOOTH",
"78 401 OFFCURVE",
"66 389 OFFCURVE",
"66 375 CURVE SMOOTH"
);
},
{
closed = 1;
nodes = (
"476 193 OFFCURVE",
"488 181 OFFCURVE",
"502 181 CURVE SMOOTH",
"516 181 OFFCURVE",
"528 193 OFFCURVE",
"528 207 CURVE SMOOTH",
"528 221 OFFCURVE",
"516 233 OFFCURVE",
"502 233 CURVE SMOOTH",
"488 233 OFFCURVE",
"476 221 OFFCURVE",
"476 207 CURVE SMOOTH"
);
},
{
closed = 1;
nodes = (
"476 361 OFFCURVE",
"488 349 OFFCURVE",
"502 349 CURVE SMOOTH",
"516 349 OFFCURVE",
"528 361 OFFCURVE",
"528 375 CURVE SMOOTH",
"528 389 OFFCURVE",
"516 401 OFFCURVE",
"502 401 CURVE SMOOTH",
"488 401 OFFCURVE",
"476 389 OFFCURVE",
"476 375 CURVE SMOOTH"
);
}
);
width = 594;
}
);
unicode = 25CC;
script = "";
category = Symbol;
subCategory = Geometry;
},
{
glyphname = "a-soyo";
production = uni11A50;
lastChange = "2019-11-06 20:13:54 +0000";
layers = (
{
anchors = (
{
name = bottom;
position = "{452, 0}";
},
{
name = top;
position = "{260, 714}";
}
);
layerId = "BAFE8A66-C264-402A-9333-50E528A5D43A";
paths = (
{
closed = 1;
nodes = (
"452 487 LINE",
"546 487 LINE",
"546 714 LINE",
"452 714 LINE"
);
},
{
closed = 1;
nodes = (
"460 714 LINE",
"60 714 LINE",
"60 708 LINE",
"260 589 LINE",
"460 708 LINE"
);
},
{
closed = 1;
nodes = (
"452 402 LINE",
"546 352 LINE",
"546 549 LINE",
"452 549 LINE"
);
},
{
closed = 1;
nodes = (
"67 609 OFFCURVE",
"34 581 OFFCURVE",
"34 535 CURVE SMOOTH",
"34 468 OFFCURVE",
"101 433 OFFCURVE",
"196 433 CURVE SMOOTH",
"287 433 OFFCURVE",
"357 462 OFFCURVE",
"428 535 CURVE",
"399 572 LINE",
"345 528 OFFCURVE",
"290 504 OFFCURVE",
"225 504 CURVE SMOOTH",
"173 504 OFFCURVE",
"148 524 OFFCURVE",
"148 553 CURVE SMOOTH",
"148 567 OFFCURVE",
"153 582 OFFCURVE",
"163 591 CURVE",
"153 602 OFFCURVE",
"134 609 OFFCURVE",
"110 609 CURVE SMOOTH"
);
},
{
closed = 1;
nodes = (
"452 65 LINE",
"546 15 LINE",
"546 402 LINE",
"452 402 LINE"
);
},
{
closed = 1;
nodes = (
"223 373 OFFCURVE",
"178 345 OFFCURVE",
"146 286 CURVE",
"181 265 LINE",
"204 295 OFFCURVE",
"234 309 OFFCURVE",
"267 309 CURVE SMOOTH",
"311 309 OFFCURVE",
"334 283 OFFCURVE",
"334 246 CURVE SMOOTH",
"334 202 OFFCURVE",
"302 176 OFFCURVE",
"244 176 CURVE SMOOTH",
"173 176 OFFCURVE",
"111 213 OFFCURVE",
"48 291 CURVE",
"14 255 LINE",
"93 151 OFFCURVE",
"168 116 OFFCURVE",
"251 116 CURVE SMOOTH",
"346 116 OFFCURVE",
"408 163 OFFCURVE",
"408 250 CURVE SMOOTH",
"408 327 OFFCURVE",
"355 373 OFFCURVE",
"283 373 CURVE SMOOTH"
);
},
{
closed = 1;
nodes = (
"452 0 LINE",
"546 -50 LINE",
"546 65 LINE",
"452 115 LINE"
);
}
);
width = 620;
}
);
unicode = 11A50;
script = soyombo;
category = Letter;
subCategory = Other;
},
{
glyphname = "ka-soyo";
production = uni11A5C;
lastChange = "2019-11-06 20:14:56 +0000";
layers = (
{
anchors = (
{
name = bottom;
position = "{502, 0}";
},
{
name = top;
position = "{310, 714}";
}
);
layerId = "BAFE8A66-C264-402A-9333-50E528A5D43A";
paths = (
{
closed = 1;
nodes = (
"502 487 LINE",
"596 487 LINE",
"596 634 LINE",
"502 574 LINE"
);
},
{
closed = 1;
nodes = (
"510 714 LINE",
"110 714 LINE",
"110 708 LINE",
"310 589 LINE",
"510 708 LINE"
);
},
{
closed = 1;
nodes = (
"502 141 LINE",
"596 91 LINE",
"596 599 LINE",
"502 549 LINE"
);
},
{
closed = 1;
nodes = (
"263 191 LINE",
"357 141 LINE",
"357 639 LINE",
"263 639 LINE"
);
},
{
closed = 1;
nodes = (
"331 328 LINE",
"535 328 LINE",
"535 378 LINE",
"331 378 LINE"
);
},
{
closed = 1;
nodes = (
"49 558 OFFCURVE",
"24 519 OFFCURVE",
"24 441 CURVE SMOOTH",
"24 309 OFFCURVE",
"114 242 OFFCURVE",
"273 242 CURVE SMOOTH",
"317 242 LINE",
"317 292 LINE",
"273 292 LINE SMOOTH",
"170 292 OFFCURVE",
"118 342 OFFCURVE",
"118 435 CURVE SMOOTH",
"118 478 OFFCURVE",
"127 515 OFFCURVE",
"148 546 CURVE",
"134 554 OFFCURVE",
"119 558 OFFCURVE",
"103 558 CURVE SMOOTH"
);
},
{
closed = 1;
nodes = (
"502 0 LINE",
"596 -50 LINE",
"596 141 LINE",
"502 191 LINE"
);
}
);
width = 670;
}
);
leftMetricsKey = "=+50";
unicode = 11A5C;
script = soyombo;
category = Letter;
subCategory = Other;
},
{
glyphname = "kha-soyo";
production = uni11A5D;
lastChange = "2019-11-06 20:13:54 +0000";
layers = (
{
anchors = (
{
name = bottom;
position = "{502, 0}";
},
{
name = top;
position = "{310, 714}";
}
);
layerId = "BAFE8A66-C264-402A-9333-50E528A5D43A";
paths = (
{
closed = 1;
nodes = (
"502 487 LINE",
"596 487 LINE",
"596 634 LINE",
"502 574 LINE"
);
},
{
closed = 1;
nodes = (
"510 714 LINE",
"110 714 LINE",
"110 708 LINE",
"310 589 LINE",
"510 708 LINE"
);
},
{
closed = 1;
nodes = (
"502 141 LINE",
"596 91 LINE",
"596 599 LINE",
"502 549 LINE"
);
},
{
closed = 1;
nodes = (
"263 191 LINE",
"357 141 LINE",
"357 639 LINE",
"263 639 LINE"
);
},
{
closed = 1;
nodes = (
"331 341 LINE",
"535 341 LINE",
"535 391 LINE",
"331 391 LINE"
);
},
{
closed = 1;
nodes = (
"119 242 OFFCURVE",
"134 246 OFFCURVE",
"148 254 CURVE",
"127 285 OFFCURVE",
"118 322 OFFCURVE",
"118 365 CURVE SMOOTH",
"118 458 OFFCURVE",
"170 508 OFFCURVE",
"273 508 CURVE SMOOTH",
"317 508 LINE",
"317 558 LINE",
"273 558 LINE SMOOTH",
"114 558 OFFCURVE",
"24 491 OFFCURVE",
"24 359 CURVE SMOOTH",
"24 281 OFFCURVE",
"49 242 OFFCURVE",
"103 242 CURVE SMOOTH"
);
},
{
closed = 1;
nodes = (
"502 0 LINE",
"596 -50 LINE",
"596 141 LINE",
"502 191 LINE"
);
}
);
width = 670;
}
);
leftMetricsKey = "=+50";
unicode = 11A5D;
script = soyombo;
category = Letter;
subCategory = Other;
},
{
glyphname = "ga-soyo";
production = uni11A5E;
lastChange = "2019-11-06 20:13:54 +0000";
layers = (
{
anchors = (
{
name = bottom;
position = "{492, 0}";
},
{
name = top;
position = "{300, 714}";
}
);
layerId = "BAFE8A66-C264-402A-9333-50E528A5D43A";
paths = (
{
closed = 1;
nodes = (
"492 487 LINE",
"586 487 LINE",
"586 634 LINE",
"492 574 LINE"
);
},
{
closed = 1;
nodes = (
"500 714 LINE",
"100 714 LINE",
"100 708 LINE",
"300 589 LINE",
"500 708 LINE"
);
},
{
closed = 1;
nodes = (
"492 131 LINE",
"586 81 LINE",
"586 599 LINE",
"492 549 LINE"
);
},
{
closed = 1;
nodes = (
"253 181 LINE",
"347 131 LINE",
"347 639 LINE",
"253 639 LINE"
);
},
{
closed = 1;
nodes = (
"61 364 LINE",
"525 364 LINE",
"525 414 LINE",
"61 414 LINE"
);
},
{
closed = 1;
nodes = (
"47 516 OFFCURVE",
"14 470 OFFCURVE",
"14 389 CURVE SMOOTH",
"14 308 OFFCURVE",
"47 262 OFFCURVE",
"108 227 CURVE",
"108 551 LINE"
);
},
{
closed = 1;
nodes = (
"492 0 LINE",
"586 -50 LINE",
"586 131 LINE",
"492 181 LINE"
);
}
);
width = 660;
}
);
leftMetricsKey = "=+40";
unicode = 11A5E;
script = soyombo;
category = Letter;
subCategory = Other;
},
{
glyphname = "gha-soyo";
production = uni11A5F;
lastChange = "2019-11-06 20:13:54 +0000";
layers = (
{
anchors = (
{
name = bottom;
position = "{492, 0}";
},
{
name = top;
position = "{300, 714}";
}
);
layerId = "BAFE8A66-C264-402A-9333-50E528A5D43A";
paths = (
{
closed = 1;
nodes = (
"492 487 LINE",
"586 487 LINE",
"586 634 LINE",
"492 574 LINE"
);
},
{
closed = 1;
nodes = (
"500 714 LINE",
"100 714 LINE",
"100 708 LINE",
"300 589 LINE",
"500 708 LINE"
);
},
{
closed = 1;
nodes = (
"492 131 LINE",
"586 81 LINE",
"586 599 LINE",
"492 549 LINE"
);
},
{
closed = 1;
nodes = (
"253 181 LINE",
"347 131 LINE",
"347 639 LINE",
"253 639 LINE"
);
},
{
closed = 1;
nodes = (
"111 364 LINE",
"525 364 LINE",
"525 414 LINE",
"111 414 LINE"
);
},
{
closed = 1;
nodes = (
"14 519 LINE",
"61 494 OFFCURVE",
"84 461 OFFCURVE",
"84 389 CURVE SMOOTH",
"84 317 OFFCURVE",
"61 284 OFFCURVE",
"14 259 CURVE",
"24 227 LINE",
"110 253 OFFCURVE",
"158 299 OFFCURVE",
"158 389 CURVE SMOOTH",
"158 480 OFFCURVE",
"110 525 OFFCURVE",
"24 551 CURVE"
);
},
{
closed = 1;
nodes = (
"492 0 LINE",
"586 -50 LINE",
"586 131 LINE",
"492 181 LINE"
);
}
);
width = 660;
}
);
leftMetricsKey = "=+40";
unicode = 11A5F;
script = soyombo;
category = Letter;
subCategory = Other;
},
{
glyphname = "nga-soyo";
production = uni11A60;
lastChange = "2019-11-06 20:13:54 +0000";
layers = (
{
anchors = (
{
name = bottom;
position = "{502, 0}";
},
{
name = top;
position = "{310, 714}";
}
);
layerId = "BAFE8A66-C264-402A-9333-50E528A5D43A";
paths = (
{
closed = 1;
nodes = (
"502 487 LINE",
"596 487 LINE",
"596 634 LINE",
"502 574 LINE"
);
},
{
closed = 1;
nodes = (
"510 714 LINE",
"110 714 LINE",
"110 708 LINE",
"310 589 LINE",
"510 708 LINE"
);
},
{
closed = 1;
nodes = (
"502 131 LINE",
"596 81 LINE",
"596 599 LINE",
"502 549 LINE"
);
},
{
closed = 1;
nodes = (
"263 181 LINE",
"357 131 LINE",
"357 639 LINE",
"263 639 LINE"
);
},
{
closed = 1;
nodes = (
"71 364 LINE",
"535 364 LINE",
"535 414 LINE",
"71 414 LINE"
);
},
{
closed = 1;
nodes = (
"24 277 LINE",
"118 227 LINE",
"118 551 LINE",
"24 501 LINE"
);
},
{
closed = 1;
nodes = (
"502 0 LINE",
"596 -50 LINE",
"596 131 LINE",
"502 181 LINE"
);
}
);
width = 670;
}
);
leftMetricsKey = "=+50";
unicode = 11A60;
script = soyombo;
category = Letter;
subCategory = Other;
},
{
glyphname = "ca-soyo";
production = uni11A61;
lastChange = "2019-11-07 20:21:56 +0000";
layers = (
{
anchors = (
{
name = bottom;
position = "{402, 0.049}";
},
{
name = top;
position = "{210, 714}";
}
);
layerId = "BAFE8A66-C264-402A-9333-50E528A5D43A";
paths = (
{
closed = 1;
nodes = (
"402 487 LINE",
"496 487 LINE",
"496 714 LINE",
"402 714 LINE"
);
},
{
closed = 1;
nodes = (
"410 714 LINE",
"10 714 LINE",
"10 708 LINE",
"210 589 LINE",
"410 708 LINE"
);
},
{
closed = 1;
nodes = (
"402 159 LINE",
"496 109 LINE",
"496 549 LINE",
"402 549 LINE"
);
},
{
closed = 1;
nodes = (
"160 502 LINE",
"355 307 LINE",
"402 354 LINE",
"207 549 LINE"
);
},
{
closed = 1;
nodes = (
"402 354 LINE",
"355 401 LINE",
"160 206 LINE",
"207 159 LINE"
);
},
{
closed = 1;
nodes = (
"254 206 LINE",
"59 401 LINE",
"12 354 LINE",
"207 159 LINE"
);
},
{
closed = 1;
nodes = (
"402 0 LINE",
"496 -50 LINE",
"496 159 LINE",
"402 209 LINE"
);
}
);
width = 570;
}
);
leftMetricsKey = "=-50";
unicode = 11A61;
script = soyombo;
category = Letter;
subCategory = Other;
},
{
glyphname = "cha-soyo";
production = uni11A62;
lastChange = "2019-11-06 20:13:54 +0000";
layers = (
{
anchors = (
{
name = bottom;
position = "{452, -0.103}";
},
{
name = top;
position = "{260, 714}";
}
);
layerId = "BAFE8A66-C264-402A-9333-50E528A5D43A";
paths = (
{
closed = 1;
nodes = (
"452 487 LINE",
"546 487 LINE",
"546 714 LINE",
"452 714 LINE"
);
},
{
closed = 1;
nodes = (
"460 714 LINE",
"60 714 LINE",
"60 708 LINE",
"260 589 LINE",
"460 708 LINE"
);
},
{
closed = 1;
nodes = (
"452 199 LINE",
"546 149 LINE",
"546 549 LINE",
"452 549 LINE"
);
},
{
closed = 1;
nodes = (
"230 502 LINE",
"405 327 LINE",
"452 374 LINE",
"277 549 LINE"
);
},
{
closed = 1;
nodes = (
"452 374 LINE",
"405 421 LINE",
"230 246 LINE",
"277 199 LINE"
);
},
{
closed = 1;
nodes = (
"22 294 LINE",
"69 247 LINE",
"324 502 LINE",
"277 549 LINE"
);
},
{
closed = 1;
nodes = (
"324 246 LINE",
"69 501 LINE",
"22 454 LINE",
"277 199 LINE"
);
},
{
closed = 1;
nodes = (
"452 0 LINE",
"546 -50 LINE",
"546 199 LINE",
"452 249 LINE"
);
}
);
width = 620;
}
);
unicode = 11A62;
script = soyombo;
category = Letter;
subCategory = Other;
},
{
glyphname = "ja-soyo";
production = uni11A63;
lastChange = "2019-11-06 20:13:54 +0000";
layers = (
{
anchors = (
{
name = bottom;
position = "{402, 0.055}";
},
{
name = top;
position = "{210, 714}";
}
);
layerId = "BAFE8A66-C264-402A-9333-50E528A5D43A";
paths = (
{
closed = 1;
nodes = (
"402 487 LINE",
"496 487 LINE",
"496 714 LINE",
"402 714 LINE"
);
},
{
closed = 1;
nodes = (
"410 714 LINE",
"10 714 LINE",
"10 708 LINE",
"210 589 LINE",
"410 708 LINE"
);
},
{
closed = 1;
nodes = (
"402 159 LINE",
"496 109 LINE",
"496 549 LINE",
"402 549 LINE"
);
},
{
closed = 1;
nodes = (
"402 354 LINE",
"350 406 LINE",
"155 211 LINE",
"207 159 LINE"
);
},
{
closed = 1;
nodes = (
"155 497 LINE",
"350 302 LINE",
"402 354 LINE",
"207 549 LINE"
);
},
{
closed = 1;
nodes = (
"12 354 LINE",
"64 302 LINE",
"259 497 LINE",
"207 549 LINE"
);
},
{
closed = 1;
nodes = (
"402 0 LINE",
"496 -50 LINE",
"496 159 LINE",
"402 209 LINE"
);
}
);
width = 570;
}
);
leftMetricsKey = "=-50";
unicode = 11A63;
script = soyombo;
category = Letter;
subCategory = Other;
},
{
glyphname = "jha-soyo";
production = uni11A64;
lastChange = "2019-11-06 20:13:54 +0000";
layers = (
{
anchors = (
{
name = bottom;
position = "{422, 0.055}";
},
{
name = top;
position = "{230, 714}";
}
);
layerId = "BAFE8A66-C264-402A-9333-50E528A5D43A";
paths = (
{
closed = 1;
nodes = (
"422 487 LINE",
"516 487 LINE",
"516 714 LINE",
"422 714 LINE"
);
},
{
closed = 1;
nodes = (
"430 714 LINE",
"30 714 LINE",
"30 708 LINE",
"230 589 LINE",
"430 708 LINE"
);
},
{
closed = 1;
nodes = (
"422 159 LINE",
"516 109 LINE",
"516 549 LINE",
"422 549 LINE"
);
},
{
closed = 1;
nodes = (
"422 354 LINE",
"370 406 LINE",
"175 211 LINE",
"227 159 LINE"
);
},
{
closed = 1;
nodes = (
"175 497 LINE",
"370 302 LINE",
"422 354 LINE",
"227 549 LINE"
);
},
{
closed = 1;
nodes = (
"32 354 LINE",
"84 302 LINE",
"279 497 LINE",
"227 549 LINE"
);
},
{
closed = 1;
nodes = (
"32 354 LINE",
"98 354 LINE",
"98 514 LINE",
"32 549 LINE"
);
},
{
closed = 1;
nodes = (
"422 0 LINE",
"516 -50 LINE",
"516 159 LINE",
"422 209 LINE"
);
}
);
width = 590;
}
);
leftMetricsKey = "=-30";
unicode = 11A64;
script = soyombo;
category = Letter;
subCategory = Other;
},
{
glyphname = "nya-soyo";
production = uni11A65;
lastChange = "2019-11-06 20:13:54 +0000";
layers = (
{
anchors = (
{
name = bottom;
position = "{402, 0.055}";
},
{
name = top;
position = "{210, 714}";
}
);
layerId = "BAFE8A66-C264-402A-9333-50E528A5D43A";
paths = (
{
closed = 1;
nodes = (
"402 487 LINE",
"496 487 LINE",
"496 714 LINE",
"402 714 LINE"
);
},
{
closed = 1;
nodes = (
"410 714 LINE",
"10 714 LINE",
"10 708 LINE",
"210 589 LINE",
"410 708 LINE"
);
},
{
closed = 1;
nodes = (
"402 159 LINE",
"496 109 LINE",
"496 549 LINE",
"402 549 LINE"
);
},
{
closed = 1;
nodes = (
"402 354 LINE",
"357 399 LINE",
"162 204 LINE",
"207 159 LINE"
);
},
{
closed = 1;
nodes = (
"162 504 LINE",
"357 309 LINE",
"402 354 LINE",
"207 549 LINE"
);
},
{
closed = 1;
nodes = (
"87 429 LINE",
"131 384 LINE",
"252 504 LINE",
"207 549 LINE"
);
},
{
closed = 1;
nodes = (
"252 204 LINE",
"57 399 LINE",
"12 354 LINE",
"207 159 LINE"
);
},
{
closed = 1;
nodes = (
"252 353 LINE",
"131 473 LINE",
"87 429 LINE",
"207 308 LINE"
);
},
{
closed = 1;
nodes = (
"402 0 LINE",
"496 -50 LINE",
"496 159 LINE",
"402 209 LINE"
);
}
);
width = 570;
}
);
leftMetricsKey = "=-50";
unicode = 11A65;
script = soyombo;
category = Letter;
subCategory = Other;
},
{
glyphname = "tta-soyo";
production = uni11A66;
lastChange = "2019-11-06 20:13:54 +0000";
layers = (
{
anchors = (
{
name = bottom;
position = "{402, 0}";
},
{
name = top;
position = "{210, 714}";
}
);
layerId = "BAFE8A66-C264-402A-9333-50E528A5D43A";
paths = (
{
closed = 1;
nodes = (
"402 487 LINE",
"496 487 LINE",
"496 714 LINE",
"402 714 LINE"
);
},
{
closed = 1;
nodes = (
"410 714 LINE",
"10 714 LINE",
"10 708 LINE",
"210 589 LINE",
"410 708 LINE"
);
},
{
closed = 1;
nodes = (
"402 61 LINE",
"496 11 LINE",
"496 549 LINE",
"402 549 LINE"
);
},
{
closed = 1;
nodes = (
"163 111 LINE",
"257 61 LINE",
"257 649 LINE",
"163 649 LINE"
);
},
{
closed = 1;
nodes = (
"163 384 LINE",
"163 504 LINE",
"51 444 LINE"
);
},
{
closed = 1;
nodes = (
"163 264 LINE",
"163 384 LINE",
"51 324 LINE"
);
},
{
closed = 1;
nodes = (
"402 0 LINE",
"496 -50 LINE",
"496 61 LINE",
"402 111 LINE"
);
}
);
width = 570;
}
);
leftMetricsKey = "=-50";
unicode = 11A66;
script = soyombo;
category = Letter;
subCategory = Other;
},
{
glyphname = "ttha-soyo";
production = uni11A67;
lastChange = "2019-11-06 20:13:54 +0000";
layers = (
{
anchors = (
{
name = bottom;
position = "{402, 0}";
},
{
name = top;
position = "{210, 714}";
}
);
layerId = "BAFE8A66-C264-402A-9333-50E528A5D43A";
paths = (
{
closed = 1;
nodes = (
"402 487 LINE",
"496 487 LINE",
"496 714 LINE",
"402 714 LINE"
);
},
{
closed = 1;
nodes = (
"410 714 LINE",
"10 714 LINE",
"10 708 LINE",
"210 589 LINE",
"410 708 LINE"
);
},
{
closed = 1;
nodes = (
"402 61 LINE",
"496 11 LINE",
"496 549 LINE",
"402 549 LINE"
);
},
{
closed = 1;
nodes = (
"163 111 LINE",
"257 61 LINE",
"257 649 LINE",
"163 649 LINE"
);
},
{
closed = 1;
nodes = (
"163 384 LINE",
"163 504 LINE",
"51 444 LINE"
);
},
{
closed = 1;
nodes = (
"163 264 LINE",
"163 384 LINE",
"51 324 LINE"
);
},
{
closed = 1;
nodes = (
"257 444 LINE",
"257 324 LINE",
"369 384 LINE"
);
},
{
closed = 1;
nodes = (
"402 0 LINE",
"496 -50 LINE",
"496 61 LINE",
"402 111 LINE"
);
}
);
width = 570;
}
);
leftMetricsKey = "=-50";
unicode = 11A67;
script = soyombo;
category = Letter;
subCategory = Other;
},
{
glyphname = "dda-soyo";
production = uni11A68;
lastChange = "2019-11-06 20:13:54 +0000";
layers = (
{
anchors = (
{
name = bottom;
position = "{402, -0.358}";
},
{
name = top;
position = "{210, 714}";
}
);
layerId = "BAFE8A66-C264-402A-9333-50E528A5D43A";
paths = (
{
closed = 1;
nodes = (
"402 487 LINE",
"496 487 LINE",
"496 714 LINE",
"402 714 LINE"
);
},
{
closed = 1;
nodes = (
"410 714 LINE",
"10 714 LINE",
"10 708 LINE",
"210 589 LINE",
"410 708 LINE"
);
},
{
closed = 1;
nodes = (
"402 61 LINE",
"496 11 LINE",
"496 549 LINE",
"402 549 LINE"
);
},
{
closed = 1;
nodes = (
"163 111 LINE",
"257 61 LINE",
"257 649 LINE",
"163 649 LINE"
);
},
{
closed = 1;
nodes = (
"163 324 LINE",
"163 444 LINE",
"51 384 LINE"
);
},
{
closed = 1;
nodes = (
"421 359 LINE",
"435 359 LINE",
"435 409 LINE",
"421 409 LINE"
);
},
{
closed = 1;
nodes = (
"402 0 LINE",
"496 -50 LINE",
"496 61 LINE",
"402 111 LINE"
);
}
);
width = 570;
}
);
leftMetricsKey = "=-50";
unicode = 11A68;
script = soyombo;
category = Letter;
subCategory = Other;
},
{
glyphname = "ddha-soyo";
production = uni11A69;
lastChange = "2019-11-06 20:13:54 +0000";
layers = (
{
anchors = (
{
name = bottom;
position = "{502, -0.153}";
},
{
name = top;
position = "{310, 714}";
}
);
layerId = "BAFE8A66-C264-402A-9333-50E528A5D43A";
paths = (
{
closed = 1;
nodes = (
"502 487 LINE",
"596 487 LINE",
"596 714 LINE",
"502 714 LINE"
);
},
{
closed = 1;
nodes = (
"510 714 LINE",
"110 714 LINE",
"110 708 LINE",
"310 589 LINE",
"510 708 LINE"
);
},
{
closed = 1;
nodes = (
"502 291 LINE",
"596 241 LINE",
"596 599 LINE",
"502 549 LINE"
);
},
{
closed = 1;
nodes = (
"263 341 LINE",
"357 291 LINE",
"357 649 LINE",
"263 649 LINE"
);
},
{
closed = 1;
nodes = (
"531 434 LINE",
"535 434 LINE",
"535 484 LINE",
"531 484 LINE"
);
},
{
closed = 1;
nodes = (
"46 614 OFFCURVE",
"24 587 OFFCURVE",
"24 530 CURVE SMOOTH",
"24 428 OFFCURVE",
"105 376 OFFCURVE",
"259 376 CURVE SMOOTH",
"307 376 LINE",
"307 426 LINE",
"259 426 LINE SMOOTH",
"161 426 OFFCURVE",
"118 461 OFFCURVE",
"118 526 CURVE SMOOTH",
"118 556 OFFCURVE",
"125 582 OFFCURVE",
"140 604 CURVE",
"126 611 OFFCURVE",
"111 614 OFFCURVE",
"95 614 CURVE SMOOTH"
);
},
{
closed = 1;
nodes = (
"502 13 LINE",
"596 -37 LINE",
"596 291 LINE",
"502 291 LINE"
);
},
{
closed = 1;
nodes = (
"263 63 LINE",
"357 13 LINE",
"357 351 LINE",
"263 351 LINE"
);
},
{
closed = 1;
nodes = (
"263 164 LINE",
"263 284 LINE",
"151 224 LINE"
);
},
{
closed = 1;
nodes = (
"521 199 LINE",
"535 199 LINE",
"535 249 LINE",
"521 249 LINE"
);
},
{
closed = 1;
nodes = (
"502 0 LINE",
"596 -50 LINE",
"596 13 LINE",
"502 63 LINE"
);
}
);
width = 670;
}
);
leftMetricsKey = "=+50";
unicode = 11A69;
script = soyombo;
category = Letter;
subCategory = Other;
},
{
glyphname = "nna-soyo";
production = uni11A6A;
lastChange = "2019-11-06 20:13:54 +0000";
layers = (
{
anchors = (
{
name = bottom;
position = "{402, 0.328}";
},
{
name = top;
position = "{210, 714}";
}
);
layerId = "BAFE8A66-C264-402A-9333-50E528A5D43A";
paths = (
{
closed = 1;
nodes = (
"402 487 LINE",
"496 487 LINE",
"496 714 LINE",
"402 714 LINE"
);
},
{
closed = 1;
nodes = (
"410 714 LINE",
"10 714 LINE",
"10 708 LINE",
"210 589 LINE",
"410 708 LINE"
);
},
{
closed = 1;
nodes = (
"402 61 LINE",
"496 11 LINE",
"496 549 LINE",
"402 549 LINE"
);
},
{
closed = 1;
nodes = (
"163 111 LINE",
"257 61 LINE",
"257 649 LINE",
"163 649 LINE"
);
},
{
closed = 1;
nodes = (
"163 324 LINE",
"163 444 LINE",
"51 384 LINE"
);
},
{
closed = 1;
nodes = (
"211 359 LINE",
"435 359 LINE",
"435 409 LINE",
"211 409 LINE"
);
},
{
closed = 1;
nodes = (
"402 0 LINE",
"496 -50 LINE",
"496 61 LINE",
"402 111 LINE"
);
}
);
width = 570;
}
);
leftMetricsKey = "=-50";
unicode = 11A6A;
script = soyombo;
category = Letter;
subCategory = Other;
},
{
glyphname = "ta-soyo";
production = uni11A6B;
lastChange = "2019-11-06 20:13:54 +0000";
layers = (
{
anchors = (
{
name = bottom;
position = "{452, -0.172}";
},
{
name = top;
position = "{260, 714}";
}
);
layerId = "BAFE8A66-C264-402A-9333-50E528A5D43A";
paths = (
{
closed = 1;
nodes = (
"452 487 LINE",
"546 487 LINE",
"546 714 LINE",
"452 714 LINE"
);
},
{
closed = 1;
nodes = (
"460 714 LINE",
"60 714 LINE",
"60 708 LINE",
"260 589 LINE",
"460 708 LINE"
);
},
{
closed = 1;
nodes = (
"452 234 LINE",
"546 184 LINE",
"546 549 LINE",
"452 549 LINE"
);
},
{
closed = 1;
nodes = (
"221 234 OFFCURVE",
"270 264 OFFCURVE",
"302 325 CURVE",
"267 346 LINE",
"242 313 OFFCURVE",
"209 298 OFFCURVE",
"171 298 CURVE SMOOTH",
"117 298 OFFCURVE",
"88 329 OFFCURVE",
"88 376 CURVE SMOOTH",
"88 428 OFFCURVE",
"128 459 OFFCURVE",
"204 459 CURVE SMOOTH",
"301 459 OFFCURVE",
"397 412 OFFCURVE",
"493 311 CURVE",
"508 371 LINE",
"398 481 OFFCURVE",
"295 519 OFFCURVE",
"197 519 CURVE SMOOTH",
"82 519 OFFCURVE",
"14 468 OFFCURVE",
"14 372 CURVE SMOOTH",
"14 285 OFFCURVE",
"74 234 OFFCURVE",
"156 234 CURVE SMOOTH"
);
},
{
closed = 1;
nodes = (
"452 0 LINE",
"546 -50 LINE",
"546 234 LINE",
"452 284 LINE"
);
}
);
width = 620;
}
);
unicode = 11A6B;
script = soyombo;
category = Letter;
subCategory = Other;
},
{
glyphname = "tha-soyo";
production = uni11A6C;
lastChange = "2019-11-06 20:13:54 +0000";
layers = (
{
anchors = (
{
name = bottom;
position = "{402, -0.041}";
},
{
name = top;
position = "{210, 714}";
}
);
layerId = "BAFE8A66-C264-402A-9333-50E528A5D43A";
paths = (
{
closed = 1;
nodes = (
"402 487 LINE",
"496 487 LINE",
"496 714 LINE",
"402 714 LINE"
);
},
{
closed = 1;
nodes = (
"410 714 LINE",
"10 714 LINE",
"10 708 LINE",
"210 589 LINE",
"410 708 LINE"
);
},
{
closed = 1;
nodes = (
"285 289 OFFCURVE",
"339 342 OFFCURVE",
"339 419 CURVE SMOOTH",
"339 496 OFFCURVE",
"285 549 OFFCURVE",
"207 549 CURVE SMOOTH",
"129 549 OFFCURVE",
"75 496 OFFCURVE",
"75 419 CURVE SMOOTH",
"75 342 OFFCURVE",
"129 289 OFFCURVE",
"207 289 CURVE SMOOTH"
);
},
{
closed = 1;
nodes = (
"167 354 OFFCURVE",
"140 380 OFFCURVE",
"140 419 CURVE SMOOTH",
"140 458 OFFCURVE",
"167 484 OFFCURVE",
"207 484 CURVE SMOOTH",
"247 484 OFFCURVE",
"274 458 OFFCURVE",
"274 419 CURVE SMOOTH",
"274 380 OFFCURVE",
"247 354 OFFCURVE",
"207 354 CURVE SMOOTH"
);
},
{
closed = 1;
nodes = (
"496 549 LINE",
"402 549 LINE",
"402 289 LINE",
"496 239 LINE"
);
},
{
closed = 1;
nodes = (
"496 289 LINE",
"402 289 LINE",
"402 131 LINE",
"496 81 LINE"
);
},
{
closed = 1;
nodes = (
"176 176 LINE",
"244 176 LINE",
"244 305 LINE",
"176 305 LINE"
);
},
{
closed = 1;
nodes = (
"48 131 LINE",
"366 131 LINE",
"366 199 LINE",
"48 199 LINE"
);
},
{
closed = 1;
nodes = (
"402 0 LINE",
"496 -50 LINE",
"496 131 LINE",
"402 181 LINE"
);
}
);
width = 570;
}
);
leftMetricsKey = "=-50";
unicode = 11A6C;
script = soyombo;
category = Letter;
subCategory = Other;
},
{
glyphname = "da-soyo";
production = uni11A6D;
lastChange = "2019-11-06 20:13:54 +0000";
layers = (
{
anchors = (
{
name = bottom;
position = "{432, 0.198}";
},
{
name = top;
position = "{240, 714}";
}
);
layerId = "BAFE8A66-C264-402A-9333-50E528A5D43A";
paths = (
{
closed = 1;
nodes = (
"432 487 LINE",
"526 487 LINE",
"526 714 LINE",
"432 714 LINE"
);
},
{
closed = 1;
nodes = (
"440 714 LINE",
"40 714 LINE",
"40 708 LINE",
"240 589 LINE",
"440 708 LINE"
);
},
{
closed = 1;
nodes = (
"432 61 LINE",
"526 11 LINE",
"526 549 LINE",
"432 549 LINE"
);
},
{
closed = 1;
nodes = (
"193 266 LINE",
"193 111 LINE",
"287 61 LINE",
"287 266 LINE"
);
},
{
closed = 1;
nodes = (
"155 283 OFFCURVE",
"101 308 OFFCURVE",
"101 384 CURVE SMOOTH",
"101 460 OFFCURVE",
"152 485 OFFCURVE",
"287 485 CURVE",
"287 549 LINE",
"111 549 OFFCURVE",
"27 502 OFFCURVE",
"27 384 CURVE SMOOTH",
"27 267 OFFCURVE",
"108 219 OFFCURVE",
"287 219 CURVE",
"287 283 LINE"
);
},
{
closed = 1;
nodes = (
"287 506 LINE",
"287 639 LINE",
"193 639 LINE",
"193 506 LINE"
);
},
{
closed = 1;
nodes = (
"432 0 LINE",
"526 -50 LINE",
"526 61 LINE",
"432 111 LINE"
);
}
);
width = 600;
}
);
leftMetricsKey = "=-20";
unicode = 11A6D;
script = soyombo;
category = Letter;
subCategory = Other;
},
{
glyphname = "dha-soyo";
production = uni11A6E;
lastChange = "2019-11-06 20:13:54 +0000";
layers = (
{
anchors = (
{
name = bottom;
position = "{492, 0}";
},
{
name = top;
position = "{300, 714}";
}
);
layerId = "BAFE8A66-C264-402A-9333-50E528A5D43A";
paths = (
{
closed = 1;
nodes = (
"492 487 LINE",
"586 487 LINE",
"586 714 LINE",
"492 714 LINE"
);
},
{
closed = 1;
nodes = (
"500 714 LINE",
"100 714 LINE",
"100 708 LINE",
"300 589 LINE",
"500 708 LINE"
);
},
{
closed = 1;
nodes = (
"492 241 LINE",
"586 191 LINE",
"586 599 LINE",
"492 549 LINE"
);
},
{
closed = 1;
nodes = (
"253 291 LINE",
"347 241 LINE",
"347 639 LINE",
"253 639 LINE"
);
},
{
closed = 1;
nodes = (
"519 384 LINE",
"525 384 LINE",
"525 434 LINE",
"519 434 LINE"
);
},
{
closed = 1;
nodes = (
"36 564 OFFCURVE",
"14 537 OFFCURVE",
"14 480 CURVE SMOOTH",
"14 378 OFFCURVE",
"95 326 OFFCURVE",
"249 326 CURVE SMOOTH",
"297 326 LINE",
"297 376 LINE",
"249 376 LINE SMOOTH",
"151 376 OFFCURVE",
"108 411 OFFCURVE",
"108 476 CURVE SMOOTH",
"108 506 OFFCURVE",
"115 532 OFFCURVE",
"130 554 CURVE",
"116 561 OFFCURVE",
"101 564 OFFCURVE",
"85 564 CURVE SMOOTH"
);
},
{
closed = 1;
nodes = (
"492 35 LINE",
"586 -15 LINE",
"586 241 LINE",
"492 241 LINE"
);
},
{
closed = 1;
nodes = (
"286 50 OFFCURVE",
"324 59 OFFCURVE",
"358 76 CURVE",
"338 125 LINE",
"315 118 OFFCURVE",
"287 114 OFFCURVE",
"264 114 CURVE SMOOTH",
"220 114 OFFCURVE",
"198 130 OFFCURVE",
"198 156 CURVE SMOOTH",
"198 192 OFFCURVE",
"237 214 OFFCURVE",
"347 241 CURVE",
"347 333 LINE",
"253 333 LINE",
"253 272 LINE",
"176 251 OFFCURVE",
"124 215 OFFCURVE",
"124 150 CURVE SMOOTH",
"124 87 OFFCURVE",
"174 50 OFFCURVE",
"250 50 CURVE SMOOTH"
);
},
{
closed = 1;
nodes = (
"492 0 LINE",
"586 -50 LINE",
"586 35 LINE",
"492 85 LINE"
);
}
);
width = 660;
}
);
leftMetricsKey = "=+40";
unicode = 11A6E;
script = soyombo;
category = Letter;
subCategory = Other;
},
{
glyphname = "na-soyo";
production = uni11A6F;
lastChange = "2019-11-06 20:13:54 +0000";
layers = (
{
anchors = (
{
name = bottom;
position = "{432, 0.11}";
},
{
name = top;
position = "{240, 714}";
}
);
layerId = "BAFE8A66-C264-402A-9333-50E528A5D43A";
paths = (
{
closed = 1;
nodes = (
"432 487 LINE",
"526 487 LINE",
"526 714 LINE",
"432 714 LINE"
);
},
{
closed = 1;
nodes = (
"440 714 LINE",
"40 714 LINE",
"40 708 LINE",
"240 589 LINE",
"440 708 LINE"
);
},
{
closed = 1;
nodes = (
"432 29 LINE",
"526 -21 LINE",
"526 549 LINE",
"432 549 LINE"
);
},
{
closed = 1;
nodes = (
"281 299 LINE",
"465 299 LINE",
"465 349 LINE",
"281 349 LINE"
);
},
{
closed = 1;
nodes = (
"234 79 LINE",
"328 29 LINE",
"328 549 LINE",
"234 499 LINE"
);
},
{
closed = 1;
nodes = (
"234 213 LINE SMOOTH",
"118 213 OFFCURVE",
"84 249 OFFCURVE",
"84 324 CURVE SMOOTH",
"84 399 OFFCURVE",
"118 435 OFFCURVE",
"234 435 CURVE SMOOTH",
"280 435 LINE",
"280 499 LINE",
"234 499 LINE SMOOTH",
"78 499 OFFCURVE",
"20 434 OFFCURVE",
"20 324 CURVE SMOOTH",
"20 214 OFFCURVE",
"78 149 OFFCURVE",
"234 149 CURVE SMOOTH",
"280 149 LINE",
"280 213 LINE"
);
},
{
closed = 1;
nodes = (
"432 0 LINE",
"526 -50 LINE",
"526 29 LINE",
"432 79 LINE"
);
}
);
width = 600;
}
);
leftMetricsKey = "=-20";
unicode = 11A6F;
script = soyombo;
category = Letter;
subCategory = Other;
},
{
glyphname = "pa-soyo";
production = uni11A70;
lastChange = "2019-11-06 20:13:54 +0000";
layers = (
{
anchors = (
{
name = bottom;
position = "{452, -0.167}";
},
{
name = top;
position = "{260, 714}";
}
);
layerId = "BAFE8A66-C264-402A-9333-50E528A5D43A";
paths = (
{
closed = 1;
nodes = (
"452 487 LINE",
"546 487 LINE",
"546 714 LINE",
"452 714 LINE"
);
},
{
closed = 1;
nodes = (
"460 714 LINE",
"60 714 LINE",
"60 708 LINE",
"260 589 LINE",
"460 708 LINE"
);
},
{
closed = 1;
nodes = (
"452 229 LINE",
"546 179 LINE",
"546 549 LINE",
"452 549 LINE"
);
},
{
closed = 1;
nodes = (
"74 514 OFFCURVE",
"14 463 OFFCURVE",
"14 376 CURVE SMOOTH",
"14 280 OFFCURVE",
"83 229 OFFCURVE",
"192 229 CURVE SMOOTH",
"292 229 OFFCURVE",
"394 275 OFFCURVE",
"501 409 CURVE",
"453 427 LINE",
"370 333 OFFCURVE",
"287 289 OFFCURVE",
"199 289 CURVE SMOOTH",
"128 289 OFFCURVE",
"88 321 OFFCURVE",
"88 373 CURVE SMOOTH",
"88 419 OFFCURVE",
"117 450 OFFCURVE",
"171 450 CURVE SMOOTH",
"209 450 OFFCURVE",
"242 435 OFFCURVE",
"267 402 CURVE",
"302 423 LINE",
"270 485 OFFCURVE",
"221 514 OFFCURVE",
"156 514 CURVE SMOOTH"
);
},
{
closed = 1;
nodes = (
"452 0 LINE",
"546 -50 LINE",
"546 229 LINE",
"452 279 LINE"
);
}
);
width = 620;
}
);
unicode = 11A70;
script = soyombo;
category = Letter;
subCategory = Other;
},
{
glyphname = "pha-soyo";
production = uni11A71;
lastChange = "2019-11-06 20:13:54 +0000";
layers = (
{
anchors = (
{
name = bottom;
position = "{462, -0.035}";
},
{
name = top;
position = "{270, 714}";
}
);
layerId = "BAFE8A66-C264-402A-9333-50E528A5D43A";
paths = (
{
closed = 1;
nodes = (
"462 487 LINE",
"556 487 LINE",
"556 714 LINE",
"462 714 LINE"
);
},
{
closed = 1;
nodes = (
"470 714 LINE",
"70 714 LINE",
"70 708 LINE",
"270 589 LINE",
"470 708 LINE"
);
},
{
closed = 1;
nodes = (
"462 402 LINE",
"556 352 LINE",
"556 549 LINE",
"462 549 LINE"
);
},
{
closed = 1;
nodes = (
"77 609 OFFCURVE",
"44 581 OFFCURVE",
"44 535 CURVE SMOOTH",
"44 468 OFFCURVE",
"111 433 OFFCURVE",
"206 433 CURVE SMOOTH",
"297 433 OFFCURVE",
"367 462 OFFCURVE",
"438 535 CURVE",
"409 572 LINE",
"355 528 OFFCURVE",
"300 504 OFFCURVE",
"235 504 CURVE SMOOTH",
"183 504 OFFCURVE",
"158 524 OFFCURVE",
"158 553 CURVE SMOOTH",
"158 567 OFFCURVE",
"163 582 OFFCURVE",
"173 591 CURVE",
"163 602 OFFCURVE",
"144 609 OFFCURVE",
"120 609 CURVE SMOOTH"
);
},
{
closed = 1;
nodes = (
"462 118 LINE",
"556 68 LINE",
"556 402 LINE",
"462 402 LINE"
);
},
{
closed = 1;
nodes = (
"81 373 OFFCURVE",
"24 328 OFFCURVE",
"24 249 CURVE SMOOTH",
"24 163 OFFCURVE",
"88 118 OFFCURVE",
"195 118 CURVE SMOOTH",
"297 118 OFFCURVE",
"399 161 OFFCURVE",
"507 286 CURVE",
"463 309 LINE",
"378 220 OFFCURVE",
"294 178 OFFCURVE",
"202 178 CURVE SMOOTH",
"134 178 OFFCURVE",
"98 204 OFFCURVE",
"98 247 CURVE SMOOTH",
"98 284 OFFCURVE",
"124 309 OFFCURVE",
"175 309 CURVE SMOOTH",
"211 309 OFFCURVE",
"245 296 OFFCURVE",
"271 266 CURVE",
"306 287 LINE",
"272 345 OFFCURVE",
"223 373 OFFCURVE",
"159 373 CURVE SMOOTH"
);
},
{
closed = 1;
nodes = (
"462 0 LINE",
"556 -50 LINE",
"556 118 LINE",
"462 168 LINE"
);
}
);
width = 630;
}
);
leftMetricsKey = "=+10";
unicode = 11A71;
script = soyombo;
category = Letter;
subCategory = Other;
},
{
glyphname = "ba-soyo";
production = uni11A72;
lastChange = "2019-11-06 20:13:54 +0000";
layers = (
{
anchors = (
{
name = bottom;
position = "{412, 0.148}";
},
{
name = top;
position = "{220, 714}";
}
);
layerId = "BAFE8A66-C264-402A-9333-50E528A5D43A";
paths = (
{
closed = 1;
nodes = (
"412 487 LINE",
"506 487 LINE",
"506 714 LINE",
"412 714 LINE"
);
},
{
closed = 1;
nodes = (
"420 714 LINE",
"20 714 LINE",
"20 708 LINE",
"220 589 LINE",
"420 708 LINE"
);
},
{
closed = 1;
nodes = (
"412 122 LINE",
"506 72 LINE",
"506 549 LINE",
"412 549 LINE"
);
},
{
closed = 1;
nodes = (
"368 332 OFFCURVE",
"330 377 OFFCURVE",
"267 405 CURVE",
"246 370 LINE",
"286 348 OFFCURVE",
"304 319 OFFCURVE",
"304 284 CURVE SMOOTH",
"304 228 OFFCURVE",
"265 196 OFFCURVE",
"197 196 CURVE SMOOTH",
"137 196 OFFCURVE",
"93 221 OFFCURVE",
"93 286 CURVE SMOOTH",
"93 347 OFFCURVE",
"133 412 OFFCURVE",
"244 514 CURVE",
"212 549 LINE",
"67 424 OFFCURVE",
"33 360 OFFCURVE",
"33 280 CURVE SMOOTH",
"33 178 OFFCURVE",
"95 122 OFFCURVE",
"203 122 CURVE SMOOTH",
"310 122 OFFCURVE",
"368 184 OFFCURVE",
"368 269 CURVE SMOOTH"
);
},
{
closed = 1;
nodes = (
"412 0 LINE",
"506 -50 LINE",
"506 122 LINE",
"412 172 LINE"
);
}
);
width = 580;
}
);
leftMetricsKey = "=-40";
unicode = 11A72;
script = soyombo;
category = Letter;
subCategory = Other;
},
{
glyphname = "bha-soyo";
production = uni11A73;
lastChange = "2019-11-06 20:13:54 +0000";
layers = (
{
anchors = (
{
name = bottom;
position = "{442, -0.005}";
},
{
name = top;
position = "{250, 714}";
}
);
layerId = "BAFE8A66-C264-402A-9333-50E528A5D43A";
paths = (
{
closed = 1;
nodes = (
"442 487 LINE",
"536 487 LINE",
"536 714 LINE",
"442 714 LINE"
);
},
{
closed = 1;
nodes = (
"450 714 LINE",
"50 714 LINE",
"50 708 LINE",
"250 589 LINE",
"450 708 LINE"
);
},
{
closed = 1;
nodes = (
"442 402 LINE",
"536 352 LINE",
"536 549 LINE",
"442 549 LINE"
);
},
{
closed = 1;
nodes = (
"57 609 OFFCURVE",
"24 581 OFFCURVE",
"24 535 CURVE SMOOTH",
"24 468 OFFCURVE",
"91 433 OFFCURVE",
"186 433 CURVE SMOOTH",
"277 433 OFFCURVE",
"347 462 OFFCURVE",
"418 535 CURVE",
"389 572 LINE",
"335 528 OFFCURVE",
"280 504 OFFCURVE",
"215 504 CURVE SMOOTH",
"163 504 OFFCURVE",
"138 524 OFFCURVE",
"138 553 CURVE SMOOTH",
"138 567 OFFCURVE",
"143 582 OFFCURVE",
"153 591 CURVE",
"143 602 OFFCURVE",
"124 609 OFFCURVE",
"100 609 CURVE SMOOTH"
);
},
{
closed = 1;
nodes = (
"442 75 LINE",
"536 25 LINE",
"536 402 LINE",
"442 402 LINE"
);
},
{
closed = 1;
nodes = (
"398 241 OFFCURVE",
"358 274 OFFCURVE",
"292 295 CURVE",
"276 258 LINE",
"316 243 OFFCURVE",
"334 225 OFFCURVE",
"334 203 CURVE SMOOTH",
"334 169 OFFCURVE",
"295 149 OFFCURVE",
"227 149 CURVE SMOOTH",
"167 149 OFFCURVE",
"123 166 OFFCURVE",
"123 210 CURVE SMOOTH",
"123 250 OFFCURVE",
"162 295 OFFCURVE",
"269 363 CURVE",
"246 402 LINE",
"100 316 OFFCURVE",
"63 268 OFFCURVE",
"63 203 CURVE SMOOTH",
"63 121 OFFCURVE",
"125 75 OFFCURVE",
"233 75 CURVE SMOOTH",
"340 75 OFFCURVE",
"398 123 OFFCURVE",
"398 188 CURVE SMOOTH"
);
},
{
closed = 1;
nodes = (
"442 0 LINE",
"536 -50 LINE",
"536 75 LINE",
"442 125 LINE"
);
}
);
width = 610;
}
);
leftMetricsKey = "=-10";
unicode = 11A73;
script = soyombo;
category = Letter;
subCategory = Other;
},
{
glyphname = "ma-soyo";
production = uni11A74;
lastChange = "2019-11-06 20:13:54 +0000";
layers = (
{
anchors = (
{
name = bottom;
position = "{442, 31.203}";
},
{
name = top;
position = "{250, 714}";
}
);
layerId = "BAFE8A66-C264-402A-9333-50E528A5D43A";
paths = (
{
closed = 1;
nodes = (
"442 487 LINE",
"536 487 LINE",
"536 714 LINE",
"442 714 LINE"
);
},
{
closed = 1;
nodes = (
"450 714 LINE",
"50 714 LINE",
"50 708 LINE",
"250 589 LINE",
"450 708 LINE"
);
},
{
closed = 1;
nodes = (
"442 372 LINE",
"536 322 LINE",
"536 549 LINE",
"442 549 LINE"
);
},
{
closed = 1;
nodes = (
"57 609 OFFCURVE",
"24 581 OFFCURVE",
"24 535 CURVE SMOOTH",
"24 468 OFFCURVE",
"91 433 OFFCURVE",
"186 433 CURVE SMOOTH",
"277 433 OFFCURVE",
"348 462 OFFCURVE",
"418 535 CURVE",
"389 572 LINE",
"335 528 OFFCURVE",
"280 504 OFFCURVE",
"215 504 CURVE SMOOTH",
"163 504 OFFCURVE",
"138 524 OFFCURVE",
"138 553 CURVE SMOOTH",
"138 567 OFFCURVE",
"143 582 OFFCURVE",
"153 591 CURVE",
"143 602 OFFCURVE",
"124 609 OFFCURVE",
"100 609 CURVE SMOOTH"
);
},
{
closed = 1;
nodes = (
"328 102 OFFCURVE",
"384 157 OFFCURVE",
"384 237 CURVE SMOOTH",
"384 317 OFFCURVE",
"328 372 OFFCURVE",
"247 372 CURVE SMOOTH",
"166 372 OFFCURVE",
"110 317 OFFCURVE",
"110 237 CURVE SMOOTH",
"110 157 OFFCURVE",
"166 102 OFFCURVE",
"247 102 CURVE SMOOTH"
);
},
{
closed = 1;
nodes = (
"204 168 OFFCURVE",
"176 195 OFFCURVE",
"176 237 CURVE SMOOTH",
"176 279 OFFCURVE",
"204 306 OFFCURVE",
"247 306 CURVE SMOOTH",
"290 306 OFFCURVE",
"318 279 OFFCURVE",
"318 237 CURVE SMOOTH",
"318 195 OFFCURVE",
"290 168 OFFCURVE",
"247 168 CURVE SMOOTH"
);
},
{
closed = 1;
nodes = (
"536 372 LINE",
"442 372 LINE",
"442 102 LINE",
"536 52 LINE"
);
},
{
closed = 1;
nodes = (
"442 31 LINE",
"536 -19 LINE",
"536 102 LINE",
"442 152 LINE"
);
}
);
width = 610;
}
);
leftMetricsKey = "=-10";
unicode = 11A74;
script = soyombo;
category = Letter;
subCategory = Other;
},
{
glyphname = "tsa-soyo";
production = uni11A75;
lastChange = "2019-11-06 20:13:54 +0000";
layers = (
{
anchors = (
{
name = bottom;
position = "{402, 0.055}";
},
{
name = top;
position = "{210, 714}";
}
);
layerId = "BAFE8A66-C264-402A-9333-50E528A5D43A";
paths = (
{
closed = 1;
nodes = (
"402 487 LINE",
"496 487 LINE",
"496 714 LINE",
"402 714 LINE"
);
},
{
closed = 1;
nodes = (
"410 714 LINE",
"10 714 LINE",
"10 708 LINE",
"210 589 LINE",
"410 708 LINE"
);
},
{
closed = 1;
nodes = (
"402 159 LINE",
"496 109 LINE",
"496 549 LINE",
"402 549 LINE"
);
},
{
closed = 1;
nodes = (
"402 354 LINE",
"350 406 LINE",
"155 211 LINE",
"207 159 LINE"
);
},
{
closed = 1;
nodes = (
"155 497 LINE",
"350 302 LINE",
"402 354 LINE",
"207 549 LINE"
);
},
{
closed = 1;
nodes = (
"12 354 LINE",
"64 302 LINE",
"259 497 LINE",
"207 549 LINE"
);
},
{
closed = 1;
nodes = (
"259 211 LINE",
"64 406 LINE",
"12 354 LINE",
"207 159 LINE"
);
},
{
closed = 1;
nodes = (
"402 0 LINE",
"496 -50 LINE",
"496 159 LINE",
"402 209 LINE"
);
}
);
width = 570;
}
);
leftMetricsKey = "=-50";
unicode = 11A75;
script = soyombo;
category = Letter;
subCategory = Other;
},
{
glyphname = "tsha-soyo";
production = uni11A76;
lastChange = "2019-11-06 20:13:54 +0000";
layers = (
{
anchors = (
{
name = bottom;
position = "{402, 0.055}";
},
{
name = top;
position = "{210, 714}";
}
);
layerId = "BAFE8A66-C264-402A-9333-50E528A5D43A";
paths = (
{
closed = 1;
nodes = (
"402 487 LINE",
"496 487 LINE",
"496 714 LINE",
"402 714 LINE"
);
},
{
closed = 1;
nodes = (
"410 714 LINE",
"10 714 LINE",
"10 708 LINE",
"210 589 LINE",
"410 708 LINE"
);
},
{
closed = 1;
nodes = (
"402 159 LINE",
"496 109 LINE",
"496 549 LINE",
"402 549 LINE"
);
},
{
closed = 1;
nodes = (
"402 354 LINE",
"357 399 LINE",
"162 204 LINE",
"207 159 LINE"
);
},
{
closed = 1;
nodes = (
"162 504 LINE",
"357 309 LINE",
"402 354 LINE",
"207 549 LINE"
);
},
{
closed = 1;
nodes = (
"12 354 LINE",
"57 309 LINE",
"252 504 LINE",
"207 549 LINE"
);
},
{
closed = 1;
nodes = (
"252 204 LINE",
"57 399 LINE",
"12 354 LINE",
"207 159 LINE"
);
},
{
closed = 1;
nodes = (
"177 469 LINE",
"177 239 LINE",
"237 239 LINE",
"237 469 LINE"
);
},
{
closed = 1;
nodes = (
"402 0 LINE",
"496 -50 LINE",
"496 159 LINE",
"402 209 LINE"
);
}
);
width = 570;
}
);
leftMetricsKey = "=-50";
unicode = 11A76;
script = soyombo;
category = Letter;
subCategory = Other;
},
{
glyphname = "dza-soyo";
production = uni11A77;
lastChange = "2019-11-06 20:13:54 +0000";
layers = (
{
anchors = (
{
name = bottom;
position = "{402, 0.055}";
},
{
name = top;
position = "{210, 714}";
}
);
layerId = "BAFE8A66-C264-402A-9333-50E528A5D43A";
paths = (
{
closed = 1;
nodes = (
"402 487 LINE",
"496 487 LINE",
"496 714 LINE",
"402 714 LINE"
);
},
{
closed = 1;
nodes = (
"410 714 LINE",
"10 714 LINE",
"10 708 LINE",
"210 589 LINE",
"410 708 LINE"
);
},
{
closed = 1;
nodes = (
"402 159 LINE",
"496 109 LINE",
"496 549 LINE",
"402 549 LINE"
);
},
{
closed = 1;
nodes = (
"402 354 LINE",
"357 399 LINE",
"162 204 LINE",
"207 159 LINE"
);
},
{
closed = 1;
nodes = (
"162 504 LINE",
"357 309 LINE",
"402 354 LINE",
"207 549 LINE"
);
},
{
closed = 1;
nodes = (
"12 354 LINE",
"57 309 LINE",
"252 504 LINE",
"207 549 LINE"
);
},
{
closed = 1;
nodes = (
"252 204 LINE",
"57 399 LINE",
"12 354 LINE",
"207 159 LINE"
);
},
{
closed = 1;
nodes = (
"327 384 LINE",
"87 384 LINE",
"87 324 LINE",
"327 324 LINE"
);
},
{
closed = 1;
nodes = (
"402 0 LINE",
"496 -50 LINE",
"496 159 LINE",
"402 209 LINE"
);
}
);
width = 570;
}
);
leftMetricsKey = "=-50";
unicode = 11A77;
script = soyombo;
category = Letter;
subCategory = Other;
},
{
glyphname = "zha-soyo";
production = uni11A78;
lastChange = "2019-11-06 20:13:54 +0000";
layers = (
{
anchors = (
{
name = bottom;
position = "{442, 0.368}";
},
{
name = top;
position = "{250, 714}";
}
);
layerId = "BAFE8A66-C264-402A-9333-50E528A5D43A";
paths = (
{
closed = 1;
nodes = (
"442 487 LINE",
"536 487 LINE",
"536 714 LINE",
"442 714 LINE"
);
},
{
closed = 1;
nodes = (
"450 714 LINE",
"50 714 LINE",
"50 708 LINE",
"250 589 LINE",
"450 708 LINE"
);
},
{
closed = 1;
nodes = (
"442 382 LINE",
"536 332 LINE",
"536 549 LINE",
"442 549 LINE"
);
},
{
closed = 1;
nodes = (
"57 609 OFFCURVE",
"24 581 OFFCURVE",
"24 535 CURVE SMOOTH",
"24 468 OFFCURVE",
"91 433 OFFCURVE",
"186 433 CURVE SMOOTH",
"277 433 OFFCURVE",
"348 462 OFFCURVE",
"418 535 CURVE",
"389 572 LINE",
"335 528 OFFCURVE",
"280 504 OFFCURVE",
"215 504 CURVE SMOOTH",
"163 504 OFFCURVE",
"138 524 OFFCURVE",
"138 553 CURVE SMOOTH",
"138 567 OFFCURVE",
"143 582 OFFCURVE",
"153 591 CURVE",
"143 602 OFFCURVE",
"124 609 OFFCURVE",
"100 609 CURVE SMOOTH"
);
},
{
closed = 1;
nodes = (
"134 251 OFFCURVE",
"147 302 OFFCURVE",
"247 302 CURVE SMOOTH",
"346 302 OFFCURVE",
"360 254 OFFCURVE",
"360 81 CURVE",
"422 81 LINE",
"422 289 OFFCURVE",
"386 369 OFFCURVE",
"247 369 CURVE SMOOTH",
"110 369 OFFCURVE",
"72 292 OFFCURVE",
"72 81 CURVE",
"134 81 LINE"
);
},
{
closed = 1;
nodes = (
"536 382 LINE",
"442 382 LINE",
"442 81 LINE",
"536 31 LINE"
);
},
{
closed = 1;
nodes = (
"368 81 LINE",
"379 81 LINE",
"379 149 LINE",
"368 149 LINE"
);
},
{
closed = 1;
nodes = (
"442 0 LINE",
"536 -50 LINE",
"536 81 LINE",
"442 131 LINE"
);
}
);
width = 610;
}
);
leftMetricsKey = "=-10";
unicode = 11A78;
script = soyombo;
category = Letter;
subCategory = Other;
},
{
glyphname = "za-soyo";
production = uni11A79;
lastChange = "2019-11-06 20:13:54 +0000";
layers = (
{
anchors = (
{
name = bottom;
position = "{452, -0.059}";
},
{
name = top;
position = "{260, 714}";
}
);
layerId = "BAFE8A66-C264-402A-9333-50E528A5D43A";
paths = (
{
closed = 1;
nodes = (
"452 487 LINE",
"546 487 LINE",
"546 714 LINE",
"452 714 LINE"
);
},
{
closed = 1;
nodes = (
"460 714 LINE",
"60 714 LINE",
"60 708 LINE",
"260 589 LINE",
"460 708 LINE"
);
},
{
closed = 1;
nodes = (
"452 342 LINE",
"546 292 LINE",
"546 549 LINE",
"452 549 LINE"
);
},
{
closed = 1;
nodes = (
"67 569 OFFCURVE",
"34 541 OFFCURVE",
"34 495 CURVE SMOOTH",
"34 428 OFFCURVE",
"101 393 OFFCURVE",
"196 393 CURVE SMOOTH",
"287 393 OFFCURVE",
"360 421 OFFCURVE",
"428 495 CURVE",
"399 532 LINE",
"345 487 OFFCURVE",
"290 464 OFFCURVE",
"225 464 CURVE SMOOTH",
"173 464 OFFCURVE",
"148 484 OFFCURVE",
"148 513 CURVE SMOOTH",
"148 527 OFFCURVE",
"153 542 OFFCURVE",
"163 551 CURVE",
"153 561 OFFCURVE",
"134 569 OFFCURVE",
"110 569 CURVE SMOOTH"
);
},
{
closed = 1;
nodes = (
"546 342 LINE",
"452 342 LINE",
"452 187 LINE",
"546 137 LINE"
);
},
{
closed = 1;
nodes = (
"196 231 LINE",
"263 231 LINE",
"263 423 LINE",
"196 423 LINE"
);
},
{
closed = 1;
nodes = (
"38 187 LINE",
"415 187 LINE",
"415 254 LINE",
"38 254 LINE"
);
},
{
closed = 1;
nodes = (
"452 0 LINE",
"546 -50 LINE",
"546 187 LINE",
"452 237 LINE"
);
}
);
width = 620;
}
);
unicode = 11A79;
script = soyombo;
category = Letter;
subCategory = Other;
},
{
glyphname = "aa-soyo";
production = uni11A7A;
lastChange = "2019-11-06 20:13:54 +0000";
layers = (
{
anchors = (
{
name = bottom;
position = "{402, 0.148}";
},
{
name = top;
position = "{210, 714}";
}
);
layerId = "BAFE8A66-C264-402A-9333-50E528A5D43A";
paths = (
{
closed = 1;
nodes = (
"402 487 LINE",
"496 487 LINE",
"496 714 LINE",
"402 714 LINE"
);
},
{
closed = 1;
nodes = (
"410 714 LINE",
"10 714 LINE",
"10 708 LINE",
"210 589 LINE",
"410 708 LINE"
);
},
{
closed = 1;
nodes = (
"402 122 LINE",
"496 72 LINE",
"496 549 LINE",
"402 549 LINE"
);
},
{
closed = 1;
nodes = (
"23 339 OFFCURVE",
"61 294 OFFCURVE",
"124 266 CURVE",
"145 301 LINE",
"105 323 OFFCURVE",
"87 352 OFFCURVE",
"87 387 CURVE SMOOTH",
"87 443 OFFCURVE",
"126 475 OFFCURVE",
"194 475 CURVE SMOOTH",
"254 475 OFFCURVE",
"298 450 OFFCURVE",
"298 385 CURVE SMOOTH",
"298 324 OFFCURVE",
"258 259 OFFCURVE",
"147 157 CURVE",
"179 122 LINE",
"324 247 OFFCURVE",
"358 311 OFFCURVE",
"358 391 CURVE SMOOTH",
"358 493 OFFCURVE",
"296 549 OFFCURVE",
"188 549 CURVE SMOOTH",
"81 549 OFFCURVE",
"23 487 OFFCURVE",
"23 402 CURVE SMOOTH"
);
},
{
closed = 1;
nodes = (
"402 0 LINE",
"496 -50 LINE",
"496 122 LINE",
"402 172 LINE"
);
}
);
width = 570;
}
);
leftMetricsKey = "=-50";
unicode = 11A7A;
script = soyombo;
category = Letter;
subCategory = Other;
},
{
glyphname = "ya-soyo";
production = uni11A7B;
lastChange = "2019-11-06 20:13:54 +0000";
layers = (
{
anchors = (
{
name = bottom;
position = "{442, 0.368}";
},
{
name = top;
position = "{250, 714}";
}
);
layerId = "BAFE8A66-C264-402A-9333-50E528A5D43A";
paths = (
{
closed = 1;
nodes = (
"442 487 LINE",
"536 487 LINE",
"536 714 LINE",
"442 714 LINE"
);
},
{
closed = 1;
nodes = (
"450 714 LINE",
"50 714 LINE",
"50 708 LINE",
"250 589 LINE",
"450 708 LINE"
);
},
{
closed = 1;
nodes = (
"442 382 LINE",
"536 332 LINE",
"536 549 LINE",
"442 549 LINE"
);
},
{
closed = 1;
nodes = (
"57 609 OFFCURVE",
"24 581 OFFCURVE",
"24 535 CURVE SMOOTH",
"24 468 OFFCURVE",
"91 433 OFFCURVE",
"186 433 CURVE SMOOTH",
"277 433 OFFCURVE",
"348 462 OFFCURVE",
"418 535 CURVE",
"389 572 LINE",
"335 528 OFFCURVE",
"280 504 OFFCURVE",
"215 504 CURVE SMOOTH",
"163 504 OFFCURVE",
"138 524 OFFCURVE",
"138 553 CURVE SMOOTH",
"138 567 OFFCURVE",
"143 582 OFFCURVE",
"153 591 CURVE",
"143 602 OFFCURVE",
"124 609 OFFCURVE",
"100 609 CURVE SMOOTH"
);
},
{
closed = 1;
nodes = (
"134 251 OFFCURVE",
"147 302 OFFCURVE",
"247 302 CURVE SMOOTH",
"346 302 OFFCURVE",
"360 254 OFFCURVE",
"360 81 CURVE",
"422 81 LINE",
"422 289 OFFCURVE",
"386 369 OFFCURVE",
"247 369 CURVE SMOOTH",
"110 369 OFFCURVE",
"72 292 OFFCURVE",
"72 81 CURVE",
"134 81 LINE"
);
},
{
closed = 1;
nodes = (
"536 382 LINE",
"442 382 LINE",
"442 81 LINE",
"536 31 LINE"
);
},
{
closed = 1;
nodes = (
"115 81 LINE",
"379 81 LINE",
"379 149 LINE",
"115 149 LINE"
);
},
{
closed = 1;
nodes = (
"442 0 LINE",
"536 -50 LINE",
"536 81 LINE",
"442 131 LINE"
);
}
);
width = 610;
}
);
leftMetricsKey = "=-10";
unicode = 11A7B;
script = soyombo;
category = Letter;
subCategory = Other;
},
{
glyphname = "ra-soyo";
production = uni11A7C;
lastChange = "2019-11-06 20:13:54 +0000";
layers = (
{
anchors = (
{
name = bottom;
position = "{442, -0.252}";
},
{
name = top;
position = "{250, 714}";
}
);
layerId = "BAFE8A66-C264-402A-9333-50E528A5D43A";
paths = (
{
closed = 1;
nodes = (
"442 487 LINE",
"536 487 LINE",
"536 714 LINE",
"442 714 LINE"
);
},
{
closed = 1;
nodes = (
"450 714 LINE",
"50 714 LINE",
"50 708 LINE",
"250 589 LINE",
"450 708 LINE"
);
},
{
closed = 1;
nodes = (
"442 382 LINE",
"536 332 LINE",
"536 549 LINE",
"442 549 LINE"
);
},
{
closed = 1;
nodes = (
"57 609 OFFCURVE",
"24 581 OFFCURVE",
"24 535 CURVE SMOOTH",
"24 468 OFFCURVE",
"91 433 OFFCURVE",
"186 433 CURVE SMOOTH",
"277 433 OFFCURVE",
"348 462 OFFCURVE",
"418 535 CURVE",
"389 572 LINE",
"335 528 OFFCURVE",
"280 504 OFFCURVE",
"215 504 CURVE SMOOTH",
"163 504 OFFCURVE",
"138 524 OFFCURVE",
"138 553 CURVE SMOOTH",
"138 567 OFFCURVE",
"143 582 OFFCURVE",
"153 591 CURVE",
"143 602 OFFCURVE",
"124 609 OFFCURVE",
"100 609 CURVE SMOOTH"
);
},
{
closed = 1;
nodes = (
"536 382 LINE",
"442 382 LINE",
"442 83 LINE",
"536 33 LINE"
);
},
{
closed = 1;
nodes = (
"247 382 LINE",
"52 83 LINE",
"442 83 LINE"
);
},
{
closed = 1;
nodes = (
"124 146 LINE",
"138 97 LINE",
"271 303 LINE",
"223 303 LINE",
"356 97 LINE",
"370 146 LINE"
);
},
{
closed = 1;
nodes = (
"442 0 LINE",
"536 -50 LINE",
"536 83 LINE",
"442 133 LINE"
);
}
);
width = 610;
}
);
leftMetricsKey = "=-10";
unicode = 11A7C;
script = soyombo;
category = Letter;
subCategory = Other;
},
{
glyphname = "la-soyo";
production = uni11A7D;
lastChange = "2019-11-06 20:13:54 +0000";
layers = (
{
anchors = (
{
name = bottom;
position = "{442, -1.041}";
},
{
name = top;
position = "{250, 714}";
}
);
layerId = "BAFE8A66-C264-402A-9333-50E528A5D43A";
paths = (
{
closed = 1;
nodes = (
"442 487 LINE",
"536 487 LINE",
"536 714 LINE",
"442 714 LINE"
);
},
{
closed = 1;
nodes = (
"450 714 LINE",
"50 714 LINE",
"50 708 LINE",
"250 589 LINE",
"450 708 LINE"
);
},
{
closed = 1;
nodes = (
"442 342 LINE",
"536 292 LINE",
"536 549 LINE",
"442 549 LINE"
);
},
{
closed = 1;
nodes = (
"57 569 OFFCURVE",
"24 541 OFFCURVE",
"24 495 CURVE SMOOTH",
"24 428 OFFCURVE",
"91 393 OFFCURVE",
"186 393 CURVE SMOOTH",
"277 393 OFFCURVE",
"350 421 OFFCURVE",
"418 495 CURVE",
"389 532 LINE",
"335 487 OFFCURVE",
"280 464 OFFCURVE",
"215 464 CURVE SMOOTH",
"163 464 OFFCURVE",
"138 484 OFFCURVE",
"138 513 CURVE SMOOTH",
"138 527 OFFCURVE",
"143 542 OFFCURVE",
"153 551 CURVE",
"143 561 OFFCURVE",
"124 569 OFFCURVE",
"100 569 CURVE SMOOTH"
);
},
{
closed = 1;
nodes = (
"102 146 LINE",
"98 155 OFFCURVE",
"96 169 OFFCURVE",
"96 181 CURVE SMOOTH",
"96 232 OFFCURVE",
"136 262 OFFCURVE",
"205 262 CURVE SMOOTH",
"267 262 OFFCURVE",
"330 243 OFFCURVE",
"390 203 CURVE",
"418 245 LINE",
"340 302 OFFCURVE",
"262 322 OFFCURVE",
"191 322 CURVE SMOOTH",
"91 322 OFFCURVE",
"24 283 OFFCURVE",
"24 208 CURVE SMOOTH",
"24 178 OFFCURVE",
"35 151 OFFCURVE",
"57 130 CURVE"
);
},
{
closed = 1;
nodes = (
"253 288 LINE",
"253 415 LINE",
"187 415 LINE",
"187 288 LINE"
);
},
{
closed = 1;
nodes = (
"536 342 LINE",
"442 342 LINE",
"442 130 LINE",
"536 80 LINE"
);
},
{
closed = 1;
nodes = (
"442 -1 LINE",
"536 -51 LINE",
"536 130 LINE",
"442 180 LINE"
);
}
);
width = 610;
}
);
leftMetricsKey = "=-10";
unicode = 11A7D;
script = soyombo;
category = Letter;
subCategory = Other;
},
{
glyphname = "va-soyo";
production = uni11A7E;
lastChange = "2019-11-06 20:13:54 +0000";
layers = (
{
anchors = (
{
name = bottom;
position = "{402, 20.337}";
},
{
name = top;
position = "{210, 714}";
}
);
layerId = "BAFE8A66-C264-402A-9333-50E528A5D43A";
paths = (
{
closed = 1;
nodes = (
"402 487 LINE",
"496 487 LINE",
"496 714 LINE",
"402 714 LINE"
);
},
{
closed = 1;
nodes = (
"410 714 LINE",
"10 714 LINE",
"10 708 LINE",
"210 589 LINE",
"410 708 LINE"
);
},
{
closed = 1;
nodes = (
"303 199 OFFCURVE",
"382 278 OFFCURVE",
"382 374 CURVE SMOOTH",
"382 470 OFFCURVE",
"303 549 OFFCURVE",
"207 549 CURVE SMOOTH",
"111 549 OFFCURVE",
"32 470 OFFCURVE",
"32 374 CURVE SMOOTH",
"32 278 OFFCURVE",
"111 199 OFFCURVE",
"207 199 CURVE SMOOTH"
);
},
{
closed = 1;
nodes = (
"149 273 OFFCURVE",
"106 316 OFFCURVE",
"106 374 CURVE SMOOTH",
"106 432 OFFCURVE",
"149 475 OFFCURVE",
"207 475 CURVE SMOOTH",
"265 475 OFFCURVE",
"308 432 OFFCURVE",
"308 374 CURVE SMOOTH",
"308 316 OFFCURVE",
"265 273 OFFCURVE",
"207 273 CURVE SMOOTH"
);
},
{
closed = 1;
nodes = (
"496 549 LINE",
"402 549 LINE",
"402 199 LINE",
"496 149 LINE"
);
},
{
closed = 1;
nodes = (
"402 20 LINE",
"496 -30 LINE",
"496 199 LINE",
"402 249 LINE"
);
}
);
width = 570;
}
);
leftMetricsKey = "=-50";
unicode = 11A7E;
script = soyombo;
category = Letter;
subCategory = Other;
},
{
glyphname = "sha-soyo";
production = uni11A7F;
lastChange = "2019-11-06 20:13:54 +0000";
layers = (
{
anchors = (
{
name = bottom;
position = "{422, 0.347}";
},
{
name = top;
position = "{230, 714}";
}
);
layerId = "BAFE8A66-C264-402A-9333-50E528A5D43A";
paths = (
{
closed = 1;
nodes = (
"422 487 LINE",
"516 487 LINE",
"516 714 LINE",
"422 714 LINE"
);
},
{
closed = 1;
nodes = (
"430 714 LINE",
"30 714 LINE",
"30 708 LINE",
"230 589 LINE",
"430 708 LINE"
);
},
{
closed = 1;
nodes = (
"422 179 LINE",
"516 129 LINE",
"516 549 LINE",
"422 549 LINE"
);
},
{
closed = 1;
nodes = (
"432 485 LINE",
"432 576 LINE",
"32 304 LINE",
"32 213 LINE"
);
},
{
closed = 1;
nodes = (
"32 478 LINE",
"432 206 LINE",
"432 297 LINE",
"32 569 LINE"
);
},
{
closed = 1;
nodes = (
"422 0 LINE",
"516 -50 LINE",
"516 179 LINE",
"422 229 LINE"
);
}
);
width = 590;
}
);
leftMetricsKey = "=-30";
unicode = 11A7F;
script = soyombo;
category = Letter;
subCategory = Other;
},
{
glyphname = "ssa-soyo";
production = uni11A80;
lastChange = "2019-11-06 20:13:54 +0000";
layers = (
{
anchors = (
{
name = bottom;
position = "{432, -6.41}";
},
{
name = top;
position = "{240, 714}";
}
);
layerId = "BAFE8A66-C264-402A-9333-50E528A5D43A";
paths = (
{
closed = 1;
nodes = (
"432 487 LINE",
"526 487 LINE",
"526 714 LINE",
"432 714 LINE"
);
},
{
closed = 1;
nodes = (
"440 714 LINE",
"40 714 LINE",
"40 708 LINE",
"240 589 LINE",
"440 708 LINE"
);
},
{
closed = 1;
nodes = (
"432 147 LINE",
"526 97 LINE",
"526 549 LINE",
"432 549 LINE"
);
},
{
closed = 1;
nodes = (
"442 485 LINE",
"442 576 LINE",
"110 350 LINE",
"173 302 LINE"
);
},
{
closed = 1;
nodes = (
"42 478 LINE",
"442 206 LINE",
"442 297 LINE",
"42 569 LINE"
);
},
{
closed = 1;
nodes = (
"166 291 OFFCURVE",
"177 269 OFFCURVE",
"177 247 CURVE SMOOTH",
"177 229 OFFCURVE",
"164 217 OFFCURVE",
"141 217 CURVE SMOOTH",
"115 217 OFFCURVE",
"92 244 OFFCURVE",
"50 309 CURVE",
"6 279 LINE",
"58 180 OFFCURVE",
"94 147 OFFCURVE",
"151 147 CURVE SMOOTH",
"211 147 OFFCURVE",
"250 184 OFFCURVE",
"250 236 CURVE SMOOTH",
"250 271 OFFCURVE",
"238 300 OFFCURVE",
"177 355 CURVE",
"110 350 LINE"
);
},
{
closed = 1;
nodes = (
"432 -6 LINE",
"526 -56 LINE",
"526 147 LINE",
"432 197 LINE"
);
}
);
width = 600;
}
);
leftMetricsKey = "=-20";
unicode = 11A80;
script = soyombo;
category = Letter;
subCategory = Other;
},
{
glyphname = "sa-soyo";
production = uni11A81;
lastChange = "2019-11-06 20:13:54 +0000";
layers = (
{
anchors = (
{
name = bottom;
position = "{432, 0.106}";
},
{
name = top;
position = "{240, 714}";
}
);
layerId = "BAFE8A66-C264-402A-9333-50E528A5D43A";
paths = (
{
closed = 1;
nodes = (
"432 487 LINE",
"526 487 LINE",
"526 714 LINE",
"432 714 LINE"
);
},
{
closed = 1;
nodes = (
"440 714 LINE",
"40 714 LINE",
"40 708 LINE",
"240 589 LINE",
"440 708 LINE"
);
},
{
closed = 1;
nodes = (
"432 266 LINE",
"526 216 LINE",
"526 549 LINE",
"432 549 LINE"
);
},
{
closed = 1;
nodes = (
"185 567 LINE",
"452 300 LINE",
"504 352 LINE",
"237 619 LINE"
);
},
{
closed = 1;
nodes = (
"101 483 LINE",
"170 448 LINE",
"289 567 LINE",
"237 619 LINE"
);
},
{
closed = 1;
nodes = (
"177 416 OFFCURVE",
"197 391 OFFCURVE",
"197 366 CURVE SMOOTH",
"197 348 OFFCURVE",
"184 336 OFFCURVE",
"161 336 CURVE SMOOTH",
"128 336 OFFCURVE",
"99 361 OFFCURVE",
"46 421 CURVE",
"6 381 LINE",
"77 295 OFFCURVE",
"117 266 OFFCURVE",
"171 266 CURVE SMOOTH",
"231 266 OFFCURVE",
"270 303 OFFCURVE",
"270 355 CURVE SMOOTH",
"270 395 OFFCURVE",
"246 428 OFFCURVE",
"171 491 CURVE",
"101 483 LINE"
);
},
{
closed = 1;
nodes = (
"432 0 LINE",
"526 -50 LINE",
"526 266 LINE",
"432 316 LINE"
);
}
);
width = 600;
}
);
leftMetricsKey = "=-20";
unicode = 11A81;
script = soyombo;
category = Letter;
subCategory = Other;
},
{
glyphname = "ha-soyo";
production = uni11A82;
lastChange = "2019-11-06 20:13:54 +0000";
layers = (
{
anchors = (
{
name = bottom;
position = "{502, -0.012}";
},
{
name = top;
position = "{310, 714}";
}
);
layerId = "BAFE8A66-C264-402A-9333-50E528A5D43A";
paths = (
{
closed = 1;
nodes = (
"502 487 LINE",
"596 487 LINE",
"596 634 LINE",
"502 574 LINE"
);
},
{
closed = 1;
nodes = (
"510 714 LINE",
"110 714 LINE",
"110 708 LINE",
"310 589 LINE",
"510 708 LINE"
);
},
{
closed = 1;
nodes = (
"502 159 LINE",
"596 109 LINE",
"596 599 LINE",
"502 549 LINE"
);
},
{
closed = 1;
nodes = (
"255 597 LINE",
"522 388 LINE",
"574 440 LINE",
"307 649 LINE"
);
},
{
closed = 1;
nodes = (
"40 440 LINE",
"92 388 LINE",
"359 597 LINE",
"307 649 LINE"
);
},
{
closed = 1;
nodes = (
"24 629 LINE",
"24 159 LINE",
"118 209 LINE",
"118 579 LINE"
);
},
{
closed = 1;
nodes = (
"337 238 OFFCURVE",
"357 262 OFFCURVE",
"357 316 CURVE SMOOTH",
"357 396 OFFCURVE",
"311 437 OFFCURVE",
"223 437 CURVE SMOOTH",
"179 437 OFFCURVE",
"141 428 OFFCURVE",
"111 413 CURVE",
"111 363 LINE",
"133 375 OFFCURVE",
"165 383 OFFCURVE",
"194 383 CURVE SMOOTH",
"244 383 OFFCURVE",
"263 358 OFFCURVE",
"263 312 CURVE SMOOTH",
"263 288 OFFCURVE",
"258 266 OFFCURVE",
"247 248 CURVE",
"261 241 OFFCURVE",
"276 238 OFFCURVE",
"292 238 CURVE SMOOTH"
);
},
{
closed = 1;
nodes = (
"502 0 LINE",
"596 -50 LINE",
"596 159 LINE",
"502 209 LINE"
);
}
);
width = 670;
}
);
leftMetricsKey = "=+50";
unicode = 11A82;
script = soyombo;
category = Letter;
subCategory = Other;
},
{
glyphname = "kssa-soyo";
production = uni11A83;
lastChange = "2019-11-06 20:13:54 +0000";
layers = (
{
anchors = (
{
name = bottom;
position = "{492, 0}";
},
{
name = top;
position = "{300, 714}";
}
);
layerId = "BAFE8A66-C264-402A-9333-50E528A5D43A";
paths = (
{
closed = 1;
nodes = (
"492 487 LINE",
"586 487 LINE",
"586 634 LINE",
"492 574 LINE"
);
},
{
closed = 1;
nodes = (
"500 714 LINE",
"100 714 LINE",
"100 708 LINE",
"300 589 LINE",
"500 708 LINE"
);
},
{
closed = 1;
nodes = (
"492 241 LINE",
"586 191 LINE",
"586 599 LINE",
"492 549 LINE"
);
},
{
closed = 1;
nodes = (
"253 291 LINE",
"347 241 LINE",
"347 639 LINE",
"253 639 LINE"
);
},
{
closed = 1;
nodes = (
"321 384 LINE",
"525 384 LINE",
"525 434 LINE",
"321 434 LINE"
);
},
{
closed = 1;
nodes = (
"36 564 OFFCURVE",
"14 537 OFFCURVE",
"14 480 CURVE SMOOTH",
"14 378 OFFCURVE",
"95 326 OFFCURVE",
"249 326 CURVE SMOOTH",
"297 326 LINE",
"297 376 LINE",
"249 376 LINE SMOOTH",
"151 376 OFFCURVE",
"108 411 OFFCURVE",
"108 476 CURVE SMOOTH",
"108 506 OFFCURVE",
"115 532 OFFCURVE",
"130 554 CURVE",
"116 561 OFFCURVE",
"101 564 OFFCURVE",
"85 564 CURVE SMOOTH"
);
},
{
closed = 1;
nodes = (
"492 35 LINE",
"586 -15 LINE",
"586 241 LINE",
"492 241 LINE"
);
},
{
closed = 1;
nodes = (
"286 50 OFFCURVE",
"324 59 OFFCURVE",
"358 76 CURVE",
"338 125 LINE",
"315 118 OFFCURVE",
"287 114 OFFCURVE",
"264 114 CURVE SMOOTH",
"220 114 OFFCURVE",
"198 130 OFFCURVE",
"198 156 CURVE SMOOTH",
"198 192 OFFCURVE",
"237 214 OFFCURVE",
"347 241 CURVE",
"347 333 LINE",
"253 333 LINE",
"253 272 LINE",
"176 251 OFFCURVE",
"124 215 OFFCURVE",
"124 150 CURVE SMOOTH",
"124 87 OFFCURVE",
"174 50 OFFCURVE",
"250 50 CURVE SMOOTH"
);
},
{
closed = 1;
nodes = (
"492 0 LINE",
"586 -50 LINE",
"586 35 LINE",
"492 85 LINE"
);
}
);
width = 660;
}
);
leftMetricsKey = "=+40";
unicode = 11A83;
script = soyombo;
category = Letter;
subCategory = Other;
},
{
glyphname = "raInitial-soyo";
production = uni11A86;
lastChange = "2019-11-06 20:13:54 +0000";
layers = (
{
layerId = "BAFE8A66-C264-402A-9333-50E528A5D43A";
paths = (
{
closed = 1;
nodes = (
"115 572 LINE",
"218 644 LINE",
"115 706 LINE"
);
}
);
width = 0;
}
);
unicode = 11A86;
script = soyombo;
category = Letter;
subCategory = Other;
},
{
glyphname = "laInitial-soyo";
production = uni11A87;
lastChange = "2019-11-06 20:13:54 +0000";
layers = (
{
layerId = "BAFE8A66-C264-402A-9333-50E528A5D43A";
paths = (
{
closed = 1;
nodes = (
"50 622 LINE",
"259 622 LINE",
"259 666 LINE",
"50 666 LINE"
);
}
);
width = 0;
}
);
unicode = 11A87;
script = soyombo;
category = Letter;
subCategory = Other;
},
{
glyphname = "shaInitial-soyo";
production = uni11A88;
lastChange = "2019-11-06 20:14:56 +0000";
layers = (
{
layerId = "BAFE8A66-C264-402A-9333-50E528A5D43A";
paths = (
{
closed = 1;
nodes = (
"50 666 LINE",
"50 622 LINE",
"141 622 LINE",
"141 559 LINE",
"189 559 LINE",
"189 666 LINE"
);
}
);
width = 0;
}
);
unicode = 11A88;
script = soyombo;
category = Letter;
subCategory = Other;
},
{
glyphname = "saInitial-soyo";
production = uni11A89;
lastChange = "2019-11-06 20:13:54 +0000";
layers = (
{
layerId = "BAFE8A66-C264-402A-9333-50E528A5D43A";
paths = (
{
closed = 1;
nodes = (
"65 624 LINE",
"168 552 LINE",
"168 686 LINE"
);
}
);
width = 0;
}
);
unicode = 11A89;
script = soyombo;
category = Letter;
subCategory = Other;
},
{
glyphname = "jihvamuliya-soyo";
production = uni11A84;
lastChange = "2019-11-06 20:13:54 +0000";
layers = (
{
anchors = (
{
name = bottom;
position = "{452, 468}";
},
{
name = top;
position = "{260, 714}";
}
);
layerId = "BAFE8A66-C264-402A-9333-50E528A5D43A";
paths = (
{
closed = 1;
nodes = (
"500 714 LINE",
"60 714 LINE",
"60 670 LINE",
"500 670 LINE"
);
},
{
closed = 1;
nodes = (
"500 552 LINE",
"60 552 LINE",
"60 508 LINE",
"500 508 LINE"
);
},
{
closed = 1;
nodes = (
"393 552 LINE",
"500 552 LINE",
"167 670 LINE",
"60 670 LINE"
);
},
{
closed = 1;
nodes = (
"167 552 LINE",
"500 670 LINE",
"393 670 LINE",
"60 552 LINE"
);
}
);
width = 620;
}
);
unicode = 11A84;
script = soyombo;
category = Letter;
subCategory = Other;
},
{
glyphname = "upadhmaniya-soyo";
production = uni11A85;
lastChange = "2019-11-06 20:13:54 +0000";
layers = (
{
anchors = (
{
name = bottom;
position = "{452, 479}";
},
{
name = top;
position = "{260, 714}";
}
);
layerId = "BAFE8A66-C264-402A-9333-50E528A5D43A";
paths = (
{
closed = 1;
nodes = (
"83 724 OFFCURVE",
"45 663 OFFCURVE",
"45 591 CURVE SMOOTH",
"45 563 OFFCURVE",
"51 534 OFFCURVE",
"63 509 CURVE",
"119 526 LINE",
"115 539 OFFCURVE",
"112 559 OFFCURVE",
"112 577 CURVE SMOOTH",
"112 620 OFFCURVE",
"129 645 OFFCURVE",
"161 645 CURVE SMOOTH",
"204 645 OFFCURVE",
"216 600 OFFCURVE",
"231 517 CURVE",
"299 517 LINE",
"314 605 OFFCURVE",
"327 645 OFFCURVE",
"369 645 CURVE SMOOTH",
"401 645 OFFCURVE",
"418 620 OFFCURVE",
"418 577 CURVE SMOOTH",
"418 559 OFFCURVE",
"415 539 OFFCURVE",
"411 526 CURVE",
"467 509 LINE",
"479 534 OFFCURVE",
"485 563 OFFCURVE",
"485 591 CURVE SMOOTH",
"485 663 OFFCURVE",
"447 724 OFFCURVE",
"378 724 CURVE SMOOTH",
"307 724 OFFCURVE",
"266 659 OFFCURVE",
"259 586 CURVE",
"271 586 LINE",
"264 659 OFFCURVE",
"223 724 OFFCURVE",
"152 724 CURVE SMOOTH"
);
}
);
width = 620;
}
);
unicode = 11A85;
script = soyombo;
category = Letter;
subCategory = Other;
},
{
glyphname = "gemination-soyo";
production = uni11A98;
lastChange = "2019-11-06 20:13:54 +0000";
layers = (
{
anchors = (
{
name = bottom;
position = "{452, 614}";
},
{
name = top;
position = "{260, 714}";
}
);
layerId = "BAFE8A66-C264-402A-9333-50E528A5D43A";
paths = (
{
closed = 1;
nodes = (
"460 714 LINE",
"60 714 LINE",
"60 708 LINE",
"260 589 LINE",
"460 708 LINE"
);
}
);
width = 620;
}
);
unicode = 11A98;
script = soyombo;
category = Letter;
subCategory = Other;
},
{
glyphname = "head-soyo";
lastChange = "2019-11-06 20:13:54 +0000";
layers = (
{
anchors = (
{
name = bottom;
position = "{452, 549}";
},
{
name = top;
position = "{260, 714}";
}
);
layerId = "BAFE8A66-C264-402A-9333-50E528A5D43A";
paths = (
{
closed = 1;
nodes = (
"452 487 LINE",
"546 487 LINE",
"546 714 LINE",
"452 714 LINE"
);
},
{
closed = 1;
nodes = (
"460 714 LINE",
"60 714 LINE",
"60 708 LINE",
"260 589 LINE",
"460 708 LINE"
);
}
);
width = 620;
}
);
script = soyombo;
category = Letter;
subCategory = Other;
},
{
glyphname = "head-soyo.open";
production = headsoyo.open;
lastChange = "2019-11-06 20:13:54 +0000";
layers = (
{
anchors = (
{
name = bottom;
position = "{452, 549}";
},
{
name = top;
position = "{260, 714}";
}
);
layerId = "BAFE8A66-C264-402A-9333-50E528A5D43A";
paths = (
{
closed = 1;
nodes = (
"452 487 LINE",
"546 487 LINE",
"546 634 LINE",
"452 574 LINE"
);
},
{
closed = 1;
nodes = (
"460 714 LINE",
"60 714 LINE",
"60 708 LINE",
"260 589 LINE",
"460 708 LINE"
);
}
);
width = 620;
}
);
script = soyombo;
category = Letter;
subCategory = Other;
},
{
glyphname = "tsheg-soyo";
production = uni11A9A;
lastChange = "2019-11-06 20:13:54 +0000";
layers = (
{
layerId = "BAFE8A66-C264-402A-9333-50E528A5D43A";
paths = (
{
closed = 1;
nodes = (
"230 714 LINE",
"30 714 LINE",
"130 589 LINE"
);
}
);
width = 260;
}
);
rightMetricsKey = "=|";
unicode = 11A9A;
script = soyombo;
category = Punctuation;
subCategory = Other;
},
{
glyphname = "shad-soyo";
production = uni11A9B;
lastChange = "2019-11-06 20:13:54 +0000";
layers = (
{
layerId = "BAFE8A66-C264-402A-9333-50E528A5D43A";
paths = (
{
closed = 1;
nodes = (
"60 -30 LINE",
"140 -73 LINE",
"140 714 LINE",
"60 714 LINE"
);
}
);
width = 200;
}
);
rightMetricsKey = "=|";
unicode = 11A9B;
script = soyombo;
category = Punctuation;
subCategory = Other;
},
{
glyphname = "shaddouble-soyo";
production = uni11A9C;
lastChange = "2019-11-06 20:13:54 +0000";
layers = (
{
layerId = "BAFE8A66-C264-402A-9333-50E528A5D43A";
paths = (
{
closed = 1;
nodes = (
"60 -30 LINE",
"140 -73 LINE",
"140 714 LINE",
"60 714 LINE"
);
},
{
closed = 1;
nodes = (
"280 -30 LINE",
"360 -73 LINE",
"360 714 LINE",
"280 714 LINE"
);
}
);
width = 420;
}
);
leftMetricsKey = "shad-soyo";
rightMetricsKey = "shad-soyo";
unicode = 11A9C;
script = soyombo;
category = Punctuation;
subCategory = Other;
},
{
glyphname = "pluta-soyo";
production = uni11A9D;
lastChange = "2019-11-06 20:13:54 +0000";
layers = (
{
layerId = "BAFE8A66-C264-402A-9333-50E528A5D43A";
paths = (
{
closed = 1;
nodes = (
"42 421 LINE",
"96 388 OFFCURVE",
"124 361 OFFCURVE",
"124 325 CURVE SMOOTH",
"124 246 OFFCURVE",
"-17 199 OFFCURVE",
"-17 121 CURVE SMOOTH",
"-17 72 OFFCURVE",
"40 21 OFFCURVE",
"114 -28 CURVE",
"133 -4 LINE",
"93 27 OFFCURVE",
"64 64 OFFCURVE",
"64 94 CURVE SMOOTH",
"64 161 OFFCURVE",
"205 198 OFFCURVE",
"205 299 CURVE SMOOTH",
"205 365 OFFCURVE",
"145 404 OFFCURVE",
"69 448 CURVE"
);
},
{
closed = 1;
nodes = (
"18 393 LINE",
"136 463 OFFCURVE",
"205 516 OFFCURVE",
"205 577 CURVE SMOOTH",
"205 644 OFFCURVE",
"130 714 OFFCURVE",
"30 714 CURVE SMOOTH",
"-5 714 OFFCURVE",
"-36 700 OFFCURVE",
"-62 676 CURVE",
"-5 617 LINE",
"25 643 OFFCURVE",
"50 658 OFFCURVE",
"77 658 CURVE SMOOTH",
"106 658 OFFCURVE",
"125 642 OFFCURVE",
"125 613 CURVE SMOOTH",
"125 568 OFFCURVE",
"73 523 OFFCURVE",
"-35 454 CURVE"
);
}
);
width = 245;
}
);
unicode = 11A9D;
script = soyombo;
category = Symbol;
subCategory = Other;
},
{
glyphname = "headMoonSunTripleFlame-soyo";
production = uni11A9E;
lastChange = "2019-11-06 20:14:56 +0000";
layers = (
{
layerId = "BAFE8A66-C264-402A-9333-50E528A5D43A";
paths = (
{
closed = 1;
nodes = (
"674 0 LINE",
"674 714 LINE",
"534 714 LINE",
"534 0 LINE"
);
},
{
closed = 1;
nodes = (
"514 110 LINE",
"234 110 LINE",
"374 0 LINE"
);
},
{
closed = 1;
nodes = (
"214 0 LINE",
"214 714 LINE",
"74 714 LINE",
"74 0 LINE"
);
},
{
closed = 1;
nodes = (
"514 136 LINE",
"514 206 LINE",
"234 206 LINE",
"234 136 LINE"
);
},
{
closed = 1;
nodes = (
"362 266 OFFCURVE",
"353 275 OFFCURVE",
"353 287 CURVE SMOOTH",
"353 299 OFFCURVE",
"362 308 OFFCURVE",
"374 308 CURVE SMOOTH",
"386 308 OFFCURVE",
"395 299 OFFCURVE",
"395 287 CURVE SMOOTH",
"395 275 OFFCURVE",
"386 266 OFFCURVE",
"374 266 CURVE SMOOTH"
);
},
{
closed = 1;
nodes = (
"317 238 LINE",
"303 250 OFFCURVE",
"295 265 OFFCURVE",
"295 287 CURVE SMOOTH",
"295 329 OFFCURVE",
"321 359 OFFCURVE",
"370 373 CURVE SMOOTH",
"414 386 OFFCURVE",
"433 408 OFFCURVE",
"433 441 CURVE SMOOTH",
"433 480 OFFCURVE",
"407 504 OFFCURVE",
"374 504 CURVE SMOOTH",
"297 504 OFFCURVE",
"234 441 OFFCURVE",
"234 364 CURVE SMOOTH",
"234 304 OFFCURVE",
"271 257 OFFCURVE",
"317 236 CURVE"
);
},
{
closed = 1;
nodes = (
"362 420 OFFCURVE",
"353 429 OFFCURVE",
"353 441 CURVE SMOOTH",
"353 453 OFFCURVE",
"362 462 OFFCURVE",
"374 462 CURVE SMOOTH",
"386 462 OFFCURVE",
"395 453 OFFCURVE",
"395 441 CURVE SMOOTH",
"395 429 OFFCURVE",
"386 420 OFFCURVE",
"374 420 CURVE SMOOTH"
);
},
{
closed = 1;
nodes = (
"514 522 LINE",
"514 592 LINE",
"234 592 LINE",
"234 522 LINE"
);
},
{
closed = 1;
nodes = (
"514 714 LINE",
"234 714 LINE",
"374 604 LINE"
);
},
{
closed = 1;
nodes = (
"456 744 OFFCURVE",
"507 807 OFFCURVE",
"507 894 CURVE",
"502 895 LINE",
"486 836 OFFCURVE",
"450 793 OFFCURVE",
"374 793 CURVE SMOOTH",
"298 793 OFFCURVE",
"262 836 OFFCURVE",
"246 895 CURVE",
"241 894 LINE",
"241 807 OFFCURVE",
"292 744 OFFCURVE",
"374 744 CURVE SMOOTH"
);
},
{
closed = 1;
nodes = (
"424 823 OFFCURVE",
"464 863 OFFCURVE",
"464 913 CURVE SMOOTH",
"464 963 OFFCURVE",
"424 1003 OFFCURVE",
"374 1003 CURVE SMOOTH",
"324 1003 OFFCURVE",
"284 963 OFFCURVE",
"284 913 CURVE SMOOTH",
"284 863 OFFCURVE",
"324 823 OFFCURVE",
"374 823 CURVE SMOOTH"
);
},
{
closed = 1;
nodes = (
"431 490 LINE",
"445 478 OFFCURVE",
"453 463 OFFCURVE",
"453 441 CURVE SMOOTH",
"453 399 OFFCURVE",
"427 369 OFFCURVE",
"378 355 CURVE SMOOTH",
"334 342 OFFCURVE",
"315 320 OFFCURVE",
"315 287 CURVE SMOOTH",
"315 248 OFFCURVE",
"341 224 OFFCURVE",
"374 224 CURVE SMOOTH",
"451 224 OFFCURVE",
"514 287 OFFCURVE",
"514 364 CURVE SMOOTH",
"514 424 OFFCURVE",
"477 471 OFFCURVE",
"431 492 CURVE"
);
},
{
closed = 1;
nodes = (
"412 1023 OFFCURVE",
"434 1049 OFFCURVE",
"434 1080 CURVE SMOOTH",
"434 1098 OFFCURVE",
"423 1105 OFFCURVE",
"423 1112 CURVE SMOOTH",
"423 1116 OFFCURVE",
"426 1119 OFFCURVE",
"426 1125 CURVE SMOOTH",
"426 1131 OFFCURVE",
"423 1137 OFFCURVE",
"416 1143 CURVE",
"414 1142 LINE",
"417 1127 OFFCURVE",
"406 1124 OFFCURVE",
"406 1111 CURVE SMOOTH",
"406 1104 OFFCURVE",
"411 1100 OFFCURVE",
"411 1094 CURVE SMOOTH",
"411 1087 OFFCURVE",
"407 1082 OFFCURVE",
"400 1082 CURVE SMOOTH",
"393 1082 OFFCURVE",
"388 1087 OFFCURVE",
"388 1094 CURVE SMOOTH",
"388 1107 OFFCURVE",
"397 1115 OFFCURVE",
"397 1130 CURVE SMOOTH",
"397 1158 OFFCURVE",
"373 1172 OFFCURVE",
"373 1191 CURVE SMOOTH",
"373 1194 OFFCURVE",
"374 1199 OFFCURVE",
"377 1204 CURVE",
"374 1206 LINE",
"363 1197 OFFCURVE",
"358 1188 OFFCURVE",
"358 1179 CURVE SMOOTH",
"358 1172 OFFCURVE",
"361 1168 OFFCURVE",
"361 1163 CURVE SMOOTH",
"361 1151 OFFCURVE",
"351 1143 OFFCURVE",
"351 1129 CURVE SMOOTH",
"351 1110 OFFCURVE",
"360 1105 OFFCURVE",
"360 1094 CURVE SMOOTH",
"360 1087 OFFCURVE",
"355 1082 OFFCURVE",
"348 1082 CURVE SMOOTH",
"341 1082 OFFCURVE",
"337 1087 OFFCURVE",
"337 1094 CURVE SMOOTH",
"337 1100 OFFCURVE",
"340 1103 OFFCURVE",
"340 1109 CURVE SMOOTH",
"340 1120 OFFCURVE",
"330 1123 OFFCURVE",
"333 1137 CURVE",
"331 1138 LINE",
"324 1133 OFFCURVE",
"321 1127 OFFCURVE",
"321 1121 CURVE SMOOTH",
"321 1116 OFFCURVE",
"323 1114 OFFCURVE",
"323 1110 CURVE SMOOTH",
"323 1104 OFFCURVE",
"314 1098 OFFCURVE",
"314 1080 CURVE SMOOTH",
"314 1049 OFFCURVE",
"336 1023 OFFCURVE",
"374 1023 CURVE SMOOTH"
);
}
);
width = 748;
}
);
rightMetricsKey = "=|";
unicode = 11A9E;
script = soyombo;
category = Symbol;
subCategory = Other;
},
{
glyphname = "headMoonSunFlame-soyo";
production = uni11A9F;
lastChange = "2019-11-06 20:13:54 +0000";
layers = (
{
layerId = "BAFE8A66-C264-402A-9333-50E528A5D43A";
paths = (
{
closed = 1;
nodes = (
"674 0 LINE",
"674 714 LINE",
"534 714 LINE",
"534 0 LINE"
);
},
{
closed = 1;
nodes = (
"514 110 LINE",
"234 110 LINE",
"374 0 LINE"
);
},
{
closed = 1;
nodes = (
"214 0 LINE",
"214 714 LINE",
"74 714 LINE",
"74 0 LINE"
);
},
{
closed = 1;
nodes = (
"514 136 LINE",
"514 206 LINE",
"234 206 LINE",
"234 136 LINE"
);
},
{
closed = 1;
nodes = (
"362 266 OFFCURVE",
"353 275 OFFCURVE",
"353 287 CURVE SMOOTH",
"353 299 OFFCURVE",
"362 308 OFFCURVE",
"374 308 CURVE SMOOTH",
"386 308 OFFCURVE",
"395 299 OFFCURVE",
"395 287 CURVE SMOOTH",
"395 275 OFFCURVE",
"386 266 OFFCURVE",
"374 266 CURVE SMOOTH"
);
},
{
closed = 1;
nodes = (
"317 238 LINE",
"303 250 OFFCURVE",
"295 265 OFFCURVE",
"295 287 CURVE SMOOTH",
"295 329 OFFCURVE",
"321 359 OFFCURVE",
"370 373 CURVE SMOOTH",
"414 386 OFFCURVE",
"433 408 OFFCURVE",
"433 441 CURVE SMOOTH",
"433 480 OFFCURVE",
"407 504 OFFCURVE",
"374 504 CURVE SMOOTH",
"297 504 OFFCURVE",
"234 441 OFFCURVE",
"234 364 CURVE SMOOTH",
"234 304 OFFCURVE",
"271 257 OFFCURVE",
"317 236 CURVE"
);
},
{
closed = 1;
nodes = (
"362 420 OFFCURVE",
"353 429 OFFCURVE",
"353 441 CURVE SMOOTH",
"353 453 OFFCURVE",
"362 462 OFFCURVE",
"374 462 CURVE SMOOTH",
"386 462 OFFCURVE",
"395 453 OFFCURVE",
"395 441 CURVE SMOOTH",
"395 429 OFFCURVE",
"386 420 OFFCURVE",
"374 420 CURVE SMOOTH"
);
},
{
closed = 1;
nodes = (
"514 522 LINE",
"514 592 LINE",
"234 592 LINE",
"234 522 LINE"
);
},
{
closed = 1;
nodes = (
"514 714 LINE",
"234 714 LINE",
"374 604 LINE"
);
},
{
closed = 1;
nodes = (
"456 744 OFFCURVE",
"507 807 OFFCURVE",
"507 894 CURVE",
"502 895 LINE",
"486 836 OFFCURVE",
"450 793 OFFCURVE",
"374 793 CURVE SMOOTH",
"298 793 OFFCURVE",
"262 836 OFFCURVE",
"246 895 CURVE",
"241 894 LINE",
"241 807 OFFCURVE",
"292 744 OFFCURVE",
"374 744 CURVE SMOOTH"
);
},
{
closed = 1;
nodes = (
"424 823 OFFCURVE",
"464 863 OFFCURVE",
"464 913 CURVE SMOOTH",
"464 963 OFFCURVE",
"424 1003 OFFCURVE",
"374 1003 CURVE SMOOTH",
"324 1003 OFFCURVE",
"284 963 OFFCURVE",
"284 913 CURVE SMOOTH",
"284 863 OFFCURVE",
"324 823 OFFCURVE",
"374 823 CURVE SMOOTH"
);
},
{
closed = 1;
nodes = (
"431 490 LINE",
"445 478 OFFCURVE",
"453 463 OFFCURVE",
"453 441 CURVE SMOOTH",
"453 399 OFFCURVE",
"427 369 OFFCURVE",
"378 355 CURVE SMOOTH",
"334 342 OFFCURVE",
"315 320 OFFCURVE",
"315 287 CURVE SMOOTH",
"315 248 OFFCURVE",
"341 224 OFFCURVE",
"374 224 CURVE SMOOTH",
"451 224 OFFCURVE",
"514 287 OFFCURVE",
"514 364 CURVE SMOOTH",
"514 424 OFFCURVE",
"477 471 OFFCURVE",
"431 492 CURVE"
);
},
{
closed = 1;
nodes = (
"412 1023 OFFCURVE",
"440 1044 OFFCURVE",
"440 1087 CURVE SMOOTH",
"440 1148 OFFCURVE",
"381 1162 OFFCURVE",
"366 1234 CURVE",
"362 1234 LINE",
"360 1228 OFFCURVE",
"359 1221 OFFCURVE",
"359 1215 CURVE SMOOTH",
"359 1156 OFFCURVE",
"399 1132 OFFCURVE",
"399 1096 CURVE SMOOTH",
"399 1075 OFFCURVE",
"387 1063 OFFCURVE",
"366 1063 CURVE SMOOTH",
"346 1063 OFFCURVE",
"336 1074 OFFCURVE",
"336 1092 CURVE SMOOTH",
"336 1106 OFFCURVE",
"341 1122 OFFCURVE",
"353 1136 CURVE",
"350 1140 LINE",
"323 1129 OFFCURVE",
"308 1106 OFFCURVE",
"308 1080 CURVE SMOOTH",
"308 1054 OFFCURVE",
"323 1023 OFFCURVE",
"372 1023 CURVE SMOOTH"
);
}
);
width = 748;
}
);
rightMetricsKey = "=|";
unicode = 11A9F;
script = soyombo;
category = Symbol;
subCategory = Other;
},
{
glyphname = "headMoonSun-soyo";
production = uni11AA0;
lastChange = "2019-11-06 20:13:54 +0000";
layers = (
{
layerId = "BAFE8A66-C264-402A-9333-50E528A5D43A";
paths = (
{
closed = 1;
nodes = (
"674 0 LINE",
"674 714 LINE",
"534 714 LINE",
"534 0 LINE"
);
},
{
closed = 1;
nodes = (
"514 110 LINE",
"234 110 LINE",
"374 0 LINE"
);
},
{
closed = 1;
nodes = (
"214 0 LINE",
"214 714 LINE",
"74 714 LINE",
"74 0 LINE"
);
},
{
closed = 1;
nodes = (
"514 136 LINE",
"514 206 LINE",
"234 206 LINE",
"234 136 LINE"
);
},
{
closed = 1;
nodes = (
"362 266 OFFCURVE",
"353 275 OFFCURVE",
"353 287 CURVE SMOOTH",
"353 299 OFFCURVE",
"362 308 OFFCURVE",
"374 308 CURVE SMOOTH",
"386 308 OFFCURVE",
"395 299 OFFCURVE",
"395 287 CURVE SMOOTH",
"395 275 OFFCURVE",
"386 266 OFFCURVE",
"374 266 CURVE SMOOTH"
);
},
{
closed = 1;
nodes = (
"317 238 LINE",
"303 250 OFFCURVE",
"295 265 OFFCURVE",
"295 287 CURVE SMOOTH",
"295 329 OFFCURVE",
"321 359 OFFCURVE",
"370 373 CURVE SMOOTH",
"414 386 OFFCURVE",
"433 408 OFFCURVE",
"433 441 CURVE SMOOTH",
"433 480 OFFCURVE",
"407 504 OFFCURVE",
"374 504 CURVE SMOOTH",
"297 504 OFFCURVE",
"234 441 OFFCURVE",
"234 364 CURVE SMOOTH",
"234 304 OFFCURVE",
"271 257 OFFCURVE",
"317 236 CURVE"
);
},
{
closed = 1;
nodes = (
"362 420 OFFCURVE",
"353 429 OFFCURVE",
"353 441 CURVE SMOOTH",
"353 453 OFFCURVE",
"362 462 OFFCURVE",
"374 462 CURVE SMOOTH",
"386 462 OFFCURVE",
"395 453 OFFCURVE",
"395 441 CURVE SMOOTH",
"395 429 OFFCURVE",
"386 420 OFFCURVE",
"374 420 CURVE SMOOTH"
);
},
{
closed = 1;
nodes = (
"514 522 LINE",
"514 592 LINE",
"234 592 LINE",
"234 522 LINE"
);
},
{
closed = 1;
nodes = (
"514 714 LINE",
"234 714 LINE",
"374 604 LINE"
);
},
{
closed = 1;
nodes = (
"456 744 OFFCURVE",
"507 807 OFFCURVE",
"507 894 CURVE",
"502 895 LINE",
"486 836 OFFCURVE",
"450 793 OFFCURVE",
"374 793 CURVE SMOOTH",
"298 793 OFFCURVE",
"262 836 OFFCURVE",
"246 895 CURVE",
"241 894 LINE",
"241 807 OFFCURVE",
"292 744 OFFCURVE",
"374 744 CURVE SMOOTH"
);
},
{
closed = 1;
nodes = (
"424 823 OFFCURVE",
"464 863 OFFCURVE",
"464 913 CURVE SMOOTH",
"464 963 OFFCURVE",
"424 1003 OFFCURVE",
"374 1003 CURVE SMOOTH",
"324 1003 OFFCURVE",
"284 963 OFFCURVE",
"284 913 CURVE SMOOTH",
"284 863 OFFCURVE",
"324 823 OFFCURVE",
"374 823 CURVE SMOOTH"
);
},
{
closed = 1;
nodes = (
"431 490 LINE",
"445 478 OFFCURVE",
"453 463 OFFCURVE",
"453 441 CURVE SMOOTH",
"453 399 OFFCURVE",
"427 369 OFFCURVE",
"378 355 CURVE SMOOTH",
"334 342 OFFCURVE",
"315 320 OFFCURVE",
"315 287 CURVE SMOOTH",
"315 248 OFFCURVE",
"341 224 OFFCURVE",
"374 224 CURVE SMOOTH",
"451 224 OFFCURVE",
"514 287 OFFCURVE",
"514 364 CURVE SMOOTH",
"514 424 OFFCURVE",
"477 471 OFFCURVE",
"431 492 CURVE"
);
}
);
width = 748;
}
);
rightMetricsKey = "=|";
unicode = 11AA0;
script = soyombo;
category = Symbol;
subCategory = Other;
},
{
glyphname = "terminal1-soyo";
production = uni11AA1;
lastChange = "2019-11-06 20:14:56 +0000";
layers = (
{
layerId = "BAFE8A66-C264-402A-9333-50E528A5D43A";
paths = (
{
closed = 1;
nodes = (
"214 0 LINE",
"214 714 LINE",
"74 714 LINE",
"74 0 LINE"
);
},
{
closed = 1;
nodes = (
"367 887 LINE",
"355 859 OFFCURVE",
"336 837 OFFCURVE",
"312 808 CURVE SMOOTH",
"277 765 OFFCURVE",
"232 711 OFFCURVE",
"232 612 CURVE SMOOTH",
"232 530 OFFCURVE",
"253 384 OFFCURVE",
"300 219 CURVE",
"324 225 LINE",
"277 390 OFFCURVE",
"256 532 OFFCURVE",
"256 612 CURVE SMOOTH",
"256 703 OFFCURVE",
"295 750 OFFCURVE",
"331 793 CURVE SMOOTH",
"354 821 OFFCURVE",
"377 849 OFFCURVE",
"382 874 CURVE",
"366 874 LINE",
"371 849 OFFCURVE",
"394 821 OFFCURVE",
"417 793 CURVE SMOOTH",
"453 750 OFFCURVE",
"492 703 OFFCURVE",
"492 612 CURVE SMOOTH",
"492 532 OFFCURVE",
"471 390 OFFCURVE",
"424 225 CURVE",
"448 219 LINE",
"495 384 OFFCURVE",
"516 530 OFFCURVE",
"516 612 CURVE SMOOTH",
"516 711 OFFCURVE",
"471 765 OFFCURVE",
"436 808 CURVE SMOOTH",
"412 837 OFFCURVE",
"393 859 OFFCURVE",
"381 887 CURVE"
);
},
{
closed = 1;
nodes = (
"280 24 LINE SMOOTH",
"260 24 OFFCURVE",
"253 29 OFFCURVE",
"253 37 CURVE SMOOTH",
"253 48 OFFCURVE",
"260 55 OFFCURVE",
"273 55 CURVE SMOOTH",
"281 55 OFFCURVE",
"287 53 OFFCURVE",
"292 48 CURVE",
"308 66 LINE",
"298 75 OFFCURVE",
"286 79 OFFCURVE",
"273 79 CURVE SMOOTH",
"247 79 OFFCURVE",
"229 62 OFFCURVE",
"229 37 CURVE SMOOTH",
"229 13 OFFCURVE",
"248 0 OFFCURVE",
"280 0 CURVE SMOOTH",
"314 0 LINE",
"314 24 LINE"
);
},
{
closed = 1;
nodes = (
"224 202 LINE",
"249 195 OFFCURVE",
"281 173 OFFCURVE",
"310 145 CURVE",
"326 161 LINE",
"305 183 OFFCURVE",
"282 201 OFFCURVE",
"260 212 CURVE",
"266 215 OFFCURVE",
"273 216 OFFCURVE",
"280 216 CURVE SMOOTH",
"297 216 OFFCURVE",
"314 210 OFFCURVE",
"334 195 CURVE",
"348 215 LINE",
"323 232 OFFCURVE",
"303 240 OFFCURVE",
"280 240 CURVE SMOOTH",
"259 240 OFFCURVE",
"240 233 OFFCURVE",
"224 218 CURVE"
);
},
{
closed = 1;
nodes = (
"331 163 OFFCURVE",
"318 167 OFFCURVE",
"304 167 CURVE SMOOTH",
"269 167 OFFCURVE",
"243 148 OFFCURVE",
"233 113 CURVE",
"245 100 LINE",
"252 103 OFFCURVE",
"262 105 OFFCURVE",
"271 105 CURVE SMOOTH",
"292 105 OFFCURVE",
"315 94 OFFCURVE",
"330 76 CURVE",
"348 92 LINE",
"329 115 OFFCURVE",
"299 129 OFFCURVE",
"271 129 CURVE SMOOTH",
"268 129 LINE",
"276 138 OFFCURVE",
"289 143 OFFCURVE",
"304 143 CURVE SMOOTH",
"314 143 OFFCURVE",
"325 140 OFFCURVE",
"334 133 CURVE",
"346 153 LINE"
);
},
{
closed = 1;
nodes = (
"386 43 LINE SMOOTH",
"386 73 OFFCURVE",
"366 93 OFFCURVE",
"336 93 CURVE SMOOTH",
"307 93 OFFCURVE",
"286 73 OFFCURVE",
"286 45 CURVE SMOOTH",
"286 28 OFFCURVE",
"294 13 OFFCURVE",
"308 0 CURVE",
"386 0 LINE"
);
},
{
closed = 1;
nodes = (
"318 27 LINE",
"313 34 OFFCURVE",
"310 40 OFFCURVE",
"310 48 CURVE SMOOTH",
"310 63 OFFCURVE",
"320 72 OFFCURVE",
"336 72 CURVE SMOOTH",
"353 72 OFFCURVE",
"362 63 OFFCURVE",
"362 46 CURVE SMOOTH",
"362 27 LINE"
);
},
{
closed = 1;
nodes = (
"674 714 LINE",
"534 714 LINE",
"534 0 LINE",
"674 0 LINE"
);
},
{
closed = 1;
nodes = (
"434 0 LINE",
"468 0 LINE SMOOTH",
"500 0 OFFCURVE",
"519 13 OFFCURVE",
"519 37 CURVE SMOOTH",
"519 62 OFFCURVE",
"501 79 OFFCURVE",
"475 79 CURVE SMOOTH",
"462 79 OFFCURVE",
"450 75 OFFCURVE",
"440 66 CURVE",
"456 48 LINE",
"461 53 OFFCURVE",
"467 55 OFFCURVE",
"475 55 CURVE SMOOTH",
"488 55 OFFCURVE",
"495 48 OFFCURVE",
"495 37 CURVE SMOOTH",
"495 29 OFFCURVE",
"488 24 OFFCURVE",
"468 24 CURVE SMOOTH",
"434 24 LINE"
);
},
{
closed = 1;
nodes = (
"508 233 OFFCURVE",
"489 240 OFFCURVE",
"468 240 CURVE SMOOTH",
"445 240 OFFCURVE",
"425 232 OFFCURVE",
"400 215 CURVE",
"414 195 LINE",
"434 210 OFFCURVE",
"451 216 OFFCURVE",
"468 216 CURVE SMOOTH",
"475 216 OFFCURVE",
"482 215 OFFCURVE",
"488 212 CURVE",
"466 201 OFFCURVE",
"443 183 OFFCURVE",
"422 161 CURVE",
"438 145 LINE",
"467 173 OFFCURVE",
"499 195 OFFCURVE",
"524 202 CURVE",
"524 218 LINE"
);
},
{
closed = 1;
nodes = (
"414 133 LINE",
"423 140 OFFCURVE",
"434 143 OFFCURVE",
"444 143 CURVE SMOOTH",
"459 143 OFFCURVE",
"472 138 OFFCURVE",
"480 129 CURVE",
"477 129 LINE SMOOTH",
"449 129 OFFCURVE",
"419 115 OFFCURVE",
"400 92 CURVE",
"418 76 LINE",
"433 94 OFFCURVE",
"456 105 OFFCURVE",
"477 105 CURVE SMOOTH",
"486 105 OFFCURVE",
"496 103 OFFCURVE",
"503 100 CURVE",
"515 113 LINE",
"505 148 OFFCURVE",
"479 167 OFFCURVE",
"444 167 CURVE SMOOTH",
"430 167 OFFCURVE",
"417 163 OFFCURVE",
"402 153 CURVE"
);
},
{
closed = 1;
nodes = (
"440 0 LINE",
"454 13 OFFCURVE",
"462 28 OFFCURVE",
"462 45 CURVE SMOOTH",
"462 73 OFFCURVE",
"441 93 OFFCURVE",
"412 93 CURVE SMOOTH",
"382 93 OFFCURVE",
"362 73 OFFCURVE",
"362 43 CURVE SMOOTH",
"362 0 LINE"
);
},
{
closed = 1;
nodes = (
"386 46 LINE SMOOTH",
"386 63 OFFCURVE",
"395 72 OFFCURVE",
"412 72 CURVE SMOOTH",
"428 72 OFFCURVE",
"438 63 OFFCURVE",
"438 48 CURVE SMOOTH",
"438 40 OFFCURVE",
"435 34 OFFCURVE",
"430 27 CURVE",
"386 27 LINE"
);
},
{
closed = 1;
nodes = (
"426 504 OFFCURVE",
"431 527 OFFCURVE",
"437 552 CURVE SMOOTH",
"443 576 OFFCURVE",
"448 601 OFFCURVE",
"448 623 CURVE SMOOTH",
"448 674 OFFCURVE",
"419 707 OFFCURVE",
"374 707 CURVE SMOOTH",
"329 707 OFFCURVE",
"300 674 OFFCURVE",
"300 623 CURVE SMOOTH",
"300 601 OFFCURVE",
"306 576 OFFCURVE",
"311 552 CURVE SMOOTH",
"317 527 OFFCURVE",
"322 504 OFFCURVE",
"322 483 CURVE SMOOTH",
"322 447 OFFCURVE",
"306 429 OFFCURVE",
"266 421 CURVE",
"270 397 LINE",
"321 407 OFFCURVE",
"346 436 OFFCURVE",
"346 483 CURVE SMOOTH",
"346 507 OFFCURVE",
"340 533 OFFCURVE",
"335 557 CURVE SMOOTH",
"329 581 OFFCURVE",
"324 604 OFFCURVE",
"324 623 CURVE SMOOTH",
"324 661 OFFCURVE",
"343 683 OFFCURVE",
"374 683 CURVE SMOOTH",
"405 683 OFFCURVE",
"424 661 OFFCURVE",
"424 623 CURVE SMOOTH",
"424 604 OFFCURVE",
"419 581 OFFCURVE",
"413 557 CURVE SMOOTH",
"407 533 OFFCURVE",
"402 507 OFFCURVE",
"402 483 CURVE SMOOTH",
"402 436 OFFCURVE",
"427 407 OFFCURVE",
"478 397 CURVE",
"482 421 LINE",
"442 429 OFFCURVE",
"426 447 OFFCURVE",
"426 483 CURVE SMOOTH"
);
},
{
closed = 1;
nodes = (
"340 246 OFFCURVE",
"326 216 OFFCURVE",
"326 175 CURVE SMOOTH",
"326 145 OFFCURVE",
"332 110 OFFCURVE",
"344 74 CURVE",
"366 82 LINE",
"356 115 OFFCURVE",
"350 147 OFFCURVE",
"350 175 CURVE SMOOTH",
"350 202 OFFCURVE",
"357 222 OFFCURVE",
"374 242 CURVE",
"391 222 OFFCURVE",
"398 202 OFFCURVE",
"398 175 CURVE SMOOTH",
"398 147 OFFCURVE",
"392 115 OFFCURVE",
"382 82 CURVE",
"404 74 LINE",
"416 110 OFFCURVE",
"422 145 OFFCURVE",
"422 175 CURVE SMOOTH",
"422 216 OFFCURVE",
"408 246 OFFCURVE",
"374 275 CURVE"
);
}
);
width = 748;
}
);
rightMetricsKey = "=|";
unicode = 11AA1;
script = soyombo;
category = Symbol;
subCategory = Other;
},
{
glyphname = "terminal2-soyo";
production = uni11AA2;
lastChange = "2019-11-06 20:14:56 +0000";
layers = (
{
layerId = "BAFE8A66-C264-402A-9333-50E528A5D43A";
paths = (
{
closed = 1;
nodes = (
"467 276 OFFCURVE",
"508 324 OFFCURVE",
"508 430 CURVE SMOOTH",
"508 554 OFFCURVE",
"466 670 OFFCURVE",
"374 804 CURVE",
"282 670 OFFCURVE",
"240 554 OFFCURVE",
"240 430 CURVE SMOOTH",
"240 324 OFFCURVE",
"281 276 OFFCURVE",
"374 276 CURVE SMOOTH"
);
},
{
closed = 1;
nodes = (
"411 12 OFFCURVE",
"434 37 OFFCURVE",
"440 69 CURVE",
"416 73 LINE",
"412 51 OFFCURVE",
"398 35 OFFCURVE",
"374 27 CURVE",
"350 35 OFFCURVE",
"336 51 OFFCURVE",
"332 73 CURVE",
"308 69 LINE",
"314 37 OFFCURVE",
"337 12 OFFCURVE",
"374 2 CURVE"
);
},
{
closed = 1;
nodes = (
"295 36 OFFCURVE",
"335 64 OFFCURVE",
"364 94 CURVE",
"346 110 LINE",
"324 88 OFFCURVE",
"295 66 OFFCURVE",
"267 52 CURVE",
"264 58 OFFCURVE",
"263 65 OFFCURVE",
"263 72 CURVE SMOOTH",
"263 92 OFFCURVE",
"273 101 OFFCURVE",
"293 101 CURVE SMOOTH",
"303 101 OFFCURVE",
"310 99 OFFCURVE",
"321 96 CURVE SMOOTH",
"334 93 OFFCURVE",
"350 89 OFFCURVE",
"374 89 CURVE SMOOTH",
"398 89 OFFCURVE",
"414 93 OFFCURVE",
"427 96 CURVE SMOOTH",
"438 99 OFFCURVE",
"445 101 OFFCURVE",
"455 101 CURVE SMOOTH",
"475 101 OFFCURVE",
"485 92 OFFCURVE",
"485 72 CURVE SMOOTH",
"485 65 OFFCURVE",
"484 58 OFFCURVE",
"481 52 CURVE",
"453 66 OFFCURVE",
"424 88 OFFCURVE",
"402 110 CURVE",
"384 94 LINE",
"413 64 OFFCURVE",
"453 36 OFFCURVE",
"490 21 CURVE",
"502 35 OFFCURVE",
"509 53 OFFCURVE",
"509 72 CURVE SMOOTH",
"509 105 OFFCURVE",
"488 125 OFFCURVE",
"455 125 CURVE SMOOTH",
"442 125 OFFCURVE",
"432 122 OFFCURVE",
"421 120 CURVE SMOOTH",
"408 116 OFFCURVE",
"395 113 OFFCURVE",
"374 113 CURVE SMOOTH",
"353 113 OFFCURVE",
"340 116 OFFCURVE",
"327 120 CURVE SMOOTH",
"316 122 OFFCURVE",
"306 125 OFFCURVE",
"293 125 CURVE SMOOTH",
"260 125 OFFCURVE",
"239 105 OFFCURVE",
"239 72 CURVE SMOOTH",
"239 53 OFFCURVE",
"246 35 OFFCURVE",
"258 21 CURVE"
);
},
{
closed = 1;
nodes = (
"290 122 LINE",
"276 131 OFFCURVE",
"271 143 OFFCURVE",
"271 168 CURVE SMOOTH",
"271 185 OFFCURVE",
"269 199 OFFCURVE",
"265 215 CURVE",
"289 208 OFFCURVE",
"315 190 OFFCURVE",
"323 172 CURVE",
"345 182 LINE",
"328 217 OFFCURVE",
"270 250 OFFCURVE",
"231 240 CURVE",
"242 212 OFFCURVE",
"247 194 OFFCURVE",
"247 168 CURVE SMOOTH",
"247 135 OFFCURVE",
"257 114 OFFCURVE",
"278 102 CURVE"
);
},
{
closed = 1;
nodes = (
"214 0 LINE",
"214 714 LINE",
"74 714 LINE",
"74 0 LINE"
);
},
{
closed = 1;
nodes = (
"214 0 LINE",
"214 714 LINE",
"74 714 LINE",
"74 0 LINE"
);
},
{
closed = 1;
nodes = (
"355 110 LINE",
"347 123 OFFCURVE",
"343 138 OFFCURVE",
"343 153 CURVE SMOOTH",
"343 179 OFFCURVE",
"354 204 OFFCURVE",
"374 223 CURVE",
"394 204 OFFCURVE",
"405 179 OFFCURVE",
"405 153 CURVE SMOOTH",
"405 138 OFFCURVE",
"401 123 OFFCURVE",
"393 110 CURVE",
"413 98 LINE",
"424 114 OFFCURVE",
"429 133 OFFCURVE",
"429 153 CURVE SMOOTH",
"429 192 OFFCURVE",
"409 230 OFFCURVE",
"374 254 CURVE",
"339 230 OFFCURVE",
"319 192 OFFCURVE",
"319 153 CURVE SMOOTH",
"319 133 OFFCURVE",
"324 114 OFFCURVE",
"335 98 CURVE"
);
},
{
closed = 1;
nodes = (
"491 114 OFFCURVE",
"501 135 OFFCURVE",
"501 168 CURVE SMOOTH",
"501 194 OFFCURVE",
"506 212 OFFCURVE",
"517 240 CURVE",
"478 250 OFFCURVE",
"420 217 OFFCURVE",
"403 182 CURVE",
"425 172 LINE",
"433 190 OFFCURVE",
"459 208 OFFCURVE",
"483 215 CURVE",
"479 199 OFFCURVE",
"477 185 OFFCURVE",
"477 168 CURVE SMOOTH",
"477 143 OFFCURVE",
"472 131 OFFCURVE",
"458 122 CURVE",
"470 102 LINE"
);
},
{
closed = 1;
nodes = (
"295 300 OFFCURVE",
"264 337 OFFCURVE",
"264 430 CURVE SMOOTH",
"264 540 OFFCURVE",
"298 644 OFFCURVE",
"374 761 CURVE",
"450 644 OFFCURVE",
"484 540 OFFCURVE",
"484 430 CURVE SMOOTH",
"484 337 OFFCURVE",
"453 300 OFFCURVE",
"374 300 CURVE SMOOTH"
);
},
{
closed = 1;
nodes = (
"674 0 LINE",
"674 714 LINE",
"534 714 LINE",
"534 0 LINE"
);
},
{
closed = 1;
nodes = (
"674 0 LINE",
"674 714 LINE",
"534 714 LINE",
"534 0 LINE"
);
},
{
closed = 1;
nodes = (
"414 289 OFFCURVE",
"447 303 OFFCURVE",
"473 333 CURVE",
"497 383 LINE",
"484 430 LINE",
"484 396 OFFCURVE",
"444 358 OFFCURVE",
"374 358 CURVE SMOOTH",
"304 358 OFFCURVE",
"264 396 OFFCURVE",
"264 430 CURVE",
"251 383 LINE",
"275 333 LINE",
"301 303 OFFCURVE",
"334 289 OFFCURVE",
"374 289 CURVE SMOOTH"
);
},
{
closed = 1;
nodes = (
"422 437 OFFCURVE",
"462 451 OFFCURVE",
"493 481 CURVE",
"472 545 LINE",
"446 521 OFFCURVE",
"411 511 OFFCURVE",
"374 511 CURVE SMOOTH",
"337 511 OFFCURVE",
"302 521 OFFCURVE",
"276 545 CURVE",
"255 481 LINE",
"286 451 OFFCURVE",
"326 437 OFFCURVE",
"374 437 CURVE SMOOTH"
);
},
{
closed = 1;
nodes = (
"403 584 OFFCURVE",
"430 593 OFFCURVE",
"453 612 CURVE",
"431 671 LINE",
"416 659 OFFCURVE",
"396 653 OFFCURVE",
"374 653 CURVE SMOOTH",
"352 653 OFFCURVE",
"332 659 OFFCURVE",
"317 671 CURVE",
"295 612 LINE",
"318 593 OFFCURVE",
"345 584 OFFCURVE",
"374 584 CURVE SMOOTH"
);
}
);
width = 748;
}
);
rightMetricsKey = "=|";
unicode = 11AA2;
script = soyombo;
category = Symbol;
subCategory = Other;
},
{
glyphname = "gFinal-soyo";
production = uni11A8A;
lastChange = "2019-11-07 14:14:52 +0000";
layers = (
{
anchors = (
{
name = _bottom;
position = "{-148, -11}";
},
{
name = bottom;
position = "{-148, 0}";
}
);
layerId = "BAFE8A66-C264-402A-9333-50E528A5D43A";
paths = (
{
closed = 1;
nodes = (
"-361 170 OFFCURVE",
"-377 152 OFFCURVE",
"-377 116 CURVE SMOOTH",
"-377 38 OFFCURVE",
"-299 0 OFFCURVE",
"-141 0 CURVE SMOOTH",
"-123 0 LINE",
"-123 44 LINE",
"-141 44 LINE SMOOTH",
"-258 44 OFFCURVE",
"-303 71 OFFCURVE",
"-303 120 CURVE SMOOTH",
"-303 134 OFFCURVE",
"-300 150 OFFCURVE",
"-294 163 CURVE",
"-303 168 OFFCURVE",
"-314 170 OFFCURVE",
"-325 170 CURVE SMOOTH"
);
}
);
width = 0;
}
);
unicode = 11A8A;
script = soyombo;
category = Mark;
subCategory = Nonspacing;
},
{
glyphname = "kFinal-soyo";
production = uni11A8B;
lastChange = "2019-11-07 14:15:06 +0000";
layers = (
{
anchors = (
{
name = _bottom;
position = "{-148, 0}";
},
{
name = bottom;
position = "{-148, 0}";
}
);
layerId = "BAFE8A66-C264-402A-9333-50E528A5D43A";
paths = (
{
closed = 1;
nodes = (
"-314 0 OFFCURVE",
"-303 2 OFFCURVE",
"-294 7 CURVE",
"-300 20 OFFCURVE",
"-303 36 OFFCURVE",
"-303 50 CURVE SMOOTH",
"-303 99 OFFCURVE",
"-258 126 OFFCURVE",
"-141 126 CURVE SMOOTH",
"-123 126 LINE",
"-123 170 LINE",
"-141 170 LINE SMOOTH",
"-299 170 OFFCURVE",
"-377 132 OFFCURVE",
"-377 54 CURVE SMOOTH",
"-377 18 OFFCURVE",
"-361 0 OFFCURVE",
"-325 0 CURVE SMOOTH"
);
}
);
width = 0;
}
);
unicode = 11A8B;
script = soyombo;
category = Mark;
subCategory = Nonspacing;
},
{
glyphname = "ngFinal-soyo";
production = uni11A8C;
lastChange = "2019-11-07 14:15:20 +0000";
layers = (
{
anchors = (
{
name = _bottom;
position = "{-148, 0}";
},
{
name = bottom;
position = "{-148, 0}";
}
);
layerId = "BAFE8A66-C264-402A-9333-50E528A5D43A";
paths = (
{
closed = 1;
nodes = (
"-237 66 LINE",
"-123 66 LINE",
"-123 110 LINE",
"-237 110 LINE"
);
},
{
closed = 1;
nodes = (
"-296 67 LINE",
"-220 0 LINE",
"-220 175 LINE",
"-296 175 LINE"
);
}
);
width = 0;
}
);
unicode = 11A8C;
script = soyombo;
category = Mark;
subCategory = Nonspacing;
},
{
glyphname = "dFinal-soyo";
production = uni11A8D;
lastChange = "2019-11-07 14:15:39 +0000";
layers = (
{
anchors = (
{
name = _bottom;
position = "{-148, 0}";
},
{
name = bottom;
position = "{-148, 0}";
}
);
layerId = "BAFE8A66-C264-402A-9333-50E528A5D43A";
paths = (
{
closed = 1;
nodes = (
"-276 0 OFFCURVE",
"-253 10 OFFCURVE",
"-239 27 CURVE",
"-241 35 LINE",
"-284 43 OFFCURVE",
"-303 59 OFFCURVE",
"-303 79 CURVE SMOOTH",
"-303 97 OFFCURVE",
"-289 112 OFFCURVE",
"-253 112 CURVE SMOOTH",
"-210 112 OFFCURVE",
"-165 91 OFFCURVE",
"-123 45 CURVE",
"-123 100 LINE",
"-170 152 OFFCURVE",
"-218 170 OFFCURVE",
"-267 170 CURVE SMOOTH",
"-337 170 OFFCURVE",
"-377 134 OFFCURVE",
"-377 78 CURVE SMOOTH",
"-377 28 OFFCURVE",
"-345 0 OFFCURVE",
"-302 0 CURVE SMOOTH"
);
}
);
width = 0;
}
);
unicode = 11A8D;
script = soyombo;
category = Mark;
subCategory = Nonspacing;
},
{
glyphname = "nFinal-soyo";
production = uni11A8E;
lastChange = "2019-11-07 14:15:50 +0000";
layers = (
{
anchors = (
{
name = _bottom;
position = "{-148, 0}";
},
{
name = bottom;
position = "{-148, 0}";
}
);
layerId = "BAFE8A66-C264-402A-9333-50E528A5D43A";
paths = (
{
closed = 1;
nodes = (
"-227 66 LINE",
"-123 66 LINE",
"-123 110 LINE",
"-227 110 LINE"
);
},
{
closed = 1;
nodes = (
"-327 175 OFFCURVE",
"-377 148 OFFCURVE",
"-377 87 CURVE SMOOTH",
"-377 26 OFFCURVE",
"-327 0 OFFCURVE",
"-254 0 CURVE SMOOTH",
"-210 0 LINE",
"-210 175 LINE",
"-254 175 LINE SMOOTH"
);
},
{
closed = 1;
nodes = (
"-310 43 OFFCURVE",
"-333 57 OFFCURVE",
"-333 87 CURVE SMOOTH",
"-333 117 OFFCURVE",
"-310 132 OFFCURVE",
"-254 132 CURVE",
"-254 43 LINE"
);
}
);
width = 0;
}
);
unicode = 11A8E;
script = soyombo;
category = Mark;
subCategory = Nonspacing;
},
{
glyphname = "bFinal-soyo";
production = uni11A8F;
lastChange = "2019-11-07 14:15:57 +0000";
layers = (
{
anchors = (
{
name = _bottom;
position = "{-148, 0}";
},
{
name = bottom;
position = "{-148, 0}";
}
);
layerId = "BAFE8A66-C264-402A-9333-50E528A5D43A";
paths = (
{
closed = 1;
nodes = (
"-345 170 OFFCURVE",
"-377 142 OFFCURVE",
"-377 92 CURVE SMOOTH",
"-377 36 OFFCURVE",
"-337 0 OFFCURVE",
"-267 0 CURVE SMOOTH",
"-218 0 OFFCURVE",
"-170 18 OFFCURVE",
"-123 70 CURVE",
"-123 125 LINE",
"-165 79 OFFCURVE",
"-210 58 OFFCURVE",
"-253 58 CURVE SMOOTH",
"-289 58 OFFCURVE",
"-303 73 OFFCURVE",
"-303 91 CURVE SMOOTH",
"-303 111 OFFCURVE",
"-284 127 OFFCURVE",
"-241 135 CURVE",
"-239 143 LINE",
"-253 160 OFFCURVE",
"-276 170 OFFCURVE",
"-302 170 CURVE SMOOTH"
);
}
);
width = 0;
}
);
unicode = 11A8F;
script = soyombo;
category = Mark;
subCategory = Nonspacing;
},
{
glyphname = "mFinal-soyo";
production = uni11A90;
lastChange = "2019-11-07 14:16:09 +0000";
layers = (
{
anchors = (
{
name = _bottom;
position = "{-148, 0}";
},
{
name = bottom;
position = "{-148, 0}";
}
);
layerId = "BAFE8A66-C264-402A-9333-50E528A5D43A";
paths = (
{
closed = 1;
nodes = (
"-340 180 OFFCURVE",
"-377 142 OFFCURVE",
"-377 87 CURVE SMOOTH",
"-377 32 OFFCURVE",
"-340 -5 OFFCURVE",
"-285 -5 CURVE SMOOTH",
"-230 -5 OFFCURVE",
"-193 32 OFFCURVE",
"-193 87 CURVE SMOOTH",
"-193 142 OFFCURVE",
"-230 180 OFFCURVE",
"-285 180 CURVE SMOOTH"
);
},
{
closed = 1;
nodes = (
"-314 39 OFFCURVE",
"-333 58 OFFCURVE",
"-333 87 CURVE SMOOTH",
"-333 117 OFFCURVE",
"-314 136 OFFCURVE",
"-285 136 CURVE SMOOTH",
"-256 136 OFFCURVE",
"-237 117 OFFCURVE",
"-237 87 CURVE SMOOTH",
"-237 58 OFFCURVE",
"-256 39 OFFCURVE",
"-285 39 CURVE SMOOTH"
);
}
);
width = 0;
}
);
unicode = 11A90;
script = soyombo;
category = Mark;
subCategory = Nonspacing;
},
{
glyphname = "rFinal-soyo";
production = uni11A91;
lastChange = "2019-11-07 14:16:24 +0000";
layers = (
{
anchors = (
{
name = _bottom;
position = "{-148, 0}";
},
{
name = bottom;
position = "{-148, 0}";
}
);
layerId = "BAFE8A66-C264-402A-9333-50E528A5D43A";
paths = (
{
closed = 1;
nodes = (
"-327 76 LINE",
"-148 130 LINE",
"-123 130 LINE",
"-123 175 LINE",
"-148 175 LINE",
"-327 121 LINE"
);
},
{
closed = 1;
nodes = (
"-327 54 LINE",
"-148 0 LINE",
"-123 0 LINE",
"-123 45 LINE",
"-148 45 LINE",
"-327 99 LINE"
);
}
);
width = 0;
}
);
unicode = 11A91;
script = soyombo;
category = Mark;
subCategory = Nonspacing;
},
{
glyphname = "lFinal-soyo";
production = uni11A92;
lastChange = "2019-11-07 14:17:01 +0000";
layers = (
{
anchors = (
{
name = _bottom;
position = "{-148, 0}";
},
{
name = bottom;
position = "{-148, 0}";
}
);
layerId = "BAFE8A66-C264-402A-9333-50E528A5D43A";
paths = (
{
closed = 1;
nodes = (
"-377 131 LINE",
"-123 131 LINE",
"-123 175 LINE",
"-377 175 LINE"
);
},
{
closed = 1;
nodes = (
"-377 0 LINE",
"-123 0 LINE",
"-123 44 LINE",
"-377 44 LINE"
);
},
{
closed = 1;
nodes = (
"-284 16 LINE",
"-240 16 LINE",
"-240 150 LINE",
"-284 150 LINE"
);
}
);
width = 0;
}
);
unicode = 11A92;
script = soyombo;
category = Mark;
subCategory = Nonspacing;
},
{
glyphname = "shFinal-soyo";
production = uni11A93;
lastChange = "2019-11-07 14:17:07 +0000";
layers = (
{
anchors = (
{
name = _bottom;
position = "{-148, 0}";
},
{
name = bottom;
position = "{-148, 0}";
}
);
layerId = "BAFE8A66-C264-402A-9333-50E528A5D43A";
paths = (
{
closed = 1;
nodes = (
"-377 0 LINE",
"-148 130 LINE",
"-123 130 LINE",
"-123 175 LINE",
"-148 175 LINE",
"-377 45 LINE"
);
},
{
closed = 1;
nodes = (
"-377 130 LINE",
"-148 0 LINE",
"-123 0 LINE",
"-123 45 LINE",
"-148 45 LINE",
"-377 175 LINE"
);
}
);
width = 0;
}
);
unicode = 11A93;
script = soyombo;
category = Mark;
subCategory = Nonspacing;
},
{
glyphname = "sFinal-soyo";
production = uni11A94;
lastChange = "2019-11-07 14:17:11 +0000";
layers = (
{
anchors = (
{
name = _bottom;
position = "{-148, 0}";
},
{
name = bottom;
position = "{-148, 0}";
}
);
layerId = "BAFE8A66-C264-402A-9333-50E528A5D43A";
paths = (
{
closed = 1;
nodes = (
"-219 106 LINE",
"-123 133 LINE",
"-123 175 LINE",
"-248 140 LINE"
);
},
{
closed = 1;
nodes = (
"-228 0 OFFCURVE",
"-194 35 OFFCURVE",
"-194 83 CURVE SMOOTH",
"-194 97 OFFCURVE",
"-197 114 OFFCURVE",
"-204 130 CURVE",
"-248 140 LINE",
"-241 124 OFFCURVE",
"-238 109 OFFCURVE",
"-238 96 CURVE SMOOTH",
"-238 64 OFFCURVE",
"-250 44 OFFCURVE",
"-279 44 CURVE SMOOTH",
"-312 44 OFFCURVE",
"-333 72 OFFCURVE",
"-333 118 CURVE",
"-377 118 LINE",
"-377 48 OFFCURVE",
"-338 0 OFFCURVE",
"-278 0 CURVE SMOOTH"
);
}
);
width = 0;
}
);
unicode = 11A94;
script = soyombo;
category = Mark;
subCategory = Nonspacing;
},
{
glyphname = "aFinal-soyo";
production = uni11A95;
lastChange = "2019-11-07 14:17:41 +0000";
layers = (
{
anchors = (
{
name = _bottom;
position = "{-148, 0}";
},
{
name = bottom;
position = "{-148, 0}";
}
);
layerId = "BAFE8A66-C264-402A-9333-50E528A5D43A";
paths = (
{
closed = 1;
nodes = (
"-69 149 LINE",
"30 98 LINE",
"30 136 LINE",
"-69 222 LINE"
);
}
);
width = 0;
}
);
unicode = 11A95;
script = soyombo;
category = Mark;
subCategory = Nonspacing;
},
{
glyphname = "iMatra-soyo";
production = uni11A51;
lastChange = "2019-11-07 14:18:23 +0000";
layers = (
{
anchors = (
{
name = _top;
position = "{-320, 714}";
},
{
name = top;
position = "{-320, 886}";
}
);
layerId = "BAFE8A66-C264-402A-9333-50E528A5D43A";
paths = (
{
closed = 1;
nodes = (
"-446 886 OFFCURVE",
"-514 836 OFFCURVE",
"-554 744 CURVE",
"-550 740 LINE",
"-505 785 OFFCURVE",
"-427 806 OFFCURVE",
"-319 806 CURVE SMOOTH",
"-211 806 OFFCURVE",
"-133 785 OFFCURVE",
"-88 740 CURVE",
"-84 744 LINE",
"-124 836 OFFCURVE",
"-192 886 OFFCURVE",
"-319 886 CURVE SMOOTH"
);
}
);
width = 0;
}
);
unicode = 11A51;
script = soyombo;
category = Mark;
subCategory = Nonspacing;
},
{
glyphname = "ueMatra-soyo";
production = uni11A52;
lastChange = "2019-11-07 14:18:33 +0000";
layers = (
{
anchors = (
{
name = _bottom;
position = "{-148, 0}";
},
{
name = bottom;
position = "{-148, 0}";
}
);
layerId = "BAFE8A66-C264-402A-9333-50E528A5D43A";
paths = (
{
closed = 1;
nodes = (
"-315 170 OFFCURVE",
"-335 165 OFFCURVE",
"-351 156 CURVE",
"-334 117 LINE",
"-324 123 OFFCURVE",
"-312 126 OFFCURVE",
"-301 126 CURVE SMOOTH",
"-277 126 OFFCURVE",
"-262 110 OFFCURVE",
"-262 86 CURVE SMOOTH",
"-262 61 OFFCURVE",
"-283 46 OFFCURVE",
"-307 46 CURVE SMOOTH",
"-372 46 OFFCURVE",
"-448 141 OFFCURVE",
"-525 141 CURVE SMOOTH",
"-536 141 OFFCURVE",
"-547 139 OFFCURVE",
"-555 136 CURVE",
"-555 94 LINE",
"-549 96 OFFCURVE",
"-542 97 OFFCURVE",
"-535 97 CURVE SMOOTH",
"-456 97 OFFCURVE",
"-414 -13 OFFCURVE",
"-310 -13 CURVE SMOOTH",
"-251 -13 OFFCURVE",
"-198 17 OFFCURVE",
"-198 80 CURVE SMOOTH",
"-198 138 OFFCURVE",
"-243 170 OFFCURVE",
"-297 170 CURVE SMOOTH"
);
}
);
width = 0;
}
);
unicode = 11A52;
script = soyombo;
category = Mark;
subCategory = Nonspacing;
},
{
glyphname = "uMatra-soyo";
production = uni11A53;
lastChange = "2019-11-07 14:18:39 +0000";
layers = (
{
anchors = (
{
name = _bottom;
position = "{-148, 0}";
},
{
name = bottom;
position = "{-148, 0}";
}
);
layerId = "BAFE8A66-C264-402A-9333-50E528A5D43A";
paths = (
{
closed = 1;
nodes = (
"-259 27 LINE",
"-198 27 LINE",
"-268 160 LINE",
"-329 160 LINE"
);
},
{
closed = 1;
nodes = (
"-555 27 LINE",
"-242 27 LINE",
"-242 81 LINE",
"-555 81 LINE"
);
}
);
width = 0;
}
);
unicode = 11A53;
script = soyombo;
category = Mark;
subCategory = Nonspacing;
},
{
glyphname = "eMatra-soyo";
production = uni11A54;
lastChange = "2019-11-07 14:18:48 +0000";
layers = (
{
anchors = (
{
name = _top;
position = "{-320, 714}";
},
{
name = top;
position = "{-320, 886}";
}
);
layerId = "BAFE8A66-C264-402A-9333-50E528A5D43A";
paths = (
{
closed = 1;
nodes = (
"-554 806 LINE",
"-80 806 LINE",
"-80 708 LINE",
"6 754 LINE",
"-44 688 LINE",
"-44 886 LINE",
"-554 886 LINE"
);
}
);
width = 0;
}
);
unicode = 11A54;
script = soyombo;
category = Mark;
subCategory = Nonspacing;
},
{
glyphname = "oMatra-soyo";
production = uni11A55;
lastChange = "2019-11-07 14:18:56 +0000";
layers = (
{
anchors = (
{
name = _top;
position = "{-320, 714}";
},
{
name = top;
position = "{-320, 886}";
}
);
layerId = "BAFE8A66-C264-402A-9333-50E528A5D43A";
paths = (
{
closed = 1;
nodes = (
"-554 806 LINE",
"-84 806 LINE",
"-84 886 LINE",
"-554 886 LINE"
);
},
{
closed = 1;
nodes = (
"-345 710 LINE",
"-293 710 LINE",
"-293 831 LINE",
"-345 831 LINE"
);
}
);
width = 0;
}
);
unicode = 11A55;
script = soyombo;
category = Mark;
subCategory = Nonspacing;
},
{
glyphname = "oeMatra-soyo";
production = uni11A56;
lastChange = "2019-11-07 14:19:10 +0000";
layers = (
{
anchors = (
{
name = _top;
position = "{-320, 714}";
},
{
name = top;
position = "{-320, 886}";
}
);
layerId = "BAFE8A66-C264-402A-9333-50E528A5D43A";
paths = (
{
closed = 1;
nodes = (
"-316 740 LINE",
"-301 789 OFFCURVE",
"-278 806 OFFCURVE",
"-233 806 CURVE SMOOTH",
"-184 806 LINE SMOOTH",
"-113 806 OFFCURVE",
"-84 837 OFFCURVE",
"-84 926 CURVE",
"-90 926 LINE",
"-104 899 OFFCURVE",
"-129 886 OFFCURVE",
"-164 886 CURVE SMOOTH",
"-235 886 LINE SMOOTH",
"-284 886 OFFCURVE",
"-307 867 OFFCURVE",
"-319 826 CURVE",
"-331 867 OFFCURVE",
"-354 886 OFFCURVE",
"-403 886 CURVE SMOOTH",
"-474 886 LINE SMOOTH",
"-509 886 OFFCURVE",
"-534 899 OFFCURVE",
"-548 926 CURVE",
"-554 926 LINE",
"-554 837 OFFCURVE",
"-525 806 OFFCURVE",
"-454 806 CURVE SMOOTH",
"-405 806 LINE SMOOTH",
"-360 806 OFFCURVE",
"-337 789 OFFCURVE",
"-322 740 CURVE"
);
}
);
width = 0;
}
);
unicode = 11A56;
script = soyombo;
category = Mark;
subCategory = Nonspacing;
},
{
glyphname = "aiMatra-soyo";
production = uni11A57;
lastChange = "2019-11-06 20:13:54 +0000";
layers = (
{
layerId = "BAFE8A66-C264-402A-9333-50E528A5D43A";
paths = (
{
closed = 1;
nodes = (
"-84 629 LINE",
"70 629 LINE",
"155 708 LINE",
"155 714 LINE",
"-84 714 LINE"
);
},
{
closed = 1;
nodes = (
"-84 467 LINE",
"-26 467 LINE",
"155 708 LINE",
"97 708 LINE"
);
},
{
closed = 1;
nodes = (
"71 345 LINE",
"149 385 LINE",
"-6 507 LINE",
"-84 467 LINE"
);
},
{
closed = 1;
nodes = (
"-90 238 LINE",
"-19 238 LINE",
"149 385 LINE",
"78 385 LINE"
);
},
{
closed = 1;
nodes = (
"-26 163 OFFCURVE",
"15 70 OFFCURVE",
"27 -20 CURVE",
"153 -20 LINE",
"119 91 OFFCURVE",
"41 203 OFFCURVE",
"-32 254 CURVE",
"-90 238 LINE"
);
}
);
width = 195;
}
);
unicode = 11A57;
script = soyombo;
category = Mark;
subCategory = Spacing;
},
{
glyphname = "auMatra-soyo";
production = uni11A58;
lastChange = "2019-11-06 20:13:54 +0000";
layers = (
{
layerId = "BAFE8A66-C264-402A-9333-50E528A5D43A";
paths = (
{
closed = 1;
nodes = (
"-26 147 OFFCURVE",
"15 62 OFFCURVE",
"27 -20 CURVE",
"153 -20 LINE",
"119 83 OFFCURVE",
"41 183 OFFCURVE",
"-32 230 CURVE",
"-90 214 LINE"
);
},
{
closed = 1;
nodes = (
"-90 674 LINE",
"8 674 OFFCURVE",
"58 645 OFFCURVE",
"58 584 CURVE SMOOTH",
"58 523 OFFCURVE",
"8 494 OFFCURVE",
"-90 494 CURVE",
"-90 454 LINE",
"39 454 OFFCURVE",
"149 493 OFFCURVE",
"149 584 CURVE SMOOTH",
"149 675 OFFCURVE",
"39 714 OFFCURVE",
"-90 714 CURVE"
);
},
{
closed = 1;
nodes = (
"-90 434 LINE",
"8 434 OFFCURVE",
"58 405 OFFCURVE",
"58 344 CURVE SMOOTH",
"58 283 OFFCURVE",
"8 254 OFFCURVE",
"-90 254 CURVE",
"-90 214 LINE",
"39 214 OFFCURVE",
"149 253 OFFCURVE",
"149 344 CURVE SMOOTH",
"149 435 OFFCURVE",
"39 474 OFFCURVE",
"-90 474 CURVE"
);
}
);
width = 195;
}
);
unicode = 11A58;
script = soyombo;
category = Mark;
subCategory = Spacing;
},
{
glyphname = "rVocalicMatra-soyo";
production = uni11A59;
lastChange = "2019-11-07 14:19:34 +0000";
layers = (
{
anchors = (
{
name = _bottom;
position = "{-148, 0}";
},
{
name = bottom;
position = "{-148, 0}";
}
);
layerId = "BAFE8A66-C264-402A-9333-50E528A5D43A";
paths = (
{
closed = 1;
nodes = (
"-407 -3 OFFCURVE",
"-372 50 OFFCURVE",
"-366 109 CURVE",
"-387 109 LINE",
"-381 50 OFFCURVE",
"-346 -3 OFFCURVE",
"-285 -3 CURVE SMOOTH",
"-229 -3 OFFCURVE",
"-198 42 OFFCURVE",
"-198 95 CURVE SMOOTH",
"-198 117 OFFCURVE",
"-203 141 OFFCURVE",
"-213 160 CURVE",
"-248 146 LINE",
"-244 135 OFFCURVE",
"-242 122 OFFCURVE",
"-242 110 CURVE SMOOTH",
"-242 78 OFFCURVE",
"-259 61 OFFCURVE",
"-290 61 CURVE SMOOTH",
"-329 61 OFFCURVE",
"-341 90 OFFCURVE",
"-354 146 CURVE",
"-399 146 LINE",
"-412 94 OFFCURVE",
"-423 61 OFFCURVE",
"-463 61 CURVE SMOOTH",
"-493 61 OFFCURVE",
"-511 78 OFFCURVE",
"-511 110 CURVE SMOOTH",
"-511 122 OFFCURVE",
"-509 135 OFFCURVE",
"-505 146 CURVE",
"-540 160 LINE",
"-550 141 OFFCURVE",
"-555 117 OFFCURVE",
"-555 95 CURVE SMOOTH",
"-555 42 OFFCURVE",
"-524 -3 OFFCURVE",
"-468 -3 CURVE SMOOTH"
);
}
);
width = 0;
}
);
unicode = 11A59;
script = soyombo;
category = Mark;
subCategory = Nonspacing;
},
{
glyphname = "lVocalicMatra-soyo";
production = uni11A5A;
lastChange = "2019-11-07 14:19:41 +0000";
layers = (
{
anchors = (
{
name = _bottom;
position = "{-148, 0}";
},
{
name = bottom;
position = "{-148, 0}";
}
);
layerId = "BAFE8A66-C264-402A-9333-50E528A5D43A";
paths = (
{
closed = 1;
nodes = (
"-505 11 LINE",
"-509 22 OFFCURVE",
"-511 35 OFFCURVE",
"-511 47 CURVE SMOOTH",
"-511 79 OFFCURVE",
"-494 96 OFFCURVE",
"-463 96 CURVE SMOOTH",
"-424 96 OFFCURVE",
"-412 67 OFFCURVE",
"-399 11 CURVE",
"-354 11 LINE",
"-341 63 OFFCURVE",
"-330 96 OFFCURVE",
"-290 96 CURVE SMOOTH",
"-260 96 OFFCURVE",
"-242 79 OFFCURVE",
"-242 47 CURVE SMOOTH",
"-242 35 OFFCURVE",
"-244 22 OFFCURVE",
"-248 11 CURVE",
"-213 -3 LINE",
"-203 16 OFFCURVE",
"-198 40 OFFCURVE",
"-198 62 CURVE SMOOTH",
"-198 115 OFFCURVE",
"-229 160 OFFCURVE",
"-285 160 CURVE SMOOTH",
"-346 160 OFFCURVE",
"-381 107 OFFCURVE",
"-387 48 CURVE",
"-366 48 LINE",
"-372 107 OFFCURVE",
"-407 160 OFFCURVE",
"-468 160 CURVE SMOOTH",
"-524 160 OFFCURVE",
"-555 115 OFFCURVE",
"-555 62 CURVE SMOOTH",
"-555 40 OFFCURVE",
"-550 16 OFFCURVE",
"-540 -3 CURVE"
);
}
);
width = 0;
}
);
unicode = 11A5A;
script = soyombo;
category = Mark;
subCategory = Nonspacing;
},
{
glyphname = "vowelLength-soyo";
production = uni11A5B;
lastChange = "2019-11-07 14:20:20 +0000";
layers = (
{
anchors = (
{
name = _bottom;
position = "{-148, 0}";
},
{
name = bottom;
position = "{-148, 0}";
}
);
layerId = "BAFE8A66-C264-402A-9333-50E528A5D43A";
paths = (
{
closed = 1;
nodes = (
"-148 -10 LINE",
"30 -102 LINE",
"30 -64 LINE",
"-148 91 LINE"
);
}
);
width = 0;
}
);
unicode = 11A5B;
script = soyombo;
category = Mark;
subCategory = Nonspacing;
},
{
glyphname = "anusvara-soyo";
production = uni11A96;
lastChange = "2019-11-07 14:21:14 +0000";
layers = (
{
anchors = (
{
name = _top;
position = "{-319, 714}";
}
);
layerId = "BAFE8A66-C264-402A-9333-50E528A5D43A";
paths = (
{
closed = 1;
nodes = (
"-264 756 OFFCURVE",
"-219 801 OFFCURVE",
"-219 856 CURVE SMOOTH",
"-219 911 OFFCURVE",
"-264 956 OFFCURVE",
"-319 956 CURVE SMOOTH",
"-374 956 OFFCURVE",
"-419 911 OFFCURVE",
"-419 856 CURVE SMOOTH",
"-419 801 OFFCURVE",
"-374 756 OFFCURVE",
"-319 756 CURVE SMOOTH"
);
},
{
closed = 1;
nodes = (
"-350 801 OFFCURVE",
"-374 825 OFFCURVE",
"-374 856 CURVE SMOOTH",
"-374 887 OFFCURVE",
"-350 911 OFFCURVE",
"-319 911 CURVE SMOOTH",
"-288 911 OFFCURVE",
"-264 887 OFFCURVE",
"-264 856 CURVE SMOOTH",
"-264 825 OFFCURVE",
"-288 801 OFFCURVE",
"-319 801 CURVE SMOOTH"
);
}
);
width = 0;
}
);
unicode = 11A96;
script = soyombo;
category = Mark;
subCategory = Nonspacing;
},
{
glyphname = "visagra-soyo";
production = uni11A97;
lastChange = "2019-11-06 20:13:54 +0000";
layers = (
{
layerId = "BAFE8A66-C264-402A-9333-50E528A5D43A";
paths = (
{
closed = 1;
nodes = (
"245 405 LINE",
"90 560 LINE",
"-65 405 LINE",
"90 250 LINE"
);
},
{
closed = 1;
nodes = (
"10 405 LINE",
"90 485 LINE",
"170 405 LINE",
"90 325 LINE"
);
},
{
closed = 1;
nodes = (
"244 714 LINE",
"-64 714 LINE",
"90 560 LINE"
);
},
{
closed = 1;
nodes = (
"245 95 LINE",
"90 250 LINE",
"-65 95 LINE",
"90 -60 LINE"
);
},
{
closed = 1;
nodes = (
"10 95 LINE",
"90 175 LINE",
"170 95 LINE",
"90 15 LINE"
);
}
);
width = 285;
}
);
unicode = 11A97;
script = soyombo;
category = Mark;
subCategory = Spacing;
},
{
glyphname = "subjoiner-soyo";
production = uni11A99;
lastChange = "2019-11-07 14:22:15 +0000";
layers = (
{
anchors = (
{
name = _bottom;
position = "{-213, 0}";
}
);
layerId = "BAFE8A66-C264-402A-9333-50E528A5D43A";
paths = (
{
closed = 1;
nodes = (
"-183 -204 LINE",
"-183 -114 LINE",
"-243 -114 LINE",
"-243 -204 LINE",
"-333 -204 LINE",
"-333 -264 LINE",
"-243 -264 LINE",
"-243 -354 LINE",
"-183 -354 LINE",
"-183 -264 LINE",
"-93 -264 LINE",
"-93 -204 LINE"
);
}
);
width = 0;
}
);
unicode = 11A99;
script = soyombo;
category = Mark;
subCategory = Nonspacing;
},
{
glyphname = "aSub-soyo";
lastChange = "2019-11-07 14:23:08 +0000";
layers = (
{
anchors = (
{
name = _bottom;
position = "{-168, 549}";
},
{
name = bottom;
position = "{-168, 65}";
}
);
layerId = "BAFE8A66-C264-402A-9333-50E528A5D43A";
paths = (
{
closed = 1;
nodes = (
"-168 402 LINE",
"-74 352 LINE",
"-74 549 LINE",
"-168 549 LINE"
);
},
{
closed = 1;
nodes = (
"-553 609 OFFCURVE",
"-586 581 OFFCURVE",
"-586 535 CURVE SMOOTH",
"-586 468 OFFCURVE",
"-519 433 OFFCURVE",
"-424 433 CURVE SMOOTH",
"-333 433 OFFCURVE",
"-263 462 OFFCURVE",
"-192 535 CURVE",
"-221 572 LINE",
"-275 528 OFFCURVE",
"-330 504 OFFCURVE",
"-395 504 CURVE SMOOTH",
"-447 504 OFFCURVE",
"-472 524 OFFCURVE",
"-472 553 CURVE SMOOTH",
"-472 567 OFFCURVE",
"-467 582 OFFCURVE",
"-457 591 CURVE",
"-467 602 OFFCURVE",
"-486 609 OFFCURVE",
"-510 609 CURVE SMOOTH"
);
},
{
closed = 1;
nodes = (
"-168 65 LINE",
"-74 15 LINE",
"-74 402 LINE",
"-168 402 LINE"
);
},
{
closed = 1;
nodes = (
"-397 373 OFFCURVE",
"-442 345 OFFCURVE",
"-474 286 CURVE",
"-439 265 LINE",
"-416 295 OFFCURVE",
"-386 309 OFFCURVE",
"-353 309 CURVE SMOOTH",
"-309 309 OFFCURVE",
"-286 283 OFFCURVE",
"-286 246 CURVE SMOOTH",
"-286 202 OFFCURVE",
"-318 176 OFFCURVE",
"-376 176 CURVE SMOOTH",
"-447 176 OFFCURVE",
"-509 213 OFFCURVE",
"-572 291 CURVE",
"-606 255 LINE",
"-527 151 OFFCURVE",
"-452 116 OFFCURVE",
"-369 116 CURVE SMOOTH",
"-274 116 OFFCURVE",
"-212 163 OFFCURVE",
"-212 250 CURVE SMOOTH",
"-212 327 OFFCURVE",
"-265 373 OFFCURVE",
"-337 373 CURVE SMOOTH"
);
}
);
width = 0;
}
);
script = soyombo;
category = Mark;
subCategory = Nonspacing;
},
{
glyphname = "kaSub-soyo";
lastChange = "2019-11-07 14:23:19 +0000";
layers = (
{
anchors = (
{
name = _bottom;
position = "{-148, 614}";
},
{
name = bottom;
position = "{-148, 256}";
}
);
layerId = "BAFE8A66-C264-402A-9333-50E528A5D43A";
paths = (
{
closed = 1;
nodes = (
"-148 256 LINE",
"-54 206 LINE",
"-54 714 LINE",
"-148 664 LINE"
);
},
{
closed = 1;
nodes = (
"-387 306 LINE",
"-293 256 LINE",
"-293 754 LINE",
"-387 754 LINE"
);
},
{
closed = 1;
nodes = (
"-319 443 LINE",
"-115 443 LINE",
"-115 493 LINE",
"-319 493 LINE"
);
},
{
closed = 1;
nodes = (
"-601 673 OFFCURVE",
"-626 634 OFFCURVE",
"-626 556 CURVE SMOOTH",
"-626 424 OFFCURVE",
"-536 357 OFFCURVE",
"-377 357 CURVE SMOOTH",
"-333 357 LINE",
"-333 407 LINE",
"-377 407 LINE SMOOTH",
"-480 407 OFFCURVE",
"-532 457 OFFCURVE",
"-532 550 CURVE SMOOTH",
"-532 593 OFFCURVE",
"-523 630 OFFCURVE",
"-502 661 CURVE",
"-516 669 OFFCURVE",
"-531 673 OFFCURVE",
"-547 673 CURVE SMOOTH"
);
}
);
width = 0;
}
);
script = soyombo;
category = Mark;
subCategory = Nonspacing;
},
{
glyphname = "khaSub-soyo";
lastChange = "2019-11-07 14:23:27 +0000";
layers = (
{
anchors = (
{
name = _bottom;
position = "{-148, 614}";
},
{
name = bottom;
position = "{-148, 256}";
}
);
layerId = "BAFE8A66-C264-402A-9333-50E528A5D43A";
paths = (
{
closed = 1;
nodes = (
"-148 256 LINE",
"-54 206 LINE",
"-54 714 LINE",
"-148 664 LINE"
);
},
{
closed = 1;
nodes = (
"-387 306 LINE",
"-293 256 LINE",
"-293 754 LINE",
"-387 754 LINE"
);
},
{
closed = 1;
nodes = (
"-319 456 LINE",
"-115 456 LINE",
"-115 506 LINE",
"-319 506 LINE"
);
},
{
closed = 1;
nodes = (
"-531 357 OFFCURVE",
"-516 361 OFFCURVE",
"-502 369 CURVE",
"-523 400 OFFCURVE",
"-532 437 OFFCURVE",
"-532 480 CURVE SMOOTH",
"-532 573 OFFCURVE",
"-480 623 OFFCURVE",
"-377 623 CURVE SMOOTH",
"-333 623 LINE",
"-333 673 LINE",
"-377 673 LINE SMOOTH",
"-536 673 OFFCURVE",
"-626 606 OFFCURVE",
"-626 474 CURVE SMOOTH",
"-626 396 OFFCURVE",
"-601 357 OFFCURVE",
"-547 357 CURVE SMOOTH"
);
}
);
width = 0;
}
);
script = soyombo;
category = Mark;
subCategory = Nonspacing;
},
{
glyphname = "gaSub-soyo";
lastChange = "2019-11-07 14:23:31 +0000";
layers = (
{
anchors = (
{
name = _bottom;
position = "{-148, 614}";
},
{
name = bottom;
position = "{-148, 246}";
}
);
layerId = "BAFE8A66-C264-402A-9333-50E528A5D43A";
paths = (
{
closed = 1;
nodes = (
"-148 246 LINE",
"-54 196 LINE",
"-54 714 LINE",
"-148 664 LINE"
);
},
{
closed = 1;
nodes = (
"-387 296 LINE",
"-293 246 LINE",
"-293 754 LINE",
"-387 754 LINE"
);
},
{
closed = 1;
nodes = (
"-579 479 LINE",
"-115 479 LINE",
"-115 529 LINE",
"-579 529 LINE"
);
},
{
closed = 1;
nodes = (
"-593 631 OFFCURVE",
"-626 585 OFFCURVE",
"-626 504 CURVE SMOOTH",
"-626 423 OFFCURVE",
"-593 377 OFFCURVE",
"-532 342 CURVE",
"-532 666 LINE"
);
}
);
width = 0;
}
);
script = soyombo;
category = Mark;
subCategory = Nonspacing;
},
{
glyphname = "ghaSub-soyo";
lastChange = "2019-11-07 14:23:37 +0000";
layers = (
{
anchors = (
{
name = _bottom;
position = "{-148, 614}";
},
{
name = bottom;
position = "{-148, 246}";
}
);
layerId = "BAFE8A66-C264-402A-9333-50E528A5D43A";
paths = (
{
closed = 1;
nodes = (
"-148 246 LINE",
"-54 196 LINE",
"-54 714 LINE",
"-148 664 LINE"
);
},
{
closed = 1;
nodes = (
"-387 296 LINE",
"-293 246 LINE",
"-293 754 LINE",
"-387 754 LINE"
);
},
{
closed = 1;
nodes = (
"-529 479 LINE",
"-115 479 LINE",
"-115 529 LINE",
"-529 529 LINE"
);
},
{
closed = 1;
nodes = (
"-626 634 LINE",
"-579 609 OFFCURVE",
"-556 576 OFFCURVE",
"-556 504 CURVE SMOOTH",
"-556 432 OFFCURVE",
"-579 399 OFFCURVE",
"-626 374 CURVE",
"-616 342 LINE",
"-530 368 OFFCURVE",
"-482 414 OFFCURVE",
"-482 504 CURVE SMOOTH",
"-482 595 OFFCURVE",
"-530 640 OFFCURVE",
"-616 666 CURVE"
);
}
);
width = 0;
}
);
script = soyombo;
category = Mark;
subCategory = Nonspacing;
},
{
glyphname = "ngaSub-soyo";
lastChange = "2019-11-07 14:23:45 +0000";
layers = (
{
anchors = (
{
name = _bottom;
position = "{-148, 614}";
},
{
name = bottom;
position = "{-148, 246}";
}
);
layerId = "BAFE8A66-C264-402A-9333-50E528A5D43A";
paths = (
{
closed = 1;
nodes = (
"-148 246 LINE",
"-54 196 LINE",
"-54 714 LINE",
"-148 664 LINE"
);
},
{
closed = 1;
nodes = (
"-387 296 LINE",
"-293 246 LINE",
"-293 754 LINE",
"-387 754 LINE"
);
},
{
closed = 1;
nodes = (
"-579 479 LINE",
"-115 479 LINE",
"-115 529 LINE",
"-579 529 LINE"
);
},
{
closed = 1;
nodes = (
"-626 392 LINE",
"-532 342 LINE",
"-532 666 LINE",
"-626 616 LINE"
);
}
);
width = 0;
}
);
script = soyombo;
category = Mark;
subCategory = Nonspacing;
},
{
glyphname = "caSub-soyo";
lastChange = "2019-11-07 14:24:06 +0000";
layers = (
{
anchors = (
{
name = _bottom;
position = "{-148, 714}";
},
{
name = bottom;
position = "{-148, 324}";
}
);
layerId = "BAFE8A66-C264-402A-9333-50E528A5D43A";
paths = (
{
closed = 1;
nodes = (
"-148 324 LINE",
"-54 274 LINE",
"-54 714 LINE",
"-148 714 LINE"
);
},
{
closed = 1;
nodes = (
"-390 667 LINE",
"-195 472 LINE",
"-148 519 LINE",
"-343 714 LINE"
);
},
{
closed = 1;
nodes = (
"-148 519 LINE",
"-195 566 LINE",
"-390 371 LINE",
"-343 324 LINE"
);
},
{
closed = 1;
nodes = (
"-296 371 LINE",
"-491 566 LINE",
"-538 519 LINE",
"-343 324 LINE"
);
}
);
width = 0;
}
);
script = soyombo;
category = Mark;
subCategory = Nonspacing;
},
{
glyphname = "chaSub-soyo";
lastChange = "2019-11-07 14:24:22 +0000";
layers = (
{
anchors = (
{
name = _bottom;
position = "{-148, 714}";
},
{
name = bottom;
position = "{-148, 364}";
}
);
layerId = "BAFE8A66-C264-402A-9333-50E528A5D43A";
paths = (
{
closed = 1;
nodes = (
"-148 364 LINE",
"-54 314 LINE",
"-54 714 LINE",
"-148 714 LINE"
);
},
{
closed = 1;
nodes = (
"-370 667 LINE",
"-195 492 LINE",
"-148 539 LINE",
"-323 714 LINE"
);
},
{
closed = 1;
nodes = (
"-148 539 LINE",
"-195 586 LINE",
"-370 411 LINE",
"-323 364 LINE"
);
},
{
closed = 1;
nodes = (
"-578 459 LINE",
"-531 412 LINE",
"-276 667 LINE",
"-323 714 LINE"
);
},
{
closed = 1;
nodes = (
"-276 411 LINE",
"-531 666 LINE",
"-578 619 LINE",
"-323 364 LINE"
);
}
);
width = 0;
}
);
script = soyombo;
category = Mark;
subCategory = Nonspacing;
},
{
glyphname = "jaSub-soyo";
lastChange = "2019-11-07 14:24:32 +0000";
layers = (
{
anchors = (
{
name = _bottom;
position = "{-148, 714}";
},
{
name = bottom;
position = "{-148, 324}";
}
);
layerId = "BAFE8A66-C264-402A-9333-50E528A5D43A";
paths = (
{
closed = 1;
nodes = (
"-148 324 LINE",
"-54 274 LINE",
"-54 714 LINE",
"-148 714 LINE"
);
},
{
closed = 1;
nodes = (
"-148 519 LINE",
"-200 571 LINE",
"-395 376 LINE",
"-343 324 LINE"
);
},
{
closed = 1;
nodes = (
"-395 662 LINE",
"-200 467 LINE",
"-148 519 LINE",
"-343 714 LINE"
);
},
{
closed = 1;
nodes = (
"-538 519 LINE",
"-486 467 LINE",
"-291 662 LINE",
"-343 714 LINE"
);
}
);
width = 0;
}
);
script = soyombo;
category = Mark;
subCategory = Nonspacing;
},
{
glyphname = "jhaSub-soyo";
lastChange = "2019-11-07 14:24:43 +0000";
layers = (
{
anchors = (
{
name = _bottom;
position = "{-148, 714}";
},
{
name = bottom;
position = "{-148, 324}";
}
);
layerId = "BAFE8A66-C264-402A-9333-50E528A5D43A";
paths = (
{
closed = 1;
nodes = (
"-148 324 LINE",
"-54 274 LINE",
"-54 714 LINE",
"-148 714 LINE"
);
},
{
closed = 1;
nodes = (
"-148 519 LINE",
"-200 571 LINE",
"-395 376 LINE",
"-343 324 LINE"
);
},
{
closed = 1;
nodes = (
"-395 662 LINE",
"-200 467 LINE",
"-148 519 LINE",
"-343 714 LINE"
);
},
{
closed = 1;
nodes = (
"-538 519 LINE",
"-486 467 LINE",
"-291 662 LINE",
"-343 714 LINE"
);
},
{
closed = 1;
nodes = (
"-538 519 LINE",
"-472 519 LINE",
"-472 679 LINE",
"-538 714 LINE"
);
}
);
width = 0;
}
);
script = soyombo;
category = Mark;
subCategory = Nonspacing;
},
{
glyphname = "nyaSub-soyo";
lastChange = "2019-11-07 14:24:58 +0000";
layers = (
{
anchors = (
{
name = _bottom;
position = "{-148, 714}";
},
{
name = bottom;
position = "{-148, 324}";
}
);
layerId = "BAFE8A66-C264-402A-9333-50E528A5D43A";
paths = (
{
closed = 1;
nodes = (
"-148 324 LINE",
"-54 274 LINE",
"-54 714 LINE",
"-148 714 LINE"
);
},
{
closed = 1;
nodes = (
"-148 519 LINE",
"-193 564 LINE",
"-388 369 LINE",
"-343 324 LINE"
);
},
{
closed = 1;
nodes = (
"-388 669 LINE",
"-193 474 LINE",
"-148 519 LINE",
"-343 714 LINE"
);
},
{
closed = 1;
nodes = (
"-463 594 LINE",
"-419 549 LINE",
"-298 669 LINE",
"-343 714 LINE"
);
},
{
closed = 1;
nodes = (
"-298 369 LINE",
"-493 564 LINE",
"-538 519 LINE",
"-343 324 LINE"
);
},
{
closed = 1;
nodes = (
"-298 518 LINE",
"-419 638 LINE",
"-463 594 LINE",
"-343 473 LINE"
);
}
);
width = 0;
}
);
script = soyombo;
category = Mark;
subCategory = Nonspacing;
},
{
glyphname = "ttaSub-soyo";
lastChange = "2019-11-07 14:29:22 +0000";
layers = (
{
anchors = (
{
name = _bottom;
position = "{-118, 714}";
},
{
name = bottom;
position = "{-118, 226}";
}
);
layerId = "BAFE8A66-C264-402A-9333-50E528A5D43A";
paths = (
{
closed = 1;
nodes = (
"-118 226 LINE",
"-24 176 LINE",
"-24 714 LINE",
"-118 714 LINE"
);
},
{
closed = 1;
nodes = (
"-357 276 LINE",
"-263 226 LINE",
"-263 814 LINE",
"-357 814 LINE"
);
},
{
closed = 1;
nodes = (
"-357 549 LINE",
"-357 669 LINE",
"-469 609 LINE"
);
},
{
closed = 1;
nodes = (
"-357 429 LINE",
"-357 549 LINE",
"-469 489 LINE"
);
}
);
width = 0;
}
);
script = soyombo;
category = Mark;
subCategory = Nonspacing;
},
{
glyphname = "tthaSub-soyo";
lastChange = "2019-11-07 14:30:41 +0000";
layers = (
{
anchors = (
{
name = _bottom;
position = "{-118, 714}";
},
{
name = bottom;
position = "{-118, 226}";
}
);
layerId = "BAFE8A66-C264-402A-9333-50E528A5D43A";
paths = (
{
closed = 1;
nodes = (
"-118 226 LINE",
"-24 176 LINE",
"-24 714 LINE",
"-118 714 LINE"
);
},
{
closed = 1;
nodes = (
"-357 276 LINE",
"-263 226 LINE",
"-263 814 LINE",
"-357 814 LINE"
);
},
{
closed = 1;
nodes = (
"-357 549 LINE",
"-357 669 LINE",
"-469 609 LINE"
);
},
{
closed = 1;
nodes = (
"-357 429 LINE",
"-357 549 LINE",
"-469 489 LINE"
);
},
{
closed = 1;
nodes = (
"-263 609 LINE",
"-263 489 LINE",
"-151 549 LINE"
);
}
);
width = 0;
}
);
script = soyombo;
category = Mark;
subCategory = Nonspacing;
},
{
glyphname = "ddaSub-soyo";
lastChange = "2019-11-07 14:32:51 +0000";
layers = (
{
anchors = (
{
name = _bottom;
position = "{-118, 714}";
},
{
name = bottom;
position = "{-118, 226}";
}
);
layerId = "BAFE8A66-C264-402A-9333-50E528A5D43A";
paths = (
{
closed = 1;
nodes = (
"-118 226 LINE",
"-24 176 LINE",
"-24 714 LINE",
"-118 714 LINE"
);
},
{
closed = 1;
nodes = (
"-357 276 LINE",
"-263 226 LINE",
"-263 814 LINE",
"-357 814 LINE"
);
},
{
closed = 1;
nodes = (
"-357 489 LINE",
"-357 609 LINE",
"-469 549 LINE"
);
},
{
closed = 1;
nodes = (
"-99 524 LINE",
"-85 524 LINE",
"-85 574 LINE",
"-99 574 LINE"
);
}
);
width = 0;
}
);
script = soyombo;
category = Mark;
subCategory = Nonspacing;
},
{
glyphname = "ddhaSub-soyo";
lastChange = "2019-11-07 14:34:34 +0000";
layers = (
{
anchors = (
{
name = _bottom;
position = "{-218, 614}";
},
{
name = bottom;
position = "{-218, 78}";
}
);
layerId = "BAFE8A66-C264-402A-9333-50E528A5D43A";
paths = (
{
closed = 1;
nodes = (
"-218 356 LINE",
"-124 306 LINE",
"-124 664 LINE",
"-218 614 LINE"
);
},
{
closed = 1;
nodes = (
"-457 406 LINE",
"-363 356 LINE",
"-363 714 LINE",
"-457 714 LINE"
);
},
{
closed = 1;
nodes = (
"-189 499 LINE",
"-185 499 LINE",
"-185 549 LINE",
"-189 549 LINE"
);
},
{
closed = 1;
nodes = (
"-674 679 OFFCURVE",
"-696 652 OFFCURVE",
"-696 595 CURVE SMOOTH",
"-696 493 OFFCURVE",
"-615 441 OFFCURVE",
"-461 441 CURVE SMOOTH",
"-413 441 LINE",
"-413 491 LINE",
"-461 491 LINE SMOOTH",
"-559 491 OFFCURVE",
"-602 526 OFFCURVE",
"-602 591 CURVE SMOOTH",
"-602 621 OFFCURVE",
"-595 647 OFFCURVE",
"-580 669 CURVE",
"-594 676 OFFCURVE",
"-609 679 OFFCURVE",
"-625 679 CURVE SMOOTH"
);
},
{
closed = 1;
nodes = (
"-218 78 LINE",
"-124 28 LINE",
"-124 356 LINE",
"-218 356 LINE"
);
},
{
closed = 1;
nodes = (
"-457 128 LINE",
"-363 78 LINE",
"-363 416 LINE",
"-457 416 LINE"
);
},
{
closed = 1;
nodes = (
"-457 229 LINE",
"-457 349 LINE",
"-569 289 LINE"
);
},
{
closed = 1;
nodes = (
"-199 264 LINE",
"-185 264 LINE",
"-185 314 LINE",
"-199 314 LINE"
);
}
);
width = 0;
}
);
script = soyombo;
category = Mark;
subCategory = Nonspacing;
},
{
glyphname = "nnaSub-soyo";
lastChange = "2019-11-07 14:35:36 +0000";
layers = (
{
anchors = (
{
name = _bottom;
position = "{-118, 714}";
},
{
name = bottom;
position = "{-118, 226}";
}
);
layerId = "BAFE8A66-C264-402A-9333-50E528A5D43A";
paths = (
{
closed = 1;
nodes = (
"-118 226 LINE",
"-24 176 LINE",
"-24 714 LINE",
"-118 714 LINE"
);
},
{
closed = 1;
nodes = (
"-357 276 LINE",
"-263 226 LINE",
"-263 814 LINE",
"-357 814 LINE"
);
},
{
closed = 1;
nodes = (
"-357 489 LINE",
"-357 609 LINE",
"-469 549 LINE"
);
},
{
closed = 1;
nodes = (
"-309 524 LINE",
"-85 524 LINE",
"-85 574 LINE",
"-309 574 LINE"
);
}
);
width = 0;
}
);
script = soyombo;
category = Mark;
subCategory = Nonspacing;
},
{
glyphname = "taSub-soyo";
lastChange = "2019-11-07 14:36:15 +0000";
layers = (
{
anchors = (
{
name = _bottom;
position = "{-148, 714}";
},
{
name = bottom;
position = "{-148, 399}";
}
);
layerId = "BAFE8A66-C264-402A-9333-50E528A5D43A";
paths = (
{
closed = 1;
nodes = (
"-148 399 LINE",
"-54 349 LINE",
"-54 714 LINE",
"-148 714 LINE"
);
},
{
closed = 1;
nodes = (
"-372 399 OFFCURVE",
"-323 430 OFFCURVE",
"-292 494 CURVE",
"-327 515 LINE",
"-351 479 OFFCURVE",
"-384 463 OFFCURVE",
"-423 463 CURVE SMOOTH",
"-480 463 OFFCURVE",
"-512 501 OFFCURVE",
"-512 556 CURVE SMOOTH",
"-512 617 OFFCURVE",
"-469 654 OFFCURVE",
"-391 654 CURVE SMOOTH",
"-296 654 OFFCURVE",
"-201 604 OFFCURVE",
"-107 495 CURVE",
"-92 557 LINE",
"-199 674 OFFCURVE",
"-301 714 OFFCURVE",
"-398 714 CURVE SMOOTH",
"-513 714 OFFCURVE",
"-586 658 OFFCURVE",
"-586 551 CURVE SMOOTH",
"-586 456 OFFCURVE",
"-524 399 OFFCURVE",
"-438 399 CURVE SMOOTH"
);
}
);
width = 0;
}
);
script = soyombo;
category = Mark;
subCategory = Nonspacing;
},
{
glyphname = "thaSub-soyo";
lastChange = "2019-11-07 14:36:26 +0000";
layers = (
{
anchors = (
{
name = _bottom;
position = "{-148, 714}";
},
{
name = bottom;
position = "{-148, 296}";
}
);
layerId = "BAFE8A66-C264-402A-9333-50E528A5D43A";
paths = (
{
closed = 1;
nodes = (
"-265 454 OFFCURVE",
"-211 507 OFFCURVE",
"-211 584 CURVE SMOOTH",
"-211 661 OFFCURVE",
"-265 714 OFFCURVE",
"-343 714 CURVE SMOOTH",
"-421 714 OFFCURVE",
"-475 661 OFFCURVE",
"-475 584 CURVE SMOOTH",
"-475 507 OFFCURVE",
"-421 454 OFFCURVE",
"-343 454 CURVE SMOOTH"
);
},
{
closed = 1;
nodes = (
"-383 519 OFFCURVE",
"-410 545 OFFCURVE",
"-410 584 CURVE SMOOTH",
"-410 623 OFFCURVE",
"-383 649 OFFCURVE",
"-343 649 CURVE SMOOTH",
"-303 649 OFFCURVE",
"-276 623 OFFCURVE",
"-276 584 CURVE SMOOTH",
"-276 545 OFFCURVE",
"-303 519 OFFCURVE",
"-343 519 CURVE SMOOTH"
);
},
{
closed = 1;
nodes = (
"-54 714 LINE",
"-148 714 LINE",
"-148 454 LINE",
"-54 404 LINE"
);
},
{
closed = 1;
nodes = (
"-54 454 LINE",
"-148 454 LINE",
"-148 296 LINE",
"-54 246 LINE"
);
},
{
closed = 1;
nodes = (
"-374 341 LINE",
"-306 341 LINE",
"-306 470 LINE",
"-374 470 LINE"
);
},
{
closed = 1;
nodes = (
"-502 296 LINE",
"-184 296 LINE",
"-184 364 LINE",
"-502 364 LINE"
);
}
);
width = 0;
}
);
script = soyombo;
category = Mark;
subCategory = Nonspacing;
},
{
glyphname = "daSub-soyo";
lastChange = "2019-11-07 14:36:42 +0000";
layers = (
{
anchors = (
{
name = _bottom;
position = "{-148, 714}";
},
{
name = bottom;
position = "{-148, 226}";
}
);
layerId = "BAFE8A66-C264-402A-9333-50E528A5D43A";
paths = (
{
closed = 1;
nodes = (
"-148 226 LINE",
"-54 176 LINE",
"-54 714 LINE",
"-148 714 LINE"
);
},
{
closed = 1;
nodes = (
"-387 431 LINE",
"-387 276 LINE",
"-293 226 LINE",
"-293 431 LINE"
);
},
{
closed = 1;
nodes = (
"-425 448 OFFCURVE",
"-479 473 OFFCURVE",
"-479 549 CURVE SMOOTH",
"-479 625 OFFCURVE",
"-428 650 OFFCURVE",
"-293 650 CURVE",
"-293 714 LINE",
"-469 714 OFFCURVE",
"-553 667 OFFCURVE",
"-553 549 CURVE SMOOTH",
"-553 432 OFFCURVE",
"-472 384 OFFCURVE",
"-293 384 CURVE",
"-293 448 LINE"
);
},
{
closed = 1;
nodes = (
"-293 671 LINE",
"-293 804 LINE",
"-387 804 LINE",
"-387 671 LINE"
);
}
);
width = 0;
}
);
script = soyombo;
category = Mark;
subCategory = Nonspacing;
},
{
glyphname = "dhaSub-soyo";
lastChange = "2019-11-07 14:36:57 +0000";
layers = (
{
anchors = (
{
name = _bottom;
position = "{-218, 664}";
},
{
name = bottom;
position = "{-218, 150}";
}
);
layerId = "BAFE8A66-C264-402A-9333-50E528A5D43A";
paths = (
{
closed = 1;
nodes = (
"-218 356 LINE",
"-124 306 LINE",
"-124 714 LINE",
"-218 664 LINE"
);
},
{
closed = 1;
nodes = (
"-457 406 LINE",
"-363 356 LINE",
"-363 754 LINE",
"-457 754 LINE"
);
},
{
closed = 1;
nodes = (
"-191 499 LINE",
"-185 499 LINE",
"-185 549 LINE",
"-191 549 LINE"
);
},
{
closed = 1;
nodes = (
"-674 679 OFFCURVE",
"-696 652 OFFCURVE",
"-696 595 CURVE SMOOTH",
"-696 493 OFFCURVE",
"-615 441 OFFCURVE",
"-461 441 CURVE SMOOTH",
"-413 441 LINE",
"-413 491 LINE",
"-461 491 LINE SMOOTH",
"-559 491 OFFCURVE",
"-602 526 OFFCURVE",
"-602 591 CURVE SMOOTH",
"-602 621 OFFCURVE",
"-595 647 OFFCURVE",
"-580 669 CURVE",
"-594 676 OFFCURVE",
"-609 679 OFFCURVE",
"-625 679 CURVE SMOOTH"
);
},
{
closed = 1;
nodes = (
"-218 150 LINE",
"-124 100 LINE",
"-124 356 LINE",
"-218 356 LINE"
);
},
{
closed = 1;
nodes = (
"-424 165 OFFCURVE",
"-386 174 OFFCURVE",
"-352 191 CURVE",
"-372 240 LINE",
"-395 233 OFFCURVE",
"-423 229 OFFCURVE",
"-446 229 CURVE SMOOTH",
"-490 229 OFFCURVE",
"-512 245 OFFCURVE",
"-512 271 CURVE SMOOTH",
"-512 307 OFFCURVE",
"-473 329 OFFCURVE",
"-363 356 CURVE",
"-363 448 LINE",
"-457 448 LINE",
"-457 387 LINE",
"-534 366 OFFCURVE",
"-586 330 OFFCURVE",
"-586 265 CURVE SMOOTH",
"-586 202 OFFCURVE",
"-536 165 OFFCURVE",
"-460 165 CURVE SMOOTH"
);
}
);
width = 0;
}
);
script = soyombo;
category = Mark;
subCategory = Nonspacing;
},
{
glyphname = "naSub-soyo";
lastChange = "2019-11-07 14:37:12 +0000";
layers = (
{
anchors = (
{
name = _bottom;
position = "{-148, 714}";
},
{
name = bottom;
position = "{-148, 194}";
}
);
layerId = "BAFE8A66-C264-402A-9333-50E528A5D43A";
paths = (
{
closed = 1;
nodes = (
"-148 194 LINE",
"-54 144 LINE",
"-54 714 LINE",
"-148 714 LINE"
);
},
{
closed = 1;
nodes = (
"-299 464 LINE",
"-115 464 LINE",
"-115 514 LINE",
"-299 514 LINE"
);
},
{
closed = 1;
nodes = (
"-346 244 LINE",
"-252 194 LINE",
"-252 714 LINE",
"-346 664 LINE"
);
},
{
closed = 1;
nodes = (
"-346 378 LINE SMOOTH",
"-462 378 OFFCURVE",
"-496 414 OFFCURVE",
"-496 489 CURVE SMOOTH",
"-496 564 OFFCURVE",
"-462 600 OFFCURVE",
"-346 600 CURVE SMOOTH",
"-300 600 LINE",
"-300 664 LINE",
"-346 664 LINE SMOOTH",
"-502 664 OFFCURVE",
"-560 599 OFFCURVE",
"-560 489 CURVE SMOOTH",
"-560 379 OFFCURVE",
"-502 314 OFFCURVE",
"-346 314 CURVE SMOOTH",
"-300 314 LINE",
"-300 378 LINE"
);
}
);
width = 0;
}
);
script = soyombo;
category = Mark;
subCategory = Nonspacing;
},
{
glyphname = "paSub-soyo";
lastChange = "2019-11-07 14:37:20 +0000";
layers = (
{
anchors = (
{
name = _bottom;
position = "{-148, 692}";
},
{
name = bottom;
position = "{-148, 372}";
}
);
layerId = "BAFE8A66-C264-402A-9333-50E528A5D43A";
paths = (
{
closed = 1;
nodes = (
"-148 372 LINE",
"-54 322 LINE",
"-54 692 LINE",
"-148 692 LINE"
);
},
{
closed = 1;
nodes = (
"-526 657 OFFCURVE",
"-586 606 OFFCURVE",
"-586 519 CURVE SMOOTH",
"-586 423 OFFCURVE",
"-517 372 OFFCURVE",
"-408 372 CURVE SMOOTH",
"-308 372 OFFCURVE",
"-206 418 OFFCURVE",
"-99 552 CURVE",
"-147 570 LINE",
"-230 476 OFFCURVE",
"-313 432 OFFCURVE",
"-401 432 CURVE SMOOTH",
"-472 432 OFFCURVE",
"-512 464 OFFCURVE",
"-512 516 CURVE SMOOTH",
"-512 562 OFFCURVE",
"-483 593 OFFCURVE",
"-429 593 CURVE SMOOTH",
"-391 593 OFFCURVE",
"-358 578 OFFCURVE",
"-333 545 CURVE",
"-298 566 LINE",
"-330 628 OFFCURVE",
"-379 657 OFFCURVE",
"-444 657 CURVE SMOOTH"
);
}
);
width = 0;
}
);
script = soyombo;
category = Mark;
subCategory = Nonspacing;
},
{
glyphname = "phaSub-soyo";
lastChange = "2019-11-07 14:37:37 +0000";
layers = (
{
anchors = (
{
name = _bottom;
position = "{-178, 714}";
},
{
name = bottom;
position = "{-178, 283}";
}
);
layerId = "BAFE8A66-C264-402A-9333-50E528A5D43A";
paths = (
{
closed = 1;
nodes = (
"-178 567 LINE",
"-84 517 LINE",
"-84 714 LINE",
"-178 714 LINE"
);
},
{
closed = 1;
nodes = (
"-563 774 OFFCURVE",
"-596 746 OFFCURVE",
"-596 700 CURVE SMOOTH",
"-596 633 OFFCURVE",
"-529 598 OFFCURVE",
"-434 598 CURVE SMOOTH",
"-343 598 OFFCURVE",
"-273 627 OFFCURVE",
"-202 700 CURVE",
"-231 737 LINE",
"-285 693 OFFCURVE",
"-340 669 OFFCURVE",
"-405 669 CURVE SMOOTH",
"-457 669 OFFCURVE",
"-482 689 OFFCURVE",
"-482 718 CURVE SMOOTH",
"-482 732 OFFCURVE",
"-477 747 OFFCURVE",
"-467 756 CURVE",
"-477 767 OFFCURVE",
"-496 774 OFFCURVE",
"-520 774 CURVE SMOOTH"
);
},
{
closed = 1;
nodes = (
"-178 283 LINE",
"-84 233 LINE",
"-84 567 LINE",
"-178 567 LINE"
);
},
{
closed = 1;
nodes = (
"-559 538 OFFCURVE",
"-616 493 OFFCURVE",
"-616 414 CURVE SMOOTH",
"-616 328 OFFCURVE",
"-552 283 OFFCURVE",
"-445 283 CURVE SMOOTH",
"-343 283 OFFCURVE",
"-241 326 OFFCURVE",
"-133 451 CURVE",
"-177 474 LINE",
"-262 385 OFFCURVE",
"-346 343 OFFCURVE",
"-438 343 CURVE SMOOTH",
"-506 343 OFFCURVE",
"-542 369 OFFCURVE",
"-542 412 CURVE SMOOTH",
"-542 449 OFFCURVE",
"-516 474 OFFCURVE",
"-465 474 CURVE SMOOTH",
"-429 474 OFFCURVE",
"-395 461 OFFCURVE",
"-369 431 CURVE",
"-334 452 LINE",
"-368 510 OFFCURVE",
"-417 538 OFFCURVE",
"-481 538 CURVE SMOOTH"
);
}
);
width = 0;
}
);
script = soyombo;
category = Mark;
subCategory = Nonspacing;
},
{
glyphname = "baSub-soyo";
lastChange = "2019-11-07 14:37:54 +0000";
layers = (
{
anchors = (
{
name = _bottom;
position = "{-148, 714}";
},
{
name = bottom;
position = "{-148, 287}";
}
);
layerId = "BAFE8A66-C264-402A-9333-50E528A5D43A";
paths = (
{
closed = 1;
nodes = (
"-148 287 LINE",
"-54 237 LINE",
"-54 714 LINE",
"-148 714 LINE"
);
},
{
closed = 1;
nodes = (
"-192 497 OFFCURVE",
"-230 542 OFFCURVE",
"-293 570 CURVE",
"-314 535 LINE",
"-274 513 OFFCURVE",
"-256 484 OFFCURVE",
"-256 449 CURVE SMOOTH",
"-256 393 OFFCURVE",
"-295 361 OFFCURVE",
"-363 361 CURVE SMOOTH",
"-423 361 OFFCURVE",
"-467 386 OFFCURVE",
"-467 451 CURVE SMOOTH",
"-467 512 OFFCURVE",
"-427 577 OFFCURVE",
"-316 679 CURVE",
"-348 714 LINE",
"-493 589 OFFCURVE",
"-527 525 OFFCURVE",
"-527 445 CURVE SMOOTH",
"-527 343 OFFCURVE",
"-465 287 OFFCURVE",
"-357 287 CURVE SMOOTH",
"-250 287 OFFCURVE",
"-192 349 OFFCURVE",
"-192 434 CURVE SMOOTH"
);
}
);
width = 0;
}
);
script = soyombo;
category = Mark;
subCategory = Nonspacing;
},
{
glyphname = "bhaSub-soyo";
lastChange = "2019-11-07 14:38:24 +0000";
layers = (
{
anchors = (
{
name = _bottom;
position = "{-158, 714}";
},
{
name = bottom;
position = "{-158, 240}";
}
);
layerId = "BAFE8A66-C264-402A-9333-50E528A5D43A";
paths = (
{
closed = 1;
nodes = (
"-158 567 LINE",
"-64 517 LINE",
"-64 714 LINE",
"-158 714 LINE"
);
},
{
closed = 1;
nodes = (
"-543 774 OFFCURVE",
"-576 746 OFFCURVE",
"-576 700 CURVE SMOOTH",
"-576 633 OFFCURVE",
"-509 598 OFFCURVE",
"-414 598 CURVE SMOOTH",
"-323 598 OFFCURVE",
"-253 627 OFFCURVE",
"-182 700 CURVE",
"-211 737 LINE",
"-265 693 OFFCURVE",
"-320 669 OFFCURVE",
"-385 669 CURVE SMOOTH",
"-437 669 OFFCURVE",
"-462 689 OFFCURVE",
"-462 718 CURVE SMOOTH",
"-462 732 OFFCURVE",
"-457 747 OFFCURVE",
"-447 756 CURVE",
"-457 767 OFFCURVE",
"-476 774 OFFCURVE",
"-500 774 CURVE SMOOTH"
);
},
{
closed = 1;
nodes = (
"-158 240 LINE",
"-64 190 LINE",
"-64 567 LINE",
"-158 567 LINE"
);
},
{
closed = 1;
nodes = (
"-202 406 OFFCURVE",
"-242 439 OFFCURVE",
"-308 460 CURVE",
"-324 423 LINE",
"-284 408 OFFCURVE",
"-266 390 OFFCURVE",
"-266 368 CURVE SMOOTH",
"-266 334 OFFCURVE",
"-305 314 OFFCURVE",
"-373 314 CURVE SMOOTH",
"-433 314 OFFCURVE",
"-477 331 OFFCURVE",
"-477 375 CURVE SMOOTH",
"-477 415 OFFCURVE",
"-438 460 OFFCURVE",
"-331 528 CURVE",
"-354 567 LINE",
"-500 481 OFFCURVE",
"-537 433 OFFCURVE",
"-537 368 CURVE SMOOTH",
"-537 286 OFFCURVE",
"-475 240 OFFCURVE",
"-367 240 CURVE SMOOTH",
"-260 240 OFFCURVE",
"-202 288 OFFCURVE",
"-202 353 CURVE SMOOTH"
);
}
);
width = 0;
}
);
script = soyombo;
category = Mark;
subCategory = Nonspacing;
},
{
glyphname = "maSub-soyo";
lastChange = "2019-11-07 14:38:35 +0000";
layers = (
{
anchors = (
{
name = _bottom;
position = "{-158, 714}";
},
{
name = bottom;
position = "{-158, 267}";
}
);
layerId = "BAFE8A66-C264-402A-9333-50E528A5D43A";
paths = (
{
closed = 1;
nodes = (
"-158 537 LINE",
"-64 487 LINE",
"-64 714 LINE",
"-158 714 LINE"
);
},
{
closed = 1;
nodes = (
"-543 774 OFFCURVE",
"-576 746 OFFCURVE",
"-576 700 CURVE SMOOTH",
"-576 633 OFFCURVE",
"-509 598 OFFCURVE",
"-414 598 CURVE SMOOTH",
"-323 598 OFFCURVE",
"-252 627 OFFCURVE",
"-182 700 CURVE",
"-211 737 LINE",
"-265 693 OFFCURVE",
"-320 669 OFFCURVE",
"-385 669 CURVE SMOOTH",
"-437 669 OFFCURVE",
"-462 689 OFFCURVE",
"-462 718 CURVE SMOOTH",
"-462 732 OFFCURVE",
"-457 747 OFFCURVE",
"-447 756 CURVE",
"-457 767 OFFCURVE",
"-476 774 OFFCURVE",
"-500 774 CURVE SMOOTH"
);
},
{
closed = 1;
nodes = (
"-272 267 OFFCURVE",
"-216 322 OFFCURVE",
"-216 402 CURVE SMOOTH",
"-216 482 OFFCURVE",
"-272 537 OFFCURVE",
"-353 537 CURVE SMOOTH",
"-434 537 OFFCURVE",
"-490 482 OFFCURVE",
"-490 402 CURVE SMOOTH",
"-490 322 OFFCURVE",
"-434 267 OFFCURVE",
"-353 267 CURVE SMOOTH"
);
},
{
closed = 1;
nodes = (
"-396 333 OFFCURVE",
"-424 360 OFFCURVE",
"-424 402 CURVE SMOOTH",
"-424 444 OFFCURVE",
"-396 471 OFFCURVE",
"-353 471 CURVE SMOOTH",
"-310 471 OFFCURVE",
"-282 444 OFFCURVE",
"-282 402 CURVE SMOOTH",
"-282 360 OFFCURVE",
"-310 333 OFFCURVE",
"-353 333 CURVE SMOOTH"
);
},
{
closed = 1;
nodes = (
"-64 537 LINE",
"-158 537 LINE",
"-158 267 LINE",
"-64 217 LINE"
);
}
);
width = 0;
}
);
script = soyombo;
category = Mark;
subCategory = Nonspacing;
},
{
glyphname = "tsaSub-soyo";
lastChange = "2019-11-07 14:38:46 +0000";
layers = (
{
anchors = (
{
name = _bottom;
position = "{-148, 714}";
},
{
name = bottom;
position = "{-148, 324}";
}
);
layerId = "BAFE8A66-C264-402A-9333-50E528A5D43A";
paths = (
{
closed = 1;
nodes = (
"-148 324 LINE",
"-54 274 LINE",
"-54 714 LINE",
"-148 714 LINE"
);
},
{
closed = 1;
nodes = (
"-148 519 LINE",
"-200 571 LINE",
"-395 376 LINE",
"-343 324 LINE"
);
},
{
closed = 1;
nodes = (
"-395 662 LINE",
"-200 467 LINE",
"-148 519 LINE",
"-343 714 LINE"
);
},
{
closed = 1;
nodes = (
"-538 519 LINE",
"-486 467 LINE",
"-291 662 LINE",
"-343 714 LINE"
);
},
{
closed = 1;
nodes = (
"-291 376 LINE",
"-486 571 LINE",
"-538 519 LINE",
"-343 324 LINE"
);
}
);
width = 0;
}
);
script = soyombo;
category = Mark;
subCategory = Nonspacing;
},
{
glyphname = "tshaSub-soyo";
lastChange = "2019-11-07 14:38:54 +0000";
layers = (
{
anchors = (
{
name = _bottom;
position = "{-148, 714}";
},
{
name = bottom;
position = "{-148, 324}";
}
);
layerId = "BAFE8A66-C264-402A-9333-50E528A5D43A";
paths = (
{
closed = 1;
nodes = (
"-148 324 LINE",
"-54 274 LINE",
"-54 714 LINE",
"-148 714 LINE"
);
},
{
closed = 1;
nodes = (
"-148 519 LINE",
"-193 564 LINE",
"-388 369 LINE",
"-343 324 LINE"
);
},
{
closed = 1;
nodes = (
"-388 669 LINE",
"-193 474 LINE",
"-148 519 LINE",
"-343 714 LINE"
);
},
{
closed = 1;
nodes = (
"-538 519 LINE",
"-493 474 LINE",
"-298 669 LINE",
"-343 714 LINE"
);
},
{
closed = 1;
nodes = (
"-298 369 LINE",
"-493 564 LINE",
"-538 519 LINE",
"-343 324 LINE"
);
},
{
closed = 1;
nodes = (
"-373 634 LINE",
"-373 404 LINE",
"-313 404 LINE",
"-313 634 LINE"
);
}
);
width = 0;
}
);
script = soyombo;
category = Mark;
subCategory = Nonspacing;
},
{
glyphname = "dzaSub-soyo";
lastChange = "2019-11-07 14:40:24 +0000";
layers = (
{
anchors = (
{
name = _bottom;
position = "{-148, 714}";
},
{
name = bottom;
position = "{-148, 324}";
}
);
layerId = "BAFE8A66-C264-402A-9333-50E528A5D43A";
paths = (
{
closed = 1;
nodes = (
"-148 324 LINE",
"-54 274 LINE",
"-54 714 LINE",
"-148 714 LINE"
);
},
{
closed = 1;
nodes = (
"-148 519 LINE",
"-193 564 LINE",
"-388 369 LINE",
"-343 324 LINE"
);
},
{
closed = 1;
nodes = (
"-388 669 LINE",
"-193 474 LINE",
"-148 519 LINE",
"-343 714 LINE"
);
},
{
closed = 1;
nodes = (
"-538 519 LINE",
"-493 474 LINE",
"-298 669 LINE",
"-343 714 LINE"
);
},
{
closed = 1;
nodes = (
"-298 369 LINE",
"-493 564 LINE",
"-538 519 LINE",
"-343 324 LINE"
);
},
{
closed = 1;
nodes = (
"-223 549 LINE",
"-463 549 LINE",
"-463 489 LINE",
"-223 489 LINE"
);
}
);
width = 0;
}
);
script = soyombo;
category = Mark;
subCategory = Nonspacing;
},
{
glyphname = "zhaSub-soyo";
lastChange = "2019-11-07 14:40:59 +0000";
layers = (
{
anchors = (
{
name = _bottom;
position = "{-158, 714}";
},
{
name = bottom;
position = "{-158, 246}";
}
);
layerId = "BAFE8A66-C264-402A-9333-50E528A5D43A";
paths = (
{
closed = 1;
nodes = (
"-158 547 LINE",
"-64 497 LINE",
"-64 714 LINE",
"-158 714 LINE"
);
},
{
closed = 1;
nodes = (
"-543 774 OFFCURVE",
"-576 746 OFFCURVE",
"-576 700 CURVE SMOOTH",
"-576 633 OFFCURVE",
"-509 598 OFFCURVE",
"-414 598 CURVE SMOOTH",
"-323 598 OFFCURVE",
"-252 627 OFFCURVE",
"-182 700 CURVE",
"-211 737 LINE",
"-265 693 OFFCURVE",
"-320 669 OFFCURVE",
"-385 669 CURVE SMOOTH",
"-437 669 OFFCURVE",
"-462 689 OFFCURVE",
"-462 718 CURVE SMOOTH",
"-462 732 OFFCURVE",
"-457 747 OFFCURVE",
"-447 756 CURVE",
"-457 767 OFFCURVE",
"-476 774 OFFCURVE",
"-500 774 CURVE SMOOTH"
);
},
{
closed = 1;
nodes = (
"-466 416 OFFCURVE",
"-453 467 OFFCURVE",
"-353 467 CURVE SMOOTH",
"-254 467 OFFCURVE",
"-240 419 OFFCURVE",
"-240 246 CURVE",
"-178 246 LINE",
"-178 454 OFFCURVE",
"-214 534 OFFCURVE",
"-353 534 CURVE SMOOTH",
"-490 534 OFFCURVE",
"-528 457 OFFCURVE",
"-528 246 CURVE",
"-466 246 LINE"
);
},
{
closed = 1;
nodes = (
"-64 547 LINE",
"-158 547 LINE",
"-158 246 LINE",
"-64 196 LINE"
);
},
{
closed = 1;
nodes = (
"-232 246 LINE",
"-221 246 LINE",
"-221 314 LINE",
"-232 314 LINE"
);
}
);
width = 0;
}
);
script = soyombo;
category = Mark;
subCategory = Nonspacing;
},
{
glyphname = "zaSub-soyo";
lastChange = "2019-11-07 14:41:09 +0000";
layers = (
{
anchors = (
{
name = _bottom;
position = "{-168, 714}";
},
{
name = bottom;
position = "{-168, 349}";
}
);
layerId = "BAFE8A66-C264-402A-9333-50E528A5D43A";
paths = (
{
closed = 1;
nodes = (
"-168 507 LINE",
"-74 457 LINE",
"-74 714 LINE",
"-168 714 LINE"
);
},
{
closed = 1;
nodes = (
"-553 734 OFFCURVE",
"-586 706 OFFCURVE",
"-586 660 CURVE SMOOTH",
"-586 593 OFFCURVE",
"-519 558 OFFCURVE",
"-424 558 CURVE SMOOTH",
"-333 558 OFFCURVE",
"-260 586 OFFCURVE",
"-192 660 CURVE",
"-221 697 LINE",
"-275 652 OFFCURVE",
"-330 629 OFFCURVE",
"-395 629 CURVE SMOOTH",
"-447 629 OFFCURVE",
"-472 649 OFFCURVE",
"-472 678 CURVE SMOOTH",
"-472 692 OFFCURVE",
"-467 707 OFFCURVE",
"-457 716 CURVE",
"-467 726 OFFCURVE",
"-486 734 OFFCURVE",
"-510 734 CURVE SMOOTH"
);
},
{
closed = 1;
nodes = (
"-74 507 LINE",
"-168 507 LINE",
"-168 349 LINE",
"-74 299 LINE"
);
},
{
closed = 1;
nodes = (
"-424 394 LINE",
"-356 394 LINE",
"-356 588 LINE",
"-424 588 LINE"
);
},
{
closed = 1;
nodes = (
"-582 349 LINE",
"-204 349 LINE",
"-204 417 LINE",
"-582 417 LINE"
);
}
);
width = 0;
}
);
script = soyombo;
category = Mark;
subCategory = Nonspacing;
},
{
glyphname = "aaSub-soyo";
lastChange = "2019-11-07 14:41:29 +0000";
layers = (
{
anchors = (
{
name = _bottom;
position = "{-148, 714}";
},
{
name = bottom;
position = "{-148, 287}";
}
);
layerId = "BAFE8A66-C264-402A-9333-50E528A5D43A";
paths = (
{
closed = 1;
nodes = (
"-148 287 LINE",
"-54 237 LINE",
"-54 714 LINE",
"-148 714 LINE"
);
},
{
closed = 1;
nodes = (
"-527 504 OFFCURVE",
"-489 459 OFFCURVE",
"-426 431 CURVE",
"-405 466 LINE",
"-445 488 OFFCURVE",
"-463 517 OFFCURVE",
"-463 552 CURVE SMOOTH",
"-463 608 OFFCURVE",
"-424 640 OFFCURVE",
"-356 640 CURVE SMOOTH",
"-296 640 OFFCURVE",
"-252 615 OFFCURVE",
"-252 550 CURVE SMOOTH",
"-252 489 OFFCURVE",
"-292 424 OFFCURVE",
"-403 322 CURVE",
"-371 287 LINE",
"-226 412 OFFCURVE",
"-192 476 OFFCURVE",
"-192 556 CURVE SMOOTH",
"-192 658 OFFCURVE",
"-254 714 OFFCURVE",
"-362 714 CURVE SMOOTH",
"-469 714 OFFCURVE",
"-527 652 OFFCURVE",
"-527 567 CURVE SMOOTH"
);
}
);
width = 0;
}
);
script = soyombo;
category = Mark;
subCategory = Nonspacing;
},
{
glyphname = "yaSub-soyo";
lastChange = "2019-11-07 14:41:48 +0000";
layers = (
{
anchors = (
{
name = _bottom;
position = "{-158, 714}";
},
{
name = bottom;
position = "{-158, 246}";
}
);
layerId = "BAFE8A66-C264-402A-9333-50E528A5D43A";
paths = (
{
closed = 1;
nodes = (
"-158 547 LINE",
"-64 497 LINE",
"-64 714 LINE",
"-158 714 LINE"
);
},
{
closed = 1;
nodes = (
"-543 774 OFFCURVE",
"-576 746 OFFCURVE",
"-576 700 CURVE SMOOTH",
"-576 633 OFFCURVE",
"-509 598 OFFCURVE",
"-414 598 CURVE SMOOTH",
"-323 598 OFFCURVE",
"-252 627 OFFCURVE",
"-182 700 CURVE",
"-211 737 LINE",
"-265 693 OFFCURVE",
"-320 669 OFFCURVE",
"-385 669 CURVE SMOOTH",
"-437 669 OFFCURVE",
"-462 689 OFFCURVE",
"-462 718 CURVE SMOOTH",
"-462 732 OFFCURVE",
"-457 747 OFFCURVE",
"-447 756 CURVE",
"-457 767 OFFCURVE",
"-476 774 OFFCURVE",
"-500 774 CURVE SMOOTH"
);
},
{
closed = 1;
nodes = (
"-466 416 OFFCURVE",
"-453 467 OFFCURVE",
"-353 467 CURVE SMOOTH",
"-254 467 OFFCURVE",
"-240 419 OFFCURVE",
"-240 246 CURVE",
"-178 246 LINE",
"-178 454 OFFCURVE",
"-214 534 OFFCURVE",
"-353 534 CURVE SMOOTH",
"-490 534 OFFCURVE",
"-528 457 OFFCURVE",
"-528 246 CURVE",
"-466 246 LINE"
);
},
{
closed = 1;
nodes = (
"-64 547 LINE",
"-158 547 LINE",
"-158 246 LINE",
"-64 196 LINE"
);
},
{
closed = 1;
nodes = (
"-485 246 LINE",
"-221 246 LINE",
"-221 314 LINE",
"-485 314 LINE"
);
}
);
width = 0;
}
);
script = soyombo;
category = Mark;
subCategory = Nonspacing;
},
{
glyphname = "raSub-soyo";
lastChange = "2019-11-07 14:41:57 +0000";
layers = (
{
anchors = (
{
name = _bottom;
position = "{-158, 714}";
},
{
name = bottom;
position = "{-158, 248}";
}
);
layerId = "BAFE8A66-C264-402A-9333-50E528A5D43A";
paths = (
{
closed = 1;
nodes = (
"-158 547 LINE",
"-64 497 LINE",
"-64 714 LINE",
"-158 714 LINE"
);
},
{
closed = 1;
nodes = (
"-543 774 OFFCURVE",
"-576 746 OFFCURVE",
"-576 700 CURVE SMOOTH",
"-576 633 OFFCURVE",
"-509 598 OFFCURVE",
"-414 598 CURVE SMOOTH",
"-323 598 OFFCURVE",
"-252 627 OFFCURVE",
"-182 700 CURVE",
"-211 737 LINE",
"-265 693 OFFCURVE",
"-320 669 OFFCURVE",
"-385 669 CURVE SMOOTH",
"-437 669 OFFCURVE",
"-462 689 OFFCURVE",
"-462 718 CURVE SMOOTH",
"-462 732 OFFCURVE",
"-457 747 OFFCURVE",
"-447 756 CURVE",
"-457 767 OFFCURVE",
"-476 774 OFFCURVE",
"-500 774 CURVE SMOOTH"
);
},
{
closed = 1;
nodes = (
"-64 547 LINE",
"-158 547 LINE",
"-158 248 LINE",
"-64 198 LINE"
);
},
{
closed = 1;
nodes = (
"-353 547 LINE",
"-548 248 LINE",
"-158 248 LINE"
);
},
{
closed = 1;
nodes = (
"-476 311 LINE",
"-462 262 LINE",
"-329 468 LINE",
"-377 468 LINE",
"-244 262 LINE",
"-230 311 LINE"
);
}
);
width = 0;
}
);
script = soyombo;
category = Mark;
subCategory = Nonspacing;
},
{
glyphname = "laSub-soyo";
lastChange = "2019-11-07 14:42:05 +0000";
layers = (
{
anchors = (
{
name = _bottom;
position = "{-158, 714}";
},
{
name = bottom;
position = "{-158, 295}";
}
);
layerId = "BAFE8A66-C264-402A-9333-50E528A5D43A";
paths = (
{
closed = 1;
nodes = (
"-158 507 LINE",
"-64 457 LINE",
"-64 714 LINE",
"-158 714 LINE"
);
},
{
closed = 1;
nodes = (
"-543 734 OFFCURVE",
"-576 706 OFFCURVE",
"-576 660 CURVE SMOOTH",
"-576 593 OFFCURVE",
"-509 558 OFFCURVE",
"-414 558 CURVE SMOOTH",
"-323 558 OFFCURVE",
"-250 586 OFFCURVE",
"-182 660 CURVE",
"-211 697 LINE",
"-265 652 OFFCURVE",
"-320 629 OFFCURVE",
"-385 629 CURVE SMOOTH",
"-437 629 OFFCURVE",
"-462 649 OFFCURVE",
"-462 678 CURVE SMOOTH",
"-462 692 OFFCURVE",
"-457 707 OFFCURVE",
"-447 716 CURVE",
"-457 726 OFFCURVE",
"-476 734 OFFCURVE",
"-500 734 CURVE SMOOTH"
);
},
{
closed = 1;
nodes = (
"-498 311 LINE",
"-502 320 OFFCURVE",
"-504 334 OFFCURVE",
"-504 346 CURVE SMOOTH",
"-504 397 OFFCURVE",
"-464 427 OFFCURVE",
"-395 427 CURVE SMOOTH",
"-333 427 OFFCURVE",
"-270 408 OFFCURVE",
"-210 368 CURVE",
"-182 410 LINE",
"-260 467 OFFCURVE",
"-338 487 OFFCURVE",
"-409 487 CURVE SMOOTH",
"-509 487 OFFCURVE",
"-576 448 OFFCURVE",
"-576 373 CURVE SMOOTH",
"-576 343 OFFCURVE",
"-565 316 OFFCURVE",
"-543 295 CURVE"
);
},
{
closed = 1;
nodes = (
"-347 453 LINE",
"-347 580 LINE",
"-413 580 LINE",
"-413 453 LINE"
);
},
{
closed = 1;
nodes = (
"-64 507 LINE",
"-158 507 LINE",
"-158 295 LINE",
"-64 245 LINE"
);
}
);
width = 0;
}
);
script = soyombo;
category = Mark;
subCategory = Nonspacing;
},
{
glyphname = "vaSub-soyo";
lastChange = "2019-11-07 14:42:19 +0000";
layers = (
{
anchors = (
{
name = _bottom;
position = "{-148, 714}";
},
{
name = bottom;
position = "{-148, 364}";
}
);
layerId = "BAFE8A66-C264-402A-9333-50E528A5D43A";
paths = (
{
closed = 1;
nodes = (
"-247 364 OFFCURVE",
"-168 443 OFFCURVE",
"-168 539 CURVE SMOOTH",
"-168 635 OFFCURVE",
"-247 714 OFFCURVE",
"-343 714 CURVE SMOOTH",
"-439 714 OFFCURVE",
"-518 635 OFFCURVE",
"-518 539 CURVE SMOOTH",
"-518 443 OFFCURVE",
"-439 364 OFFCURVE",
"-343 364 CURVE SMOOTH"
);
},
{
closed = 1;
nodes = (
"-401 438 OFFCURVE",
"-444 481 OFFCURVE",
"-444 539 CURVE SMOOTH",
"-444 597 OFFCURVE",
"-401 640 OFFCURVE",
"-343 640 CURVE SMOOTH",
"-285 640 OFFCURVE",
"-242 597 OFFCURVE",
"-242 539 CURVE SMOOTH",
"-242 481 OFFCURVE",
"-285 438 OFFCURVE",
"-343 438 CURVE SMOOTH"
);
},
{
closed = 1;
nodes = (
"-54 714 LINE",
"-148 714 LINE",
"-148 364 LINE",
"-54 314 LINE"
);
}
);
width = 0;
}
);
script = soyombo;
category = Mark;
subCategory = Nonspacing;
},
{
glyphname = "shaSub-soyo";
lastChange = "2019-11-07 14:42:59 +0000";
layers = (
{
anchors = (
{
name = _bottom;
position = "{-138, 694}";
},
{
name = bottom;
position = "{-138, 324}";
}
);
layerId = "BAFE8A66-C264-402A-9333-50E528A5D43A";
paths = (
{
closed = 1;
nodes = (
"-138 324 LINE",
"-44 274 LINE",
"-44 694 LINE",
"-138 694 LINE"
);
},
{
closed = 1;
nodes = (
"-128 630 LINE",
"-128 721 LINE",
"-528 449 LINE",
"-528 358 LINE"
);
},
{
closed = 1;
nodes = (
"-528 623 LINE",
"-128 351 LINE",
"-128 442 LINE",
"-528 714 LINE"
);
}
);
width = 0;
}
);
script = soyombo;
category = Mark;
subCategory = Nonspacing;
},
{
glyphname = "ssaSub-soyo";
lastChange = "2019-11-07 14:43:13 +0000";
layers = (
{
anchors = (
{
name = _bottom;
position = "{-148, 694}";
},
{
name = bottom;
position = "{-148, 292}";
}
);
layerId = "BAFE8A66-C264-402A-9333-50E528A5D43A";
paths = (
{
closed = 1;
nodes = (
"-148 292 LINE",
"-54 242 LINE",
"-54 694 LINE",
"-148 694 LINE"
);
},
{
closed = 1;
nodes = (
"-138 630 LINE",
"-138 721 LINE",
"-470 495 LINE",
"-407 447 LINE"
);
},
{
closed = 1;
nodes = (
"-538 623 LINE",
"-138 351 LINE",
"-138 442 LINE",
"-538 714 LINE"
);
},
{
closed = 1;
nodes = (
"-414 436 OFFCURVE",
"-403 414 OFFCURVE",
"-403 392 CURVE SMOOTH",
"-403 374 OFFCURVE",
"-416 362 OFFCURVE",
"-439 362 CURVE SMOOTH",
"-465 362 OFFCURVE",
"-488 389 OFFCURVE",
"-530 454 CURVE",
"-574 424 LINE",
"-522 325 OFFCURVE",
"-486 292 OFFCURVE",
"-429 292 CURVE SMOOTH",
"-369 292 OFFCURVE",
"-330 329 OFFCURVE",
"-330 381 CURVE SMOOTH",
"-330 416 OFFCURVE",
"-342 445 OFFCURVE",
"-403 500 CURVE",
"-470 495 LINE"
);
}
);
width = 0;
}
);
script = soyombo;
category = Mark;
subCategory = Nonspacing;
},
{
glyphname = "saSub-soyo";
lastChange = "2019-11-07 14:43:51 +0000";
layers = (
{
anchors = (
{
name = _bottom;
position = "{-148, 644}";
},
{
name = bottom;
position = "{-148, 361}";
}
);
layerId = "BAFE8A66-C264-402A-9333-50E528A5D43A";
paths = (
{
closed = 1;
nodes = (
"-148 361 LINE",
"-54 311 LINE",
"-54 644 LINE",
"-148 644 LINE"
);
},
{
closed = 1;
nodes = (
"-395 662 LINE",
"-128 395 LINE",
"-76 447 LINE",
"-343 714 LINE"
);
},
{
closed = 1;
nodes = (
"-479 578 LINE",
"-410 543 LINE",
"-291 662 LINE",
"-343 714 LINE"
);
},
{
closed = 1;
nodes = (
"-403 511 OFFCURVE",
"-383 486 OFFCURVE",
"-383 461 CURVE SMOOTH",
"-383 443 OFFCURVE",
"-396 431 OFFCURVE",
"-419 431 CURVE SMOOTH",
"-452 431 OFFCURVE",
"-481 456 OFFCURVE",
"-534 516 CURVE",
"-574 476 LINE",
"-503 390 OFFCURVE",
"-463 361 OFFCURVE",
"-409 361 CURVE SMOOTH",
"-349 361 OFFCURVE",
"-310 398 OFFCURVE",
"-310 450 CURVE SMOOTH",
"-310 490 OFFCURVE",
"-334 523 OFFCURVE",
"-409 586 CURVE",
"-479 578 LINE"
);
}
);
width = 0;
}
);
script = soyombo;
category = Mark;
subCategory = Nonspacing;
},
{
glyphname = "haSub-soyo";
lastChange = "2019-11-07 14:43:59 +0000";
layers = (
{
anchors = (
{
name = _bottom;
position = "{-148, 614}";
},
{
name = bottom;
position = "{-148, 224}";
}
);
layerId = "BAFE8A66-C264-402A-9333-50E528A5D43A";
paths = (
{
closed = 1;
nodes = (
"-148 224 LINE",
"-54 174 LINE",
"-54 664 LINE",
"-148 614 LINE"
);
},
{
closed = 1;
nodes = (
"-395 662 LINE",
"-128 453 LINE",
"-76 505 LINE",
"-343 714 LINE"
);
},
{
closed = 1;
nodes = (
"-610 505 LINE",
"-558 453 LINE",
"-291 662 LINE",
"-343 714 LINE"
);
},
{
closed = 1;
nodes = (
"-626 694 LINE",
"-626 224 LINE",
"-532 274 LINE",
"-532 644 LINE"
);
},
{
closed = 1;
nodes = (
"-313 303 OFFCURVE",
"-293 327 OFFCURVE",
"-293 381 CURVE SMOOTH",
"-293 461 OFFCURVE",
"-339 502 OFFCURVE",
"-427 502 CURVE SMOOTH",
"-471 502 OFFCURVE",
"-509 493 OFFCURVE",
"-539 478 CURVE",
"-539 428 LINE",
"-517 440 OFFCURVE",
"-485 448 OFFCURVE",
"-456 448 CURVE SMOOTH",
"-406 448 OFFCURVE",
"-387 423 OFFCURVE",
"-387 377 CURVE SMOOTH",
"-387 353 OFFCURVE",
"-392 331 OFFCURVE",
"-403 313 CURVE",
"-389 306 OFFCURVE",
"-374 303 OFFCURVE",
"-358 303 CURVE SMOOTH"
);
}
);
width = 0;
}
);
script = soyombo;
category = Mark;
subCategory = Nonspacing;
},
{
glyphname = "kssaSub-soyo";
lastChange = "2019-11-07 14:44:16 +0000";
layers = (
{
anchors = (
{
name = _bottom;
position = "{-218, 664}";
},
{
name = bottom;
position = "{-218, 150}";
}
);
layerId = "BAFE8A66-C264-402A-9333-50E528A5D43A";
paths = (
{
closed = 1;
nodes = (
"-218 356 LINE",
"-124 306 LINE",
"-124 714 LINE",
"-218 664 LINE"
);
},
{
closed = 1;
nodes = (
"-457 406 LINE",
"-363 356 LINE",
"-363 754 LINE",
"-457 754 LINE"
);
},
{
closed = 1;
nodes = (
"-389 499 LINE",
"-185 499 LINE",
"-185 549 LINE",
"-389 549 LINE"
);
},
{
closed = 1;
nodes = (
"-674 679 OFFCURVE",
"-696 652 OFFCURVE",
"-696 595 CURVE SMOOTH",
"-696 493 OFFCURVE",
"-615 441 OFFCURVE",
"-461 441 CURVE SMOOTH",
"-413 441 LINE",
"-413 491 LINE",
"-461 491 LINE SMOOTH",
"-559 491 OFFCURVE",
"-602 526 OFFCURVE",
"-602 591 CURVE SMOOTH",
"-602 621 OFFCURVE",
"-595 647 OFFCURVE",
"-580 669 CURVE",
"-594 676 OFFCURVE",
"-609 679 OFFCURVE",
"-625 679 CURVE SMOOTH"
);
},
{
closed = 1;
nodes = (
"-218 150 LINE",
"-124 100 LINE",
"-124 356 LINE",
"-218 356 LINE"
);
},
{
closed = 1;
nodes = (
"-424 165 OFFCURVE",
"-386 174 OFFCURVE",
"-352 191 CURVE",
"-372 240 LINE",
"-395 233 OFFCURVE",
"-423 229 OFFCURVE",
"-446 229 CURVE SMOOTH",
"-490 229 OFFCURVE",
"-512 245 OFFCURVE",
"-512 271 CURVE SMOOTH",
"-512 307 OFFCURVE",
"-473 329 OFFCURVE",
"-363 356 CURVE",
"-363 448 LINE",
"-457 448 LINE",
"-457 387 LINE",
"-534 366 OFFCURVE",
"-586 330 OFFCURVE",
"-586 265 CURVE SMOOTH",
"-586 202 OFFCURVE",
"-536 165 OFFCURVE",
"-460 165 CURVE SMOOTH"
);
}
);
width = 0;
}
);
script = soyombo;
category = Mark;
subCategory = Nonspacing;
},
{
glyphname = "headSub-soyo";
lastChange = "2019-11-07 14:45:36 +0000";
layers = (
{
anchors = (
{
name = _bottom;
position = "{-168, 614}";
},
{
name = bottom;
position = "{-168, 449}";
}
);
layerId = "BAFE8A66-C264-402A-9333-50E528A5D43A";
paths = (
{
closed = 1;
nodes = (
"-168 387 LINE",
"-74 387 LINE",
"-74 614 LINE",
"-168 614 LINE"
);
},
{
closed = 1;
nodes = (
"-160 614 LINE",
"-560 614 LINE",
"-560 608 LINE",
"-360 489 LINE",
"-160 608 LINE"
);
}
);
width = 0;
}
);
script = soyombo;
category = Mark;
subCategory = Nonspacing;
},
{
glyphname = "tail-soyo";
lastChange = "2019-11-07 14:45:53 +0000";
layers = (
{
anchors = (
{
name = _bottom;
position = "{-148, 0}";
},
{
name = bottom;
position = "{-148, -180}";
}
);
layerId = "BAFE8A66-C264-402A-9333-50E528A5D43A";
paths = (
{
closed = 1;
nodes = (
"-148 -180 LINE",
"-54 -230 LINE",
"-54 0 LINE",
"-148 50 LINE"
);
}
);
width = 0;
}
);
script = soyombo;
category = Mark;
subCategory = Nonspacing;
},
{
glyphname = "gFinal-soyo.half";
production = uni11A8A.half;
lastChange = "2019-11-07 14:47:19 +0000";
layers = (
{
anchors = (
{
name = _bottom;
position = "{-148, -11}";
},
{
name = bottom;
position = "{-148, 0}";
}
);
layerId = "BAFE8A66-C264-402A-9333-50E528A5D43A";
paths = (
{
closed = 1;
nodes = (
"-296 170 OFFCURVE",
"-312 152 OFFCURVE",
"-312 116 CURVE SMOOTH",
"-312 38 OFFCURVE",
"-260 0 OFFCURVE",
"-156 0 CURVE SMOOTH",
"-123 0 LINE",
"-123 44 LINE",
"-156 44 LINE SMOOTH",
"-215 44 OFFCURVE",
"-238 71 OFFCURVE",
"-238 120 CURVE SMOOTH",
"-238 134 OFFCURVE",
"-235 150 OFFCURVE",
"-229 163 CURVE",
"-238 168 OFFCURVE",
"-249 170 OFFCURVE",
"-260 170 CURVE SMOOTH"
);
}
);
width = 0;
}
);
script = soyombo;
category = Mark;
subCategory = Nonspacing;
},
{
glyphname = "kFinal-soyo.half";
production = uni11A8B.half;
lastChange = "2019-11-07 14:47:30 +0000";
layers = (
{
anchors = (
{
name = _bottom;
position = "{-148, 0}";
},
{
name = bottom;
position = "{-148, 0}";
}
);
layerId = "BAFE8A66-C264-402A-9333-50E528A5D43A";
paths = (
{
closed = 1;
nodes = (
"-249 0 OFFCURVE",
"-238 2 OFFCURVE",
"-229 7 CURVE",
"-235 20 OFFCURVE",
"-238 36 OFFCURVE",
"-238 50 CURVE SMOOTH",
"-238 99 OFFCURVE",
"-215 126 OFFCURVE",
"-156 126 CURVE SMOOTH",
"-123 126 LINE",
"-123 170 LINE",
"-156 170 LINE SMOOTH",
"-260 170 OFFCURVE",
"-312 132 OFFCURVE",
"-312 54 CURVE SMOOTH",
"-312 18 OFFCURVE",
"-296 0 OFFCURVE",
"-260 0 CURVE SMOOTH"
);
}
);
width = 0;
}
);
script = soyombo;
category = Mark;
subCategory = Nonspacing;
},
{
glyphname = "ngFinal-soyo.half";
production = uni11A8C.half;
lastChange = "2019-11-07 14:47:37 +0000";
layers = (
{
anchors = (
{
name = _bottom;
position = "{-148, 0}";
},
{
name = bottom;
position = "{-148, 0}";
}
);
layerId = "BAFE8A66-C264-402A-9333-50E528A5D43A";
paths = (
{
closed = 1;
nodes = (
"-262 66 LINE",
"-123 66 LINE",
"-123 110 LINE",
"-262 110 LINE"
);
},
{
closed = 1;
nodes = (
"-311 67 LINE",
"-235 0 LINE",
"-235 175 LINE",
"-311 175 LINE"
);
}
);
width = 0;
}
);
script = soyombo;
category = Mark;
subCategory = Nonspacing;
},
{
glyphname = "dFinal-soyo.half";
production = uni11A8D.half;
lastChange = "2019-11-07 14:47:43 +0000";
layers = (
{
anchors = (
{
name = _bottom;
position = "{-148, 0}";
},
{
name = bottom;
position = "{-148, 0}";
}
);
layerId = "BAFE8A66-C264-402A-9333-50E528A5D43A";
paths = (
{
closed = 1;
nodes = (
"-232 0 OFFCURVE",
"-217 10 OFFCURVE",
"-207 27 CURVE",
"-209 35 LINE",
"-236 43 OFFCURVE",
"-249 59 OFFCURVE",
"-249 79 CURVE SMOOTH",
"-249 97 OFFCURVE",
"-238 112 OFFCURVE",
"-216 112 CURVE SMOOTH",
"-192 112 OFFCURVE",
"-170 94 OFFCURVE",
"-143 55 CURVE",
"-143 110 LINE",
"-169 155 OFFCURVE",
"-197 170 OFFCURVE",
"-230 170 CURVE SMOOTH",
"-283 170 OFFCURVE",
"-313 134 OFFCURVE",
"-313 78 CURVE SMOOTH",
"-313 28 OFFCURVE",
"-287 0 OFFCURVE",
"-250 0 CURVE SMOOTH"
);
}
);
width = 0;
}
);
script = soyombo;
category = Mark;
subCategory = Nonspacing;
},
{
glyphname = "nFinal-soyo.half";
production = uni11A8E.half;
lastChange = "2019-11-07 14:47:49 +0000";
layers = (
{
anchors = (
{
name = _bottom;
position = "{-148, 0}";
},
{
name = bottom;
position = "{-148, 0}";
}
);
layerId = "BAFE8A66-C264-402A-9333-50E528A5D43A";
paths = (
{
closed = 1;
nodes = (
"-187 66 LINE",
"-123 66 LINE",
"-123 110 LINE",
"-187 110 LINE"
);
},
{
closed = 1;
nodes = (
"-272 175 OFFCURVE",
"-313 148 OFFCURVE",
"-313 87 CURVE SMOOTH",
"-313 26 OFFCURVE",
"-272 0 OFFCURVE",
"-212 0 CURVE SMOOTH",
"-180 0 LINE",
"-180 175 LINE",
"-212 175 LINE SMOOTH"
);
},
{
closed = 1;
nodes = (
"-259 43 OFFCURVE",
"-276 57 OFFCURVE",
"-276 87 CURVE SMOOTH",
"-276 117 OFFCURVE",
"-259 132 OFFCURVE",
"-217 132 CURVE",
"-217 43 LINE"
);
}
);
width = 0;
}
);
script = soyombo;
category = Mark;
subCategory = Nonspacing;
},
{
glyphname = "bFinal-soyo.half";
production = uni11A8F.half;
lastChange = "2019-11-07 14:47:55 +0000";
layers = (
{
anchors = (
{
name = _bottom;
position = "{-148, 0}";
},
{
name = bottom;
position = "{-148, 0}";
}
);
layerId = "BAFE8A66-C264-402A-9333-50E528A5D43A";
paths = (
{
closed = 1;
nodes = (
"-287 170 OFFCURVE",
"-313 142 OFFCURVE",
"-313 92 CURVE SMOOTH",
"-313 36 OFFCURVE",
"-283 0 OFFCURVE",
"-230 0 CURVE SMOOTH",
"-197 0 OFFCURVE",
"-169 15 OFFCURVE",
"-143 60 CURVE",
"-143 115 LINE",
"-170 76 OFFCURVE",
"-192 58 OFFCURVE",
"-216 58 CURVE SMOOTH",
"-238 58 OFFCURVE",
"-249 73 OFFCURVE",
"-249 91 CURVE SMOOTH",
"-249 111 OFFCURVE",
"-236 127 OFFCURVE",
"-209 135 CURVE",
"-207 143 LINE",
"-217 160 OFFCURVE",
"-232 170 OFFCURVE",
"-250 170 CURVE SMOOTH"
);
}
);
width = 0;
}
);
script = soyombo;
category = Mark;
subCategory = Nonspacing;
},
{
glyphname = "mFinal-soyo.half";
production = uni11A90.half;
lastChange = "2019-11-07 14:48:00 +0000";
layers = (
{
anchors = (
{
name = _bottom;
position = "{-148, 0}";
},
{
name = bottom;
position = "{-148, 0}";
}
);
layerId = "BAFE8A66-C264-402A-9333-50E528A5D43A";
paths = (
{
closed = 1;
nodes = (
"-283 170 OFFCURVE",
"-313 136 OFFCURVE",
"-313 87 CURVE SMOOTH",
"-313 38 OFFCURVE",
"-283 5 OFFCURVE",
"-238 5 CURVE SMOOTH",
"-193 5 OFFCURVE",
"-163 38 OFFCURVE",
"-163 87 CURVE SMOOTH",
"-163 136 OFFCURVE",
"-193 170 OFFCURVE",
"-238 170 CURVE SMOOTH"
);
},
{
closed = 1;
nodes = (
"-263 39 OFFCURVE",
"-279 58 OFFCURVE",
"-279 87 CURVE SMOOTH",
"-279 117 OFFCURVE",
"-263 136 OFFCURVE",
"-238 136 CURVE SMOOTH",
"-213 136 OFFCURVE",
"-197 117 OFFCURVE",
"-197 87 CURVE SMOOTH",
"-197 58 OFFCURVE",
"-213 39 OFFCURVE",
"-238 39 CURVE SMOOTH"
);
}
);
width = 0;
}
);
script = soyombo;
category = Mark;
subCategory = Nonspacing;
},
{
glyphname = "rFinal-soyo.half";
production = uni11A91.half;
lastChange = "2019-11-07 14:48:27 +0000";
layers = (
{
anchors = (
{
name = _bottom;
position = "{-148, 0}";
},
{
name = bottom;
position = "{-148, 0}";
}
);
layerId = "BAFE8A66-C264-402A-9333-50E528A5D43A";
paths = (
{
closed = 1;
nodes = (
"-312 73 LINE",
"-148 127 LINE",
"-123 127 LINE",
"-123 175 LINE",
"-148 175 LINE",
"-312 121 LINE"
);
},
{
closed = 1;
nodes = (
"-312 54 LINE",
"-148 0 LINE",
"-123 0 LINE",
"-123 48 LINE",
"-148 48 LINE",
"-312 102 LINE"
);
}
);
width = 0;
}
);
script = soyombo;
category = Mark;
subCategory = Nonspacing;
},
{
glyphname = "lFinal-soyo.half";
production = uni11A92.half;
lastChange = "2019-11-07 14:48:32 +0000";
layers = (
{
anchors = (
{
name = _bottom;
position = "{-148, 0}";
},
{
name = bottom;
position = "{-148, 0}";
}
);
layerId = "BAFE8A66-C264-402A-9333-50E528A5D43A";
paths = (
{
closed = 1;
nodes = (
"-312 130 LINE",
"-123 130 LINE",
"-123 175 LINE",
"-312 175 LINE"
);
},
{
closed = 1;
nodes = (
"-312 0 LINE",
"-123 0 LINE",
"-123 45 LINE",
"-312 45 LINE"
);
},
{
closed = 1;
nodes = (
"-250 26 LINE",
"-205 26 LINE",
"-205 140 LINE",
"-250 140 LINE"
);
}
);
width = 0;
}
);
script = soyombo;
category = Mark;
subCategory = Nonspacing;
},
{
glyphname = "shFinal-soyo.half";
production = uni11A93.half;
lastChange = "2019-11-07 14:48:38 +0000";
layers = (
{
anchors = (
{
name = _bottom;
position = "{-148, 0}";
},
{
name = bottom;
position = "{-148, 0}";
}
);
layerId = "BAFE8A66-C264-402A-9333-50E528A5D43A";
paths = (
{
closed = 1;
nodes = (
"-312 0 LINE",
"-148 125 LINE",
"-123 125 LINE",
"-123 175 LINE",
"-148 175 LINE",
"-312 50 LINE"
);
},
{
closed = 1;
nodes = (
"-312 125 LINE",
"-148 0 LINE",
"-123 0 LINE",
"-123 50 LINE",
"-148 50 LINE",
"-312 175 LINE"
);
}
);
width = 0;
}
);
script = soyombo;
category = Mark;
subCategory = Nonspacing;
},
{
glyphname = "sFinal-soyo.half";
production = uni11A94.half;
lastChange = "2019-11-07 14:48:44 +0000";
layers = (
{
anchors = (
{
name = _bottom;
position = "{-148, 0}";
},
{
name = bottom;
position = "{-148, 0}";
}
);
layerId = "BAFE8A66-C264-402A-9333-50E528A5D43A";
paths = (
{
closed = 1;
nodes = (
"-194 104 LINE",
"-128 129 LINE",
"-128 175 LINE",
"-223 140 LINE"
);
},
{
closed = 1;
nodes = (
"-204 0 OFFCURVE",
"-180 35 OFFCURVE",
"-180 83 CURVE SMOOTH",
"-180 97 OFFCURVE",
"-181 114 OFFCURVE",
"-184 130 CURVE",
"-223 140 LINE",
"-220 124 OFFCURVE",
"-219 109 OFFCURVE",
"-219 96 CURVE SMOOTH",
"-219 64 OFFCURVE",
"-226 44 OFFCURVE",
"-242 44 CURVE SMOOTH",
"-261 44 OFFCURVE",
"-273 72 OFFCURVE",
"-273 118 CURVE",
"-312 118 LINE",
"-312 48 OFFCURVE",
"-284 0 OFFCURVE",
"-241 0 CURVE SMOOTH"
);
}
);
width = 0;
}
);
script = soyombo;
category = Mark;
subCategory = Nonspacing;
},
{
glyphname = "ueMatra-soyo.half";
production = uni11A52.half;
lastChange = "2019-11-07 14:49:37 +0000";
layers = (
{
anchors = (
{
name = _bottom;
position = "{-168, 0}";
},
{
name = bottom;
position = "{-168, 0}";
}
);
layerId = "BAFE8A66-C264-402A-9333-50E528A5D43A";
paths = (
{
closed = 1;
nodes = (
"-473 175 OFFCURVE",
"-492 169 OFFCURVE",
"-507 156 CURVE",
"-487 121 LINE",
"-480 127 OFFCURVE",
"-470 131 OFFCURVE",
"-460 131 CURVE SMOOTH",
"-439 131 OFFCURVE",
"-427 116 OFFCURVE",
"-427 94 CURVE SMOOTH",
"-427 73 OFFCURVE",
"-441 59 OFFCURVE",
"-462 59 CURVE SMOOTH",
"-504 59 OFFCURVE",
"-542 101 OFFCURVE",
"-586 101 CURVE SMOOTH",
"-593 101 OFFCURVE",
"-600 100 OFFCURVE",
"-605 98 CURVE",
"-605 55 LINE",
"-603 56 OFFCURVE",
"-598 57 OFFCURVE",
"-593 57 CURVE SMOOTH",
"-552 57 OFFCURVE",
"-528 0 OFFCURVE",
"-458 0 CURVE SMOOTH",
"-410 0 OFFCURVE",
"-363 29 OFFCURVE",
"-363 88 CURVE SMOOTH",
"-363 144 OFFCURVE",
"-405 175 OFFCURVE",
"-453 175 CURVE SMOOTH"
);
}
);
width = 0;
}
);
script = soyombo;
category = Mark;
subCategory = Nonspacing;
},
{
glyphname = "uMatra-soyo.half";
production = uni11A53.half;
lastChange = "2019-11-07 14:49:49 +0000";
layers = (
{
anchors = (
{
name = _bottom;
position = "{-168, 0}";
},
{
name = bottom;
position = "{-168, 0}";
}
);
layerId = "BAFE8A66-C264-402A-9333-50E528A5D43A";
paths = (
{
closed = 1;
nodes = (
"-419 27 LINE",
"-358 27 LINE",
"-428 160 LINE",
"-489 160 LINE"
);
},
{
closed = 1;
nodes = (
"-605 27 LINE",
"-402 27 LINE",
"-402 81 LINE",
"-605 81 LINE"
);
}
);
width = 0;
}
);
script = soyombo;
category = Mark;
subCategory = Nonspacing;
},
{
glyphname = "rVocalicMatra-soyo.half";
production = uni11A59.half;
lastChange = "2019-11-07 14:50:06 +0000";
layers = (
{
anchors = (
{
name = _bottom;
position = "{-148, 0}";
},
{
name = bottom;
position = "{-148, 0}";
}
);
layerId = "BAFE8A66-C264-402A-9333-50E528A5D43A";
paths = (
{
closed = 1;
nodes = (
"-580 147 OFFCURVE",
"-585 119 OFFCURVE",
"-585 94 CURVE SMOOTH",
"-585 46 OFFCURVE",
"-565 6 OFFCURVE",
"-526 6 CURVE SMOOTH",
"-482 6 OFFCURVE",
"-456 59 OFFCURVE",
"-451 118 CURVE",
"-477 118 LINE",
"-472 59 OFFCURVE",
"-446 6 OFFCURVE",
"-402 6 CURVE SMOOTH",
"-363 6 OFFCURVE",
"-343 46 OFFCURVE",
"-343 94 CURVE SMOOTH",
"-343 119 OFFCURVE",
"-348 147 OFFCURVE",
"-358 169 CURVE",
"-393 155 LINE",
"-389 141 OFFCURVE",
"-387 124 OFFCURVE",
"-387 109 CURVE SMOOTH",
"-387 84 OFFCURVE",
"-393 70 OFFCURVE",
"-408 70 CURVE SMOOTH",
"-430 70 OFFCURVE",
"-441 103 OFFCURVE",
"-444 155 CURVE",
"-484 155 LINE",
"-487 99 OFFCURVE",
"-498 70 OFFCURVE",
"-520 70 CURVE SMOOTH",
"-535 70 OFFCURVE",
"-541 84 OFFCURVE",
"-541 109 CURVE SMOOTH",
"-541 124 OFFCURVE",
"-539 141 OFFCURVE",
"-535 155 CURVE",
"-570 169 LINE"
);
}
);
width = 0;
}
);
script = soyombo;
category = Mark;
subCategory = Nonspacing;
},
{
glyphname = "lVocalicMatra-soyo.half";
production = uni11A5A.half;
lastChange = "2019-11-07 14:50:15 +0000";
layers = (
{
anchors = (
{
name = _bottom;
position = "{-148, 0}";
},
{
name = bottom;
position = "{-148, 0}";
}
);
layerId = "BAFE8A66-C264-402A-9333-50E528A5D43A";
paths = (
{
closed = 1;
nodes = (
"-535 20 LINE",
"-539 34 OFFCURVE",
"-541 51 OFFCURVE",
"-541 66 CURVE SMOOTH",
"-541 91 OFFCURVE",
"-535 105 OFFCURVE",
"-520 105 CURVE SMOOTH",
"-498 105 OFFCURVE",
"-487 76 OFFCURVE",
"-484 20 CURVE",
"-444 20 LINE",
"-441 72 OFFCURVE",
"-430 105 OFFCURVE",
"-408 105 CURVE SMOOTH",
"-393 105 OFFCURVE",
"-387 91 OFFCURVE",
"-387 66 CURVE SMOOTH",
"-387 51 OFFCURVE",
"-389 34 OFFCURVE",
"-393 20 CURVE",
"-358 6 LINE",
"-348 28 OFFCURVE",
"-343 56 OFFCURVE",
"-343 81 CURVE SMOOTH",
"-343 129 OFFCURVE",
"-363 169 OFFCURVE",
"-402 169 CURVE SMOOTH",
"-446 169 OFFCURVE",
"-472 116 OFFCURVE",
"-477 57 CURVE",
"-451 57 LINE",
"-456 116 OFFCURVE",
"-482 169 OFFCURVE",
"-526 169 CURVE SMOOTH",
"-565 169 OFFCURVE",
"-585 129 OFFCURVE",
"-585 81 CURVE SMOOTH",
"-585 56 OFFCURVE",
"-580 28 OFFCURVE",
"-570 6 CURVE"
);
}
);
width = 0;
}
);
script = soyombo;
category = Mark;
subCategory = Nonspacing;
},
{
glyphname = "aSub-soyo.ini2";
production = aSubsoyo.ini2;
lastChange = "2019-11-07 14:50:29 +0000";
layers = (
{
anchors = (
{
name = _bottom;
position = "{-168, 549}";
},
{
name = bottom;
position = "{-168, 110}";
}
);
layerId = "BAFE8A66-C264-402A-9333-50E528A5D43A";
paths = (
{
closed = 1;
nodes = (
"-168 417 LINE",
"-74 367 LINE",
"-74 549 LINE",
"-168 549 LINE"
);
},
{
closed = 1;
nodes = (
"-554 609 OFFCURVE",
"-586 583 OFFCURVE",
"-586 541 CURVE SMOOTH",
"-586 479 OFFCURVE",
"-519 447 OFFCURVE",
"-426 447 CURVE SMOOTH",
"-335 447 OFFCURVE",
"-264 472 OFFCURVE",
"-192 541 CURVE",
"-219 580 LINE",
"-275 538 OFFCURVE",
"-330 516 OFFCURVE",
"-396 516 CURVE SMOOTH",
"-448 516 OFFCURVE",
"-472 534 OFFCURVE",
"-472 561 CURVE SMOOTH",
"-472 572 OFFCURVE",
"-468 585 OFFCURVE",
"-460 591 CURVE",
"-470 602 OFFCURVE",
"-488 609 OFFCURVE",
"-513 609 CURVE SMOOTH"
);
},
{
closed = 1;
nodes = (
"-168 110 LINE",
"-74 60 LINE",
"-74 417 LINE",
"-168 417 LINE"
);
},
{
closed = 1;
nodes = (
"-391 393 OFFCURVE",
"-437 365 OFFCURVE",
"-469 309 CURVE",
"-434 288 LINE",
"-412 316 OFFCURVE",
"-381 329 OFFCURVE",
"-348 329 CURVE SMOOTH",
"-307 329 OFFCURVE",
"-286 307 OFFCURVE",
"-286 276 CURVE SMOOTH",
"-286 239 OFFCURVE",
"-316 217 OFFCURVE",
"-374 217 CURVE SMOOTH",
"-445 217 OFFCURVE",
"-509 249 OFFCURVE",
"-573 320 CURVE",
"-606 282 LINE",
"-525 188 OFFCURVE",
"-448 157 OFFCURVE",
"-367 157 CURVE SMOOTH",
"-273 157 OFFCURVE",
"-212 200 OFFCURVE",
"-212 279 CURVE SMOOTH",
"-212 351 OFFCURVE",
"-263 393 OFFCURVE",
"-333 393 CURVE SMOOTH"
);
}
);
width = 0;
}
);
script = soyombo;
category = Mark;
subCategory = Nonspacing;
},
{
glyphname = "kaSub-soyo.ini2";
production = kaSubsoyo.ini2;
lastChange = "2019-11-07 14:50:38 +0000";
layers = (
{
anchors = (
{
name = _bottom;
position = "{-148, 614}";
},
{
name = bottom;
position = "{-148, 326}";
}
);
layerId = "BAFE8A66-C264-402A-9333-50E528A5D43A";
paths = (
{
closed = 1;
nodes = (
"-148 326 LINE",
"-54 276 LINE",
"-54 714 LINE",
"-148 664 LINE"
);
},
{
closed = 1;
nodes = (
"-387 376 LINE",
"-293 326 LINE",
"-293 754 LINE",
"-387 754 LINE"
);
},
{
closed = 1;
nodes = (
"-319 482 LINE",
"-115 482 LINE",
"-115 532 LINE",
"-319 532 LINE"
);
},
{
closed = 1;
nodes = (
"-603 677 OFFCURVE",
"-626 647 OFFCURVE",
"-626 583 CURVE SMOOTH",
"-626 472 OFFCURVE",
"-542 416 OFFCURVE",
"-387 416 CURVE SMOOTH",
"-340 416 LINE",
"-340 466 LINE",
"-387 466 LINE SMOOTH",
"-486 466 OFFCURVE",
"-532 505 OFFCURVE",
"-532 579 CURVE SMOOTH",
"-532 612 OFFCURVE",
"-525 642 OFFCURVE",
"-508 666 CURVE",
"-522 674 OFFCURVE",
"-537 677 OFFCURVE",
"-553 677 CURVE SMOOTH"
);
}
);
width = 0;
}
);
script = soyombo;
category = Mark;
subCategory = Nonspacing;
},
{
glyphname = "khaSub-soyo.ini2";
production = khaSubsoyo.ini2;
lastChange = "2019-11-07 14:50:43 +0000";
layers = (
{
anchors = (
{
name = _bottom;
position = "{-148, 614}";
},
{
name = bottom;
position = "{-148, 341}";
}
);
layerId = "BAFE8A66-C264-402A-9333-50E528A5D43A";
paths = (
{
closed = 1;
nodes = (
"-148 341 LINE",
"-54 291 LINE",
"-54 714 LINE",
"-148 664 LINE"
);
},
{
closed = 1;
nodes = (
"-387 391 LINE",
"-293 341 LINE",
"-293 754 LINE",
"-387 754 LINE"
);
},
{
closed = 1;
nodes = (
"-319 512 LINE",
"-115 512 LINE",
"-115 562 LINE",
"-319 562 LINE"
);
},
{
closed = 1;
nodes = (
"-538 428 OFFCURVE",
"-523 431 OFFCURVE",
"-509 439 CURVE",
"-525 462 OFFCURVE",
"-532 490 OFFCURVE",
"-532 522 CURVE SMOOTH",
"-532 591 OFFCURVE",
"-488 628 OFFCURVE",
"-389 628 CURVE SMOOTH",
"-341 628 LINE",
"-341 678 LINE",
"-389 678 LINE SMOOTH",
"-544 678 OFFCURVE",
"-626 624 OFFCURVE",
"-626 517 CURVE SMOOTH",
"-626 457 OFFCURVE",
"-603 428 OFFCURVE",
"-554 428 CURVE SMOOTH"
);
}
);
width = 0;
}
);
script = soyombo;
category = Mark;
subCategory = Nonspacing;
},
{
glyphname = "gaSub-soyo.ini2";
production = gaSubsoyo.ini2;
lastChange = "2019-11-07 14:50:48 +0000";
layers = (
{
anchors = (
{
name = _bottom;
position = "{-148, 614}";
},
{
name = bottom;
position = "{-148, 336}";
}
);
layerId = "BAFE8A66-C264-402A-9333-50E528A5D43A";
paths = (
{
closed = 1;
nodes = (
"-148 336 LINE",
"-54 286 LINE",
"-54 714 LINE",
"-148 664 LINE"
);
},
{
closed = 1;
nodes = (
"-387 386 LINE",
"-293 336 LINE",
"-293 754 LINE",
"-387 754 LINE"
);
},
{
closed = 1;
nodes = (
"-579 524 LINE",
"-115 524 LINE",
"-115 574 LINE",
"-579 574 LINE"
);
},
{
closed = 1;
nodes = (
"-593 647 OFFCURVE",
"-626 612 OFFCURVE",
"-626 549 CURVE SMOOTH",
"-626 486 OFFCURVE",
"-593 451 OFFCURVE",
"-532 423 CURVE",
"-532 675 LINE"
);
}
);
width = 0;
}
);
script = soyombo;
category = Mark;
subCategory = Nonspacing;
},
{
glyphname = "ghaSub-soyo.ini2";
production = ghaSubsoyo.ini2;
lastChange = "2019-11-07 14:50:52 +0000";
layers = (
{
anchors = (
{
name = _bottom;
position = "{-148, 614}";
},
{
name = bottom;
position = "{-148, 326}";
}
);
layerId = "BAFE8A66-C264-402A-9333-50E528A5D43A";
paths = (
{
closed = 1;
nodes = (
"-148 326 LINE",
"-54 276 LINE",
"-54 714 LINE",
"-148 664 LINE"
);
},
{
closed = 1;
nodes = (
"-387 376 LINE",
"-293 326 LINE",
"-293 754 LINE",
"-387 754 LINE"
);
},
{
closed = 1;
nodes = (
"-529 519 LINE",
"-115 519 LINE",
"-115 569 LINE",
"-529 569 LINE"
);
},
{
closed = 1;
nodes = (
"-626 644 LINE",
"-579 625 OFFCURVE",
"-556 600 OFFCURVE",
"-556 544 CURVE SMOOTH",
"-556 489 OFFCURVE",
"-579 463 OFFCURVE",
"-626 444 CURVE",
"-618 414 LINE",
"-530 435 OFFCURVE",
"-482 472 OFFCURVE",
"-482 544 CURVE SMOOTH",
"-482 617 OFFCURVE",
"-530 654 OFFCURVE",
"-618 674 CURVE"
);
}
);
width = 0;
}
);
script = soyombo;
category = Mark;
subCategory = Nonspacing;
},
{
glyphname = "ngaSub-soyo.ini2";
production = ngaSubsoyo.ini2;
lastChange = "2019-11-07 14:50:56 +0000";
layers = (
{
anchors = (
{
name = _bottom;
position = "{-148, 614}";
},
{
name = bottom;
position = "{-148, 336}";
}
);
layerId = "BAFE8A66-C264-402A-9333-50E528A5D43A";
paths = (
{
closed = 1;
nodes = (
"-148 336 LINE",
"-54 286 LINE",
"-54 714 LINE",
"-148 664 LINE"
);
},
{
closed = 1;
nodes = (
"-387 386 LINE",
"-293 336 LINE",
"-293 754 LINE",
"-387 754 LINE"
);
},
{
closed = 1;
nodes = (
"-579 524 LINE",
"-115 524 LINE",
"-115 574 LINE",
"-579 574 LINE"
);
},
{
closed = 1;
nodes = (
"-626 473 LINE",
"-532 423 LINE",
"-532 675 LINE",
"-626 625 LINE"
);
}
);
width = 0;
}
);
script = soyombo;
category = Mark;
subCategory = Nonspacing;
},
{
glyphname = "caSub-soyo.ini2";
production = caSubsoyo.ini2;
lastChange = "2019-11-07 14:51:11 +0000";
layers = (
{
anchors = (
{
name = _bottom;
position = "{-148, 684}";
},
{
name = bottom;
position = "{-148, 394}";
}
);
layerId = "BAFE8A66-C264-402A-9333-50E528A5D43A";
paths = (
{
closed = 1;
nodes = (
"-148 394 LINE",
"-54 344 LINE",
"-54 684 LINE",
"-148 684 LINE"
);
},
{
closed = 1;
nodes = (
"-396 672 LINE",
"-201 512 LINE",
"-148 554 LINE",
"-343 714 LINE"
);
},
{
closed = 1;
nodes = (
"-148 554 LINE",
"-201 597 LINE",
"-396 437 LINE",
"-343 394 LINE"
);
},
{
closed = 1;
nodes = (
"-290 437 LINE",
"-485 597 LINE",
"-538 554 LINE",
"-343 394 LINE"
);
}
);
width = 0;
}
);
script = soyombo;
category = Mark;
subCategory = Nonspacing;
},
{
glyphname = "chaSub-soyo.ini2";
production = chaSubsoyo.ini2;
lastChange = "2019-11-07 14:51:26 +0000";
layers = (
{
anchors = (
{
name = _bottom;
position = "{-148, 684}";
},
{
name = bottom;
position = "{-148, 414}";
}
);
layerId = "BAFE8A66-C264-402A-9333-50E528A5D43A";
paths = (
{
closed = 1;
nodes = (
"-148 414 LINE",
"-54 364 LINE",
"-54 684 LINE",
"-148 684 LINE"
);
},
{
closed = 1;
nodes = (
"-373 672 LINE",
"-198 522 LINE",
"-148 564 LINE",
"-323 714 LINE"
);
},
{
closed = 1;
nodes = (
"-148 564 LINE",
"-198 607 LINE",
"-373 457 LINE",
"-323 414 LINE"
);
},
{
closed = 1;
nodes = (
"-578 495 LINE",
"-528 453 LINE",
"-273 672 LINE",
"-323 714 LINE"
);
},
{
closed = 1;
nodes = (
"-273 457 LINE",
"-528 675 LINE",
"-578 633 LINE",
"-323 414 LINE"
);
}
);
width = 0;
}
);
script = soyombo;
category = Mark;
subCategory = Nonspacing;
},
{
glyphname = "jaSub-soyo.ini2";
production = jaSubsoyo.ini2;
lastChange = "2019-11-07 14:51:38 +0000";
layers = (
{
anchors = (
{
name = _bottom;
position = "{-148, 684}";
},
{
name = bottom;
position = "{-148, 394}";
}
);
layerId = "BAFE8A66-C264-402A-9333-50E528A5D43A";
paths = (
{
closed = 1;
nodes = (
"-148 394 LINE",
"-54 344 LINE",
"-54 684 LINE",
"-148 684 LINE"
);
},
{
closed = 1;
nodes = (
"-148 554 LINE",
"-203 599 LINE",
"-398 439 LINE",
"-343 394 LINE"
);
},
{
closed = 1;
nodes = (
"-398 669 LINE",
"-203 509 LINE",
"-148 554 LINE",
"-343 714 LINE"
);
},
{
closed = 1;
nodes = (
"-538 554 LINE",
"-482 509 LINE",
"-287 669 LINE",
"-343 714 LINE"
);
}
);
width = 0;
}
);
script = soyombo;
category = Mark;
subCategory = Nonspacing;
},
{
glyphname = "jhaSub-soyo.ini2";
production = jhaSubsoyo.ini2;
lastChange = "2019-11-07 14:51:44 +0000";
layers = (
{
anchors = (
{
name = _bottom;
position = "{-148, 684}";
},
{
name = bottom;
position = "{-148, 394}";
}
);
layerId = "BAFE8A66-C264-402A-9333-50E528A5D43A";
paths = (
{
closed = 1;
nodes = (
"-148 394 LINE",
"-54 344 LINE",
"-54 684 LINE",
"-148 684 LINE"
);
},
{
closed = 1;
nodes = (
"-148 554 LINE",
"-203 599 LINE",
"-398 439 LINE",
"-343 394 LINE"
);
},
{
closed = 1;
nodes = (
"-398 669 LINE",
"-203 509 LINE",
"-148 554 LINE",
"-343 714 LINE"
);
},
{
closed = 1;
nodes = (
"-538 554 LINE",
"-482 509 LINE",
"-287 669 LINE",
"-343 714 LINE"
);
},
{
closed = 1;
nodes = (
"-538 554 LINE",
"-472 554 LINE",
"-472 679 LINE",
"-538 714 LINE"
);
}
);
width = 0;
}
);
script = soyombo;
category = Mark;
subCategory = Nonspacing;
},
{
glyphname = "nyaSub-soyo.ini2";
production = nyaSubsoyo.ini2;
lastChange = "2019-11-07 14:51:54 +0000";
layers = (
{
anchors = (
{
name = _bottom;
position = "{-148, 684}";
},
{
name = bottom;
position = "{-148, 394}";
}
);
layerId = "BAFE8A66-C264-402A-9333-50E528A5D43A";
paths = (
{
closed = 1;
nodes = (
"-148 394 LINE",
"-54 344 LINE",
"-54 684 LINE",
"-148 684 LINE"
);
},
{
closed = 1;
nodes = (
"-148 554 LINE",
"-195 593 LINE",
"-391 432 LINE",
"-343 394 LINE"
);
},
{
closed = 1;
nodes = (
"-391 676 LINE",
"-195 516 LINE",
"-148 554 LINE",
"-343 714 LINE"
);
},
{
closed = 1;
nodes = (
"-465 615 LINE",
"-418 576 LINE",
"-295 676 LINE",
"-343 714 LINE"
);
},
{
closed = 1;
nodes = (
"-295 432 LINE",
"-490 593 LINE",
"-538 554 LINE",
"-343 394 LINE"
);
},
{
closed = 1;
nodes = (
"-295 553 LINE",
"-418 653 LINE",
"-465 615 LINE",
"-343 515 LINE"
);
}
);
width = 0;
}
);
script = soyombo;
category = Mark;
subCategory = Nonspacing;
},
{
glyphname = "ttaSub-soyo.ini2";
production = ttaSubsoyo.ini2;
lastChange = "2019-11-07 14:52:23 +0000";
layers = (
{
anchors = (
{
name = _bottom;
position = "{-168, 499}";
},
{
name = bottom;
position = "{-168, 161}";
}
);
layerId = "BAFE8A66-C264-402A-9333-50E528A5D43A";
paths = (
{
closed = 1;
nodes = (
"-168 161 LINE",
"-74 111 LINE",
"-74 499 LINE",
"-168 499 LINE"
);
},
{
closed = 1;
nodes = (
"-407 211 LINE",
"-313 161 LINE",
"-313 599 LINE",
"-407 599 LINE"
);
},
{
closed = 1;
nodes = (
"-407 409 LINE",
"-407 509 LINE",
"-519 459 LINE"
);
},
{
closed = 1;
nodes = (
"-407 309 LINE",
"-407 409 LINE",
"-519 359 LINE"
);
}
);
width = 0;
}
);
script = soyombo;
category = Mark;
subCategory = Nonspacing;
},
{
glyphname = "tthaSub-soyo.ini2";
production = tthaSubsoyo.ini2;
lastChange = "2019-11-07 14:53:25 +0000";
layers = (
{
anchors = (
{
name = _bottom;
position = "{-179, 499}";
},
{
name = bottom;
position = "{-179, 161}";
}
);
layerId = "BAFE8A66-C264-402A-9333-50E528A5D43A";
paths = (
{
closed = 1;
nodes = (
"-179 161 LINE",
"-85 111 LINE",
"-85 499 LINE",
"-179 499 LINE"
);
},
{
closed = 1;
nodes = (
"-418 211 LINE",
"-324 161 LINE",
"-324 599 LINE",
"-418 599 LINE"
);
},
{
closed = 1;
nodes = (
"-418 409 LINE",
"-418 509 LINE",
"-530 459 LINE"
);
},
{
closed = 1;
nodes = (
"-418 309 LINE",
"-418 409 LINE",
"-530 359 LINE"
);
},
{
closed = 1;
nodes = (
"-324 459 LINE",
"-324 359 LINE",
"-212 409 LINE"
);
}
);
width = 0;
}
);
script = soyombo;
category = Mark;
subCategory = Nonspacing;
},
{
glyphname = "ddaSub-soyo.ini2";
production = ddaSubsoyo.ini2;
lastChange = "2019-11-07 14:54:29 +0000";
layers = (
{
anchors = (
{
name = _bottom;
position = "{-168, 489}";
},
{
name = bottom;
position = "{-168, 161}";
}
);
layerId = "BAFE8A66-C264-402A-9333-50E528A5D43A";
paths = (
{
closed = 1;
nodes = (
"-168 161 LINE",
"-74 111 LINE",
"-74 489 LINE",
"-168 489 LINE"
);
},
{
closed = 1;
nodes = (
"-407 211 LINE",
"-313 161 LINE",
"-313 589 LINE",
"-407 589 LINE"
);
},
{
closed = 1;
nodes = (
"-407 349 LINE",
"-407 469 LINE",
"-519 409 LINE"
);
},
{
closed = 1;
nodes = (
"-149 384 LINE",
"-135 384 LINE",
"-135 434 LINE",
"-149 434 LINE"
);
}
);
width = 0;
}
);
script = soyombo;
category = Mark;
subCategory = Nonspacing;
},
{
glyphname = "ddhaSub-soyo.ini2";
production = ddhaSubsoyo.ini2;
lastChange = "2019-11-07 14:54:52 +0000";
layers = (
{
anchors = (
{
name = _bottom;
position = "{-168, 549}";
},
{
name = bottom;
position = "{-168, 103}";
}
);
layerId = "BAFE8A66-C264-402A-9333-50E528A5D43A";
paths = (
{
closed = 1;
nodes = (
"-168 326 LINE",
"-74 276 LINE",
"-74 599 LINE",
"-168 549 LINE"
);
},
{
closed = 1;
nodes = (
"-407 376 LINE",
"-313 326 LINE",
"-313 649 LINE",
"-407 649 LINE"
);
},
{
closed = 1;
nodes = (
"-139 454 LINE",
"-135 454 LINE",
"-135 504 LINE",
"-139 504 LINE"
);
},
{
closed = 1;
nodes = (
"-625 617 OFFCURVE",
"-646 594 OFFCURVE",
"-646 544 CURVE SMOOTH",
"-646 452 OFFCURVE",
"-568 405 OFFCURVE",
"-415 405 CURVE SMOOTH",
"-367 405 LINE",
"-367 455 LINE",
"-415 455 LINE SMOOTH",
"-512 455 OFFCURVE",
"-552 485 OFFCURVE",
"-552 541 CURVE SMOOTH",
"-552 565 OFFCURVE",
"-546 588 OFFCURVE",
"-533 606 CURVE",
"-547 614 OFFCURVE",
"-562 617 OFFCURVE",
"-578 617 CURVE SMOOTH"
);
},
{
closed = 1;
nodes = (
"-168 103 LINE",
"-74 53 LINE",
"-74 326 LINE",
"-168 326 LINE"
);
},
{
closed = 1;
nodes = (
"-407 153 LINE",
"-313 103 LINE",
"-313 416 LINE",
"-407 416 LINE"
);
},
{
closed = 1;
nodes = (
"-407 235 LINE",
"-407 355 LINE",
"-519 295 LINE"
);
},
{
closed = 1;
nodes = (
"-149 270 LINE",
"-135 270 LINE",
"-135 320 LINE",
"-149 320 LINE"
);
}
);
width = 0;
}
);
script = soyombo;
category = Mark;
subCategory = Nonspacing;
},
{
glyphname = "nnaSub-soyo.ini2";
production = nnaSubsoyo.ini2;
lastChange = "2019-11-07 14:55:08 +0000";
layers = (
{
anchors = (
{
name = _bottom;
position = "{-168, 489}";
},
{
name = bottom;
position = "{-168, 161}";
}
);
layerId = "BAFE8A66-C264-402A-9333-50E528A5D43A";
paths = (
{
closed = 1;
nodes = (
"-168 161 LINE",
"-74 111 LINE",
"-74 489 LINE",
"-168 489 LINE"
);
},
{
closed = 1;
nodes = (
"-407 211 LINE",
"-313 161 LINE",
"-313 589 LINE",
"-407 589 LINE"
);
},
{
closed = 1;
nodes = (
"-407 349 LINE",
"-407 469 LINE",
"-519 409 LINE"
);
},
{
closed = 1;
nodes = (
"-359 384 LINE",
"-135 384 LINE",
"-135 434 LINE",
"-359 434 LINE"
);
}
);
width = 0;
}
);
script = soyombo;
category = Mark;
subCategory = Nonspacing;
},
{
glyphname = "taSub-soyo.ini2";
production = taSubsoyo.ini2;
lastChange = "2019-11-07 14:55:18 +0000";
layers = (
{
anchors = (
{
name = _bottom;
position = "{-148, 714}";
},
{
name = bottom;
position = "{-148, 449}";
}
);
layerId = "BAFE8A66-C264-402A-9333-50E528A5D43A";
paths = (
{
closed = 1;
nodes = (
"-148 449 LINE",
"-54 399 LINE",
"-54 714 LINE",
"-148 714 LINE"
);
},
{
closed = 1;
nodes = (
"-385 449 OFFCURVE",
"-335 478 OFFCURVE",
"-302 537 CURVE",
"-337 558 LINE",
"-363 527 OFFCURVE",
"-396 513 OFFCURVE",
"-433 513 CURVE SMOOTH",
"-485 513 OFFCURVE",
"-512 540 OFFCURVE",
"-512 580 CURVE SMOOTH",
"-512 626 OFFCURVE",
"-475 654 OFFCURVE",
"-400 654 CURVE SMOOTH",
"-301 654 OFFCURVE",
"-204 609 OFFCURVE",
"-107 513 CURVE",
"-92 572 LINE",
"-203 678 OFFCURVE",
"-308 714 OFFCURVE",
"-407 714 CURVE SMOOTH",
"-520 714 OFFCURVE",
"-586 667 OFFCURVE",
"-586 578 CURVE SMOOTH",
"-586 496 OFFCURVE",
"-528 449 OFFCURVE",
"-449 449 CURVE SMOOTH"
);
}
);
width = 0;
}
);
script = soyombo;
category = Mark;
subCategory = Nonspacing;
},
{
glyphname = "thaSub-soyo.ini2";
production = thaSubsoyo.ini2;
lastChange = "2019-11-07 14:55:28 +0000";
layers = (
{
anchors = (
{
name = _bottom;
position = "{-148, 684}";
},
{
name = bottom;
position = "{-148, 351}";
}
);
layerId = "BAFE8A66-C264-402A-9333-50E528A5D43A";
paths = (
{
closed = 1;
nodes = (
"-262 479 OFFCURVE",
"-212 527 OFFCURVE",
"-212 597 CURVE SMOOTH",
"-212 666 OFFCURVE",
"-262 714 OFFCURVE",
"-343 714 CURVE SMOOTH",
"-424 714 OFFCURVE",
"-474 666 OFFCURVE",
"-474 597 CURVE SMOOTH",
"-474 527 OFFCURVE",
"-424 479 OFFCURVE",
"-343 479 CURVE SMOOTH"
);
},
{
closed = 1;
nodes = (
"-385 543 OFFCURVE",
"-410 564 OFFCURVE",
"-410 597 CURVE SMOOTH",
"-410 629 OFFCURVE",
"-385 650 OFFCURVE",
"-343 650 CURVE SMOOTH",
"-301 650 OFFCURVE",
"-276 629 OFFCURVE",
"-276 597 CURVE SMOOTH",
"-276 564 OFFCURVE",
"-301 543 OFFCURVE",
"-343 543 CURVE SMOOTH"
);
},
{
closed = 1;
nodes = (
"-54 684 LINE",
"-148 684 LINE",
"-148 479 LINE",
"-54 429 LINE"
);
},
{
closed = 1;
nodes = (
"-54 479 LINE",
"-148 479 LINE",
"-148 351 LINE",
"-54 301 LINE"
);
},
{
closed = 1;
nodes = (
"-373 394 LINE",
"-307 394 LINE",
"-307 495 LINE",
"-373 495 LINE"
);
},
{
closed = 1;
nodes = (
"-500 351 LINE",
"-186 351 LINE",
"-186 417 LINE",
"-500 417 LINE"
);
}
);
width = 0;
}
);
script = soyombo;
category = Mark;
subCategory = Nonspacing;
},
{
glyphname = "daSub-soyo.ini2";
production = daSubsoyo.ini2;
lastChange = "2019-11-07 14:55:38 +0000";
layers = (
{
anchors = (
{
name = _bottom;
position = "{-168, 529}";
},
{
name = bottom;
position = "{-168, 161}";
}
);
layerId = "BAFE8A66-C264-402A-9333-50E528A5D43A";
paths = (
{
closed = 1;
nodes = (
"-168 161 LINE",
"-74 111 LINE",
"-74 529 LINE",
"-168 529 LINE"
);
},
{
closed = 1;
nodes = (
"-407 333 LINE",
"-407 211 LINE",
"-313 161 LINE",
"-313 333 LINE"
);
},
{
closed = 1;
nodes = (
"-445 350 OFFCURVE",
"-499 368 OFFCURVE",
"-499 421 CURVE SMOOTH",
"-499 475 OFFCURVE",
"-448 492 OFFCURVE",
"-313 492 CURVE",
"-313 549 LINE",
"-489 549 OFFCURVE",
"-573 513 OFFCURVE",
"-573 421 CURVE SMOOTH",
"-573 331 OFFCURVE",
"-492 293 OFFCURVE",
"-313 293 CURVE",
"-313 350 LINE"
);
},
{
closed = 1;
nodes = (
"-313 513 LINE",
"-313 619 LINE",
"-407 619 LINE",
"-407 513 LINE"
);
}
);
width = 0;
}
);
script = soyombo;
category = Mark;
subCategory = Nonspacing;
},
{
glyphname = "dhaSub-soyo.ini2";
production = dhaSubsoyo.ini2;
lastChange = "2019-11-07 14:55:59 +0000";
layers = (
{
anchors = (
{
name = _bottom;
position = "{-218, 634}";
},
{
name = bottom;
position = "{-218, 230}";
}
);
layerId = "BAFE8A66-C264-402A-9333-50E528A5D43A";
paths = (
{
closed = 1;
nodes = (
"-218 411 LINE",
"-124 361 LINE",
"-124 714 LINE",
"-218 664 LINE"
);
},
{
closed = 1;
nodes = (
"-457 461 LINE",
"-363 411 LINE",
"-363 754 LINE",
"-457 754 LINE"
);
},
{
closed = 1;
nodes = (
"-191 519 LINE",
"-185 519 LINE",
"-185 569 LINE",
"-191 569 LINE"
);
},
{
closed = 1;
nodes = (
"-675 682 OFFCURVE",
"-696 659 OFFCURVE",
"-696 609 CURVE SMOOTH",
"-696 517 OFFCURVE",
"-618 470 OFFCURVE",
"-465 470 CURVE SMOOTH",
"-416 470 LINE",
"-416 520 LINE",
"-465 520 LINE SMOOTH",
"-562 520 OFFCURVE",
"-602 550 OFFCURVE",
"-602 606 CURVE SMOOTH",
"-602 630 OFFCURVE",
"-596 653 OFFCURVE",
"-583 671 CURVE",
"-597 679 OFFCURVE",
"-612 682 OFFCURVE",
"-628 682 CURVE SMOOTH"
);
},
{
closed = 1;
nodes = (
"-218 230 LINE",
"-124 180 LINE",
"-124 411 LINE",
"-218 411 LINE"
);
},
{
closed = 1;
nodes = (
"-428 238 OFFCURVE",
"-388 247 OFFCURVE",
"-352 264 CURVE",
"-372 313 LINE",
"-397 306 OFFCURVE",
"-428 302 OFFCURVE",
"-453 302 CURVE SMOOTH",
"-493 302 OFFCURVE",
"-512 315 OFFCURVE",
"-512 336 CURVE SMOOTH",
"-512 367 OFFCURVE",
"-473 387 OFFCURVE",
"-363 411 CURVE",
"-363 503 LINE",
"-457 503 LINE",
"-457 442 LINE",
"-534 422 OFFCURVE",
"-586 390 OFFCURVE",
"-586 330 CURVE SMOOTH",
"-586 273 OFFCURVE",
"-538 238 OFFCURVE",
"-466 238 CURVE SMOOTH"
);
}
);
width = 0;
}
);
script = soyombo;
category = Mark;
subCategory = Nonspacing;
},
{
glyphname = "naSub-soyo.ini2";
production = naSubsoyo.ini2;
lastChange = "2019-11-07 14:56:14 +0000";
layers = (
{
anchors = (
{
name = _bottom;
position = "{-148, 684}";
},
{
name = bottom;
position = "{-148, 269}";
}
);
layerId = "BAFE8A66-C264-402A-9333-50E528A5D43A";
paths = (
{
closed = 1;
nodes = (
"-148 269 LINE",
"-54 219 LINE",
"-54 684 LINE",
"-148 684 LINE"
);
},
{
closed = 1;
nodes = (
"-299 494 LINE",
"-115 494 LINE",
"-115 544 LINE",
"-299 544 LINE"
);
},
{
closed = 1;
nodes = (
"-346 319 LINE",
"-252 269 LINE",
"-252 714 LINE",
"-346 664 LINE"
);
},
{
closed = 1;
nodes = (
"-346 438 LINE SMOOTH",
"-462 438 OFFCURVE",
"-496 464 OFFCURVE",
"-496 519 CURVE SMOOTH",
"-496 574 OFFCURVE",
"-462 600 OFFCURVE",
"-346 600 CURVE SMOOTH",
"-300 600 LINE",
"-300 664 LINE",
"-346 664 LINE SMOOTH",
"-502 664 OFFCURVE",
"-560 610 OFFCURVE",
"-560 519 CURVE SMOOTH",
"-560 428 OFFCURVE",
"-502 374 OFFCURVE",
"-346 374 CURVE SMOOTH",
"-300 374 LINE",
"-300 438 LINE"
);
}
);
width = 0;
}
);
script = soyombo;
category = Mark;
subCategory = Nonspacing;
},
{
glyphname = "paSub-soyo.ini2";
production = paSubsoyo.ini2;
lastChange = "2019-11-07 14:56:27 +0000";
layers = (
{
anchors = (
{
name = _bottom;
position = "{-148, 506}";
},
{
name = bottom;
position = "{-148, 271}";
}
);
layerId = "BAFE8A66-C264-402A-9333-50E528A5D43A";
paths = (
{
closed = 1;
nodes = (
"-148 271 LINE",
"-54 221 LINE",
"-54 506 LINE",
"-148 506 LINE"
);
},
{
closed = 1;
nodes = (
"-528 536 OFFCURVE",
"-586 488 OFFCURVE",
"-586 407 CURVE SMOOTH",
"-586 318 OFFCURVE",
"-520 271 OFFCURVE",
"-413 271 CURVE SMOOTH",
"-311 271 OFFCURVE",
"-209 314 OFFCURVE",
"-102 443 CURVE",
"-147 464 LINE",
"-232 373 OFFCURVE",
"-315 331 OFFCURVE",
"-406 331 CURVE SMOOTH",
"-475 331 OFFCURVE",
"-512 358 OFFCURVE",
"-512 404 CURVE SMOOTH",
"-512 444 OFFCURVE",
"-485 472 OFFCURVE",
"-433 472 CURVE SMOOTH",
"-396 472 OFFCURVE",
"-363 458 OFFCURVE",
"-337 427 CURVE",
"-302 448 LINE",
"-335 507 OFFCURVE",
"-385 536 OFFCURVE",
"-449 536 CURVE SMOOTH"
);
}
);
width = 0;
}
);
script = soyombo;
category = Mark;
subCategory = Nonspacing;
},
{
glyphname = "phaSub-soyo.ini2";
production = phaSubsoyo.ini2;
lastChange = "2019-11-07 14:56:46 +0000";
layers = (
{
anchors = (
{
name = _bottom;
position = "{-168, 549}";
},
{
name = bottom;
position = "{-168, 182}";
}
);
layerId = "BAFE8A66-C264-402A-9333-50E528A5D43A";
paths = (
{
closed = 1;
nodes = (
"-168 417 LINE",
"-74 367 LINE",
"-74 549 LINE",
"-168 549 LINE"
);
},
{
closed = 1;
nodes = (
"-554 609 OFFCURVE",
"-586 583 OFFCURVE",
"-586 541 CURVE SMOOTH",
"-586 479 OFFCURVE",
"-519 447 OFFCURVE",
"-426 447 CURVE SMOOTH",
"-335 447 OFFCURVE",
"-264 472 OFFCURVE",
"-192 541 CURVE",
"-219 580 LINE",
"-275 538 OFFCURVE",
"-330 516 OFFCURVE",
"-396 516 CURVE SMOOTH",
"-448 516 OFFCURVE",
"-472 534 OFFCURVE",
"-472 561 CURVE SMOOTH",
"-472 572 OFFCURVE",
"-468 585 OFFCURVE",
"-460 591 CURVE",
"-470 602 OFFCURVE",
"-488 609 OFFCURVE",
"-513 609 CURVE SMOOTH"
);
},
{
closed = 1;
nodes = (
"-168 182 LINE",
"-74 132 LINE",
"-74 417 LINE",
"-168 417 LINE"
);
},
{
closed = 1;
nodes = (
"-551 417 OFFCURVE",
"-606 375 OFFCURVE",
"-606 302 CURVE SMOOTH",
"-606 223 OFFCURVE",
"-544 182 OFFCURVE",
"-440 182 CURVE SMOOTH",
"-337 182 OFFCURVE",
"-234 222 OFFCURVE",
"-125 342 CURVE",
"-167 368 LINE",
"-254 282 OFFCURVE",
"-339 242 OFFCURVE",
"-432 242 CURVE SMOOTH",
"-498 242 OFFCURVE",
"-532 264 OFFCURVE",
"-532 301 CURVE SMOOTH",
"-532 332 OFFCURVE",
"-508 353 OFFCURVE",
"-460 353 CURVE SMOOTH",
"-423 353 OFFCURVE",
"-389 340 OFFCURVE",
"-364 312 CURVE",
"-329 333 LINE",
"-363 390 OFFCURVE",
"-413 417 OFFCURVE",
"-476 417 CURVE SMOOTH"
);
}
);
width = 0;
}
);
script = soyombo;
category = Mark;
subCategory = Nonspacing;
},
{
glyphname = "baSub-soyo.ini2";
production = baSubsoyo.ini2;
lastChange = "2019-11-07 14:56:57 +0000";
layers = (
{
anchors = (
{
name = _bottom;
position = "{-148, 714}";
},
{
name = bottom;
position = "{-148, 387}";
}
);
layerId = "BAFE8A66-C264-402A-9333-50E528A5D43A";
paths = (
{
closed = 1;
nodes = (
"-148 387 LINE",
"-54 337 LINE",
"-54 714 LINE",
"-148 714 LINE"
);
},
{
closed = 1;
nodes = (
"-192 553 OFFCURVE",
"-232 586 OFFCURVE",
"-298 607 CURVE",
"-314 570 LINE",
"-274 555 OFFCURVE",
"-256 537 OFFCURVE",
"-256 515 CURVE SMOOTH",
"-256 481 OFFCURVE",
"-295 461 OFFCURVE",
"-363 461 CURVE SMOOTH",
"-423 461 OFFCURVE",
"-467 478 OFFCURVE",
"-467 522 CURVE SMOOTH",
"-467 562 OFFCURVE",
"-428 607 OFFCURVE",
"-321 675 CURVE",
"-344 714 LINE",
"-490 628 OFFCURVE",
"-527 580 OFFCURVE",
"-527 515 CURVE SMOOTH",
"-527 433 OFFCURVE",
"-465 387 OFFCURVE",
"-357 387 CURVE SMOOTH",
"-250 387 OFFCURVE",
"-192 435 OFFCURVE",
"-192 500 CURVE SMOOTH"
);
}
);
width = 0;
}
);
script = soyombo;
category = Mark;
subCategory = Nonspacing;
},
{
glyphname = "bhaSub-soyo.ini2";
production = bhaSubsoyo.ini2;
lastChange = "2019-11-07 14:57:22 +0000";
layers = (
{
anchors = (
{
name = _bottom;
position = "{-168, 549}";
},
{
name = bottom;
position = "{-168, 150}";
}
);
layerId = "BAFE8A66-C264-402A-9333-50E528A5D43A";
paths = (
{
closed = 1;
nodes = (
"-168 427 LINE",
"-74 377 LINE",
"-74 549 LINE",
"-168 549 LINE"
);
},
{
closed = 1;
nodes = (
"-554 609 OFFCURVE",
"-586 583 OFFCURVE",
"-586 541 CURVE SMOOTH",
"-586 479 OFFCURVE",
"-519 447 OFFCURVE",
"-426 447 CURVE SMOOTH",
"-335 447 OFFCURVE",
"-264 472 OFFCURVE",
"-192 541 CURVE",
"-219 580 LINE",
"-275 538 OFFCURVE",
"-330 516 OFFCURVE",
"-396 516 CURVE SMOOTH",
"-448 516 OFFCURVE",
"-472 534 OFFCURVE",
"-472 561 CURVE SMOOTH",
"-472 572 OFFCURVE",
"-468 585 OFFCURVE",
"-460 591 CURVE",
"-470 602 OFFCURVE",
"-488 609 OFFCURVE",
"-513 609 CURVE SMOOTH"
);
},
{
closed = 1;
nodes = (
"-168 150 LINE",
"-74 100 LINE",
"-74 427 LINE",
"-168 427 LINE"
);
},
{
closed = 1;
nodes = (
"-212 294 OFFCURVE",
"-253 320 OFFCURVE",
"-320 338 CURVE",
"-334 301 LINE",
"-294 289 OFFCURVE",
"-276 277 OFFCURVE",
"-276 261 CURVE SMOOTH",
"-276 237 OFFCURVE",
"-315 224 OFFCURVE",
"-383 224 CURVE SMOOTH",
"-443 224 OFFCURVE",
"-487 236 OFFCURVE",
"-487 271 CURVE SMOOTH",
"-487 300 OFFCURVE",
"-449 334 OFFCURVE",
"-343 386 CURVE",
"-363 427 LINE",
"-509 360 OFFCURVE",
"-547 320 OFFCURVE",
"-547 263 CURVE SMOOTH",
"-547 190 OFFCURVE",
"-485 150 OFFCURVE",
"-377 150 CURVE SMOOTH",
"-270 150 OFFCURVE",
"-212 190 OFFCURVE",
"-212 246 CURVE SMOOTH"
);
}
);
width = 0;
}
);
script = soyombo;
category = Mark;
subCategory = Nonspacing;
},
{
glyphname = "maSub-soyo.ini2";
production = maSubsoyo.ini2;
lastChange = "2019-11-07 14:57:36 +0000";
layers = (
{
anchors = (
{
name = _bottom;
position = "{-168, 547}";
},
{
name = bottom;
position = "{-168, 175}";
}
);
layerId = "BAFE8A66-C264-402A-9333-50E528A5D43A";
paths = (
{
closed = 1;
nodes = (
"-168 415 LINE",
"-74 365 LINE",
"-74 547 LINE",
"-168 547 LINE"
);
},
{
closed = 1;
nodes = (
"-554 607 OFFCURVE",
"-586 581 OFFCURVE",
"-586 539 CURVE SMOOTH",
"-586 477 OFFCURVE",
"-519 445 OFFCURVE",
"-426 445 CURVE SMOOTH",
"-335 445 OFFCURVE",
"-264 470 OFFCURVE",
"-192 539 CURVE",
"-219 578 LINE",
"-275 536 OFFCURVE",
"-330 514 OFFCURVE",
"-396 514 CURVE SMOOTH",
"-448 514 OFFCURVE",
"-472 532 OFFCURVE",
"-472 559 CURVE SMOOTH",
"-472 570 OFFCURVE",
"-468 583 OFFCURVE",
"-460 589 CURVE",
"-470 600 OFFCURVE",
"-488 607 OFFCURVE",
"-513 607 CURVE SMOOTH"
);
},
{
closed = 1;
nodes = (
"-278 175 OFFCURVE",
"-227 224 OFFCURVE",
"-227 295 CURVE SMOOTH",
"-227 366 OFFCURVE",
"-278 415 OFFCURVE",
"-363 415 CURVE SMOOTH",
"-448 415 OFFCURVE",
"-499 366 OFFCURVE",
"-499 295 CURVE SMOOTH",
"-499 224 OFFCURVE",
"-448 175 OFFCURVE",
"-363 175 CURVE SMOOTH"
);
},
{
closed = 1;
nodes = (
"-408 239 OFFCURVE",
"-435 261 OFFCURVE",
"-435 295 CURVE SMOOTH",
"-435 329 OFFCURVE",
"-408 351 OFFCURVE",
"-363 351 CURVE SMOOTH",
"-318 351 OFFCURVE",
"-291 329 OFFCURVE",
"-291 295 CURVE SMOOTH",
"-291 261 OFFCURVE",
"-318 239 OFFCURVE",
"-363 239 CURVE SMOOTH"
);
},
{
closed = 1;
nodes = (
"-74 415 LINE",
"-168 415 LINE",
"-168 175 LINE",
"-74 125 LINE"
);
}
);
width = 0;
}
);
script = soyombo;
category = Mark;
subCategory = Nonspacing;
},
